<?xml version="1.0" encoding="utf-8" standalone="no"?>
<!DOCTYPE svg PUBLIC "-//W3C//DTD SVG 1.1//EN"
  "http://www.w3.org/Graphics/SVG/1.1/DTD/svg11.dtd">
<svg xmlns:xlink="http://www.w3.org/1999/xlink" width="534.848025pt" height="467.495594pt" viewBox="0 0 534.848025 467.495594" xmlns="http://www.w3.org/2000/svg" version="1.1">
 <metadata>
  <rdf:RDF xmlns:dc="http://purl.org/dc/elements/1.1/" xmlns:cc="http://creativecommons.org/ns#" xmlns:rdf="http://www.w3.org/1999/02/22-rdf-syntax-ns#">
   <cc:Work>
    <dc:type rdf:resource="http://purl.org/dc/dcmitype/StillImage"/>
    <dc:date>2023-01-16T14:39:17.765282</dc:date>
    <dc:format>image/svg+xml</dc:format>
    <dc:creator>
     <cc:Agent>
      <dc:title>Matplotlib v3.5.1, https://matplotlib.org/</dc:title>
     </cc:Agent>
    </dc:creator>
   </cc:Work>
  </rdf:RDF>
 </metadata>
 <defs>
  <style type="text/css">*{stroke-linejoin: round; stroke-linecap: butt}</style>
 </defs>
 <g id="figure_1">
  <g id="patch_1">
   <path d="M 0 467.495594 
L 534.848025 467.495594 
L 534.848025 0 
L 0 0 
z
" style="fill: #ffffff"/>
  </g>
  <g id="axes_1">
   <g id="patch_2">
    <path d="M 71.416531 411.309937 
L 517.816531 411.309937 
L 517.816531 23.229938 
L 71.416531 23.229938 
z
" style="fill: #ffffff"/>
   </g>
   <g id="patch_3">
    <path d="M 65.881713 411.309937 
L 82.825033 411.309937 
L 82.825033 409.892441 
L 65.881713 409.892441 
z
" clip-path="url(#p27cc7509dc)" style="fill: #1f77b4; fill-opacity: 0.75; stroke: #000000; stroke-linejoin: miter"/>
   </g>
   <g id="patch_4">
    <path d="M 82.825033 411.309937 
L 99.768353 411.309937 
L 99.768353 409.546882 
L 82.825033 409.546882 
z
" clip-path="url(#p27cc7509dc)" style="fill: #1f77b4; fill-opacity: 0.75; stroke: #000000; stroke-linejoin: miter"/>
   </g>
   <g id="patch_5">
    <path d="M 99.768353 411.309937 
L 116.711673 411.309937 
L 116.711673 408.221063 
L 99.768353 408.221063 
z
" clip-path="url(#p27cc7509dc)" style="fill: #1f77b4; fill-opacity: 0.75; stroke: #000000; stroke-linejoin: miter"/>
   </g>
   <g id="patch_6">
    <path d="M 116.711673 411.309937 
L 133.654993 411.309937 
L 133.654993 408.679458 
L 116.711673 408.679458 
z
" clip-path="url(#p27cc7509dc)" style="fill: #1f77b4; fill-opacity: 0.75; stroke: #000000; stroke-linejoin: miter"/>
   </g>
   <g id="patch_7">
    <path d="M 133.654993 411.309937 
L 150.598313 411.309937 
L 150.598313 406.027822 
L 133.654993 406.027822 
z
" clip-path="url(#p27cc7509dc)" style="fill: #1f77b4; fill-opacity: 0.75; stroke: #000000; stroke-linejoin: miter"/>
   </g>
   <g id="patch_8">
    <path d="M 150.598313 411.309937 
L 167.541632 411.309937 
L 167.541632 404.017938 
L 150.598313 404.017938 
z
" clip-path="url(#p27cc7509dc)" style="fill: #1f77b4; fill-opacity: 0.75; stroke: #000000; stroke-linejoin: miter"/>
   </g>
   <g id="patch_9">
    <path d="M 167.541632 411.309937 
L 184.484952 411.309937 
L 184.484952 397.480527 
L 167.541632 397.480527 
z
" clip-path="url(#p27cc7509dc)" style="fill: #1f77b4; fill-opacity: 0.75; stroke: #000000; stroke-linejoin: miter"/>
   </g>
   <g id="patch_10">
    <path d="M 184.484952 411.309937 
L 201.428272 411.309937 
L 201.428272 403.975625 
L 184.484952 403.975625 
z
" clip-path="url(#p27cc7509dc)" style="fill: #1f77b4; fill-opacity: 0.75; stroke: #000000; stroke-linejoin: miter"/>
   </g>
   <g id="patch_11">
    <path d="M 201.428272 411.309937 
L 218.371592 411.309937 
L 218.371592 381.648284 
L 201.428272 381.648284 
z
" clip-path="url(#p27cc7509dc)" style="fill: #1f77b4; fill-opacity: 0.75; stroke: #000000; stroke-linejoin: miter"/>
   </g>
   <g id="patch_12">
    <path d="M 218.371592 411.309937 
L 235.314912 411.309937 
L 235.314912 376.944451 
L 218.371592 376.944451 
z
" clip-path="url(#p27cc7509dc)" style="fill: #1f77b4; fill-opacity: 0.75; stroke: #000000; stroke-linejoin: miter"/>
   </g>
   <g id="patch_13">
    <path d="M 235.314912 411.309937 
L 252.258232 411.309937 
L 252.258232 319.207894 
L 235.314912 319.207894 
z
" clip-path="url(#p27cc7509dc)" style="fill: #1f77b4; fill-opacity: 0.75; stroke: #000000; stroke-linejoin: miter"/>
   </g>
   <g id="patch_14">
    <path d="M 252.258232 411.309937 
L 269.201551 411.309937 
L 269.201551 327.945599 
L 252.258232 327.945599 
z
" clip-path="url(#p27cc7509dc)" style="fill: #1f77b4; fill-opacity: 0.75; stroke: #000000; stroke-linejoin: miter"/>
   </g>
   <g id="patch_15">
    <path d="M 269.201551 411.309937 
L 286.144871 411.309937 
L 286.144871 41.709938 
L 269.201551 41.709938 
z
" clip-path="url(#p27cc7509dc)" style="fill: #1f77b4; fill-opacity: 0.75; stroke: #000000; stroke-linejoin: miter"/>
   </g>
   <g id="patch_16">
    <path d="M 286.144871 411.309937 
L 303.088191 411.309937 
L 303.088191 411.309937 
L 286.144871 411.309937 
z
" clip-path="url(#p27cc7509dc)" style="fill: #1f77b4; fill-opacity: 0.75; stroke: #000000; stroke-linejoin: miter"/>
   </g>
   <g id="patch_17">
    <path d="M 303.088191 411.309937 
L 320.031511 411.309937 
L 320.031511 45.849593 
L 303.088191 45.849593 
z
" clip-path="url(#p27cc7509dc)" style="fill: #1f77b4; fill-opacity: 0.75; stroke: #000000; stroke-linejoin: miter"/>
   </g>
   <g id="patch_18">
    <path d="M 320.031511 411.309937 
L 336.974831 411.309937 
L 336.974831 330.956899 
L 320.031511 330.956899 
z
" clip-path="url(#p27cc7509dc)" style="fill: #1f77b4; fill-opacity: 0.75; stroke: #000000; stroke-linejoin: miter"/>
   </g>
   <g id="patch_19">
    <path d="M 336.974831 411.309937 
L 353.918151 411.309937 
L 353.918151 321.549232 
L 336.974831 321.549232 
z
" clip-path="url(#p27cc7509dc)" style="fill: #1f77b4; fill-opacity: 0.75; stroke: #000000; stroke-linejoin: miter"/>
   </g>
   <g id="patch_20">
    <path d="M 353.918151 411.309937 
L 370.861471 411.309937 
L 370.861471 376.84572 
L 353.918151 376.84572 
z
" clip-path="url(#p27cc7509dc)" style="fill: #1f77b4; fill-opacity: 0.75; stroke: #000000; stroke-linejoin: miter"/>
   </g>
   <g id="patch_21">
    <path d="M 370.861471 411.309937 
L 387.80479 411.309937 
L 387.80479 380.9078 
L 370.861471 380.9078 
z
" clip-path="url(#p27cc7509dc)" style="fill: #1f77b4; fill-opacity: 0.75; stroke: #000000; stroke-linejoin: miter"/>
   </g>
   <g id="patch_22">
    <path d="M 387.80479 411.309937 
L 404.74811 411.309937 
L 404.74811 403.171671 
L 387.80479 403.171671 
z
" clip-path="url(#p27cc7509dc)" style="fill: #1f77b4; fill-opacity: 0.75; stroke: #000000; stroke-linejoin: miter"/>
   </g>
   <g id="patch_23">
    <path d="M 404.74811 411.309937 
L 421.69143 411.309937 
L 421.69143 397.318325 
L 404.74811 397.318325 
z
" clip-path="url(#p27cc7509dc)" style="fill: #1f77b4; fill-opacity: 0.75; stroke: #000000; stroke-linejoin: miter"/>
   </g>
   <g id="patch_24">
    <path d="M 421.69143 411.309937 
L 438.63475 411.309937 
L 438.63475 404.476333 
L 421.69143 404.476333 
z
" clip-path="url(#p27cc7509dc)" style="fill: #1f77b4; fill-opacity: 0.75; stroke: #000000; stroke-linejoin: miter"/>
   </g>
   <g id="patch_25">
    <path d="M 438.63475 411.309937 
L 455.57807 411.309937 
L 455.57807 406.077187 
L 438.63475 406.077187 
z
" clip-path="url(#p27cc7509dc)" style="fill: #1f77b4; fill-opacity: 0.75; stroke: #000000; stroke-linejoin: miter"/>
   </g>
   <g id="patch_26">
    <path d="M 455.57807 411.309937 
L 472.52139 411.309937 
L 472.52139 408.531361 
L 455.57807 408.531361 
z
" clip-path="url(#p27cc7509dc)" style="fill: #1f77b4; fill-opacity: 0.75; stroke: #000000; stroke-linejoin: miter"/>
   </g>
   <g id="patch_27">
    <path d="M 472.52139 411.309937 
L 489.464709 411.309937 
L 489.464709 408.517257 
L 472.52139 408.517257 
z
" clip-path="url(#p27cc7509dc)" style="fill: #1f77b4; fill-opacity: 0.75; stroke: #000000; stroke-linejoin: miter"/>
   </g>
   <g id="patch_28">
    <path d="M 489.464709 411.309937 
L 506.408029 411.309937 
L 506.408029 409.44815 
L 489.464709 409.44815 
z
" clip-path="url(#p27cc7509dc)" style="fill: #1f77b4; fill-opacity: 0.75; stroke: #000000; stroke-linejoin: miter"/>
   </g>
   <g id="matplotlib.axis_1">
    <g id="xtick_1">
     <g id="line2d_1">
      <defs>
       <path id="m74ca7c47d8" d="M 0 0 
L 0 6 
" style="stroke: #000000; stroke-width: 1.25"/>
      </defs>
      <g>
       <use xlink:href="#m74ca7c47d8" x="74.353373" y="411.309937" style="stroke: #000000; stroke-width: 1.25"/>
      </g>
     </g>
     <g id="text_1">
      <!-- -39 -->
      <g transform="translate(64.472022 430.004047)scale(0.121 -0.121)">
       <defs>
        <path id="DejaVuSans-2d" d="M 313 2009 
L 1997 2009 
L 1997 1497 
L 313 1497 
L 313 2009 
z
" transform="scale(0.015625)"/>
        <path id="DejaVuSans-33" d="M 2597 2516 
Q 3050 2419 3304 2112 
Q 3559 1806 3559 1356 
Q 3559 666 3084 287 
Q 2609 -91 1734 -91 
Q 1441 -91 1130 -33 
Q 819 25 488 141 
L 488 750 
Q 750 597 1062 519 
Q 1375 441 1716 441 
Q 2309 441 2620 675 
Q 2931 909 2931 1356 
Q 2931 1769 2642 2001 
Q 2353 2234 1838 2234 
L 1294 2234 
L 1294 2753 
L 1863 2753 
Q 2328 2753 2575 2939 
Q 2822 3125 2822 3475 
Q 2822 3834 2567 4026 
Q 2313 4219 1838 4219 
Q 1578 4219 1281 4162 
Q 984 4106 628 3988 
L 628 4550 
Q 988 4650 1302 4700 
Q 1616 4750 1894 4750 
Q 2613 4750 3031 4423 
Q 3450 4097 3450 3541 
Q 3450 3153 3228 2886 
Q 3006 2619 2597 2516 
z
" transform="scale(0.015625)"/>
        <path id="DejaVuSans-39" d="M 703 97 
L 703 672 
Q 941 559 1184 500 
Q 1428 441 1663 441 
Q 2288 441 2617 861 
Q 2947 1281 2994 2138 
Q 2813 1869 2534 1725 
Q 2256 1581 1919 1581 
Q 1219 1581 811 2004 
Q 403 2428 403 3163 
Q 403 3881 828 4315 
Q 1253 4750 1959 4750 
Q 2769 4750 3195 4129 
Q 3622 3509 3622 2328 
Q 3622 1225 3098 567 
Q 2575 -91 1691 -91 
Q 1453 -91 1209 -44 
Q 966 3 703 97 
z
M 1959 2075 
Q 2384 2075 2632 2365 
Q 2881 2656 2881 3163 
Q 2881 3666 2632 3958 
Q 2384 4250 1959 4250 
Q 1534 4250 1286 3958 
Q 1038 3666 1038 3163 
Q 1038 2656 1286 2365 
Q 1534 2075 1959 2075 
z
" transform="scale(0.015625)"/>
       </defs>
       <use xlink:href="#DejaVuSans-2d"/>
       <use xlink:href="#DejaVuSans-33" x="36.083984"/>
       <use xlink:href="#DejaVuSans-39" x="99.707031"/>
      </g>
     </g>
    </g>
    <g id="xtick_2">
     <g id="line2d_2">
      <g>
       <use xlink:href="#m74ca7c47d8" x="108.240013" y="411.309937" style="stroke: #000000; stroke-width: 1.25"/>
      </g>
     </g>
     <g id="text_2">
      <!-- -33 -->
      <g transform="translate(98.358661 430.004047)scale(0.121 -0.121)">
       <use xlink:href="#DejaVuSans-2d"/>
       <use xlink:href="#DejaVuSans-33" x="36.083984"/>
       <use xlink:href="#DejaVuSans-33" x="99.707031"/>
      </g>
     </g>
    </g>
    <g id="xtick_3">
     <g id="line2d_3">
      <g>
       <use xlink:href="#m74ca7c47d8" x="142.126653" y="411.309937" style="stroke: #000000; stroke-width: 1.25"/>
      </g>
     </g>
     <g id="text_3">
      <!-- -27 -->
      <g transform="translate(132.245301 430.004047)scale(0.121 -0.121)">
       <defs>
        <path id="DejaVuSans-32" d="M 1228 531 
L 3431 531 
L 3431 0 
L 469 0 
L 469 531 
Q 828 903 1448 1529 
Q 2069 2156 2228 2338 
Q 2531 2678 2651 2914 
Q 2772 3150 2772 3378 
Q 2772 3750 2511 3984 
Q 2250 4219 1831 4219 
Q 1534 4219 1204 4116 
Q 875 4013 500 3803 
L 500 4441 
Q 881 4594 1212 4672 
Q 1544 4750 1819 4750 
Q 2544 4750 2975 4387 
Q 3406 4025 3406 3419 
Q 3406 3131 3298 2873 
Q 3191 2616 2906 2266 
Q 2828 2175 2409 1742 
Q 1991 1309 1228 531 
z
" transform="scale(0.015625)"/>
        <path id="DejaVuSans-37" d="M 525 4666 
L 3525 4666 
L 3525 4397 
L 1831 0 
L 1172 0 
L 2766 4134 
L 525 4134 
L 525 4666 
z
" transform="scale(0.015625)"/>
       </defs>
       <use xlink:href="#DejaVuSans-2d"/>
       <use xlink:href="#DejaVuSans-32" x="36.083984"/>
       <use xlink:href="#DejaVuSans-37" x="99.707031"/>
      </g>
     </g>
    </g>
    <g id="xtick_4">
     <g id="line2d_4">
      <g>
       <use xlink:href="#m74ca7c47d8" x="176.013292" y="411.309937" style="stroke: #000000; stroke-width: 1.25"/>
      </g>
     </g>
     <g id="text_4">
      <!-- -21 -->
      <g transform="translate(166.131941 430.004047)scale(0.121 -0.121)">
       <defs>
        <path id="DejaVuSans-31" d="M 794 531 
L 1825 531 
L 1825 4091 
L 703 3866 
L 703 4441 
L 1819 4666 
L 2450 4666 
L 2450 531 
L 3481 531 
L 3481 0 
L 794 0 
L 794 531 
z
" transform="scale(0.015625)"/>
       </defs>
       <use xlink:href="#DejaVuSans-2d"/>
       <use xlink:href="#DejaVuSans-32" x="36.083984"/>
       <use xlink:href="#DejaVuSans-31" x="99.707031"/>
      </g>
     </g>
    </g>
    <g id="xtick_5">
     <g id="line2d_5">
      <g>
       <use xlink:href="#m74ca7c47d8" x="209.899932" y="411.309937" style="stroke: #000000; stroke-width: 1.25"/>
      </g>
     </g>
     <g id="text_5">
      <!-- -15 -->
      <g transform="translate(200.01858 430.004047)scale(0.121 -0.121)">
       <defs>
        <path id="DejaVuSans-35" d="M 691 4666 
L 3169 4666 
L 3169 4134 
L 1269 4134 
L 1269 2991 
Q 1406 3038 1543 3061 
Q 1681 3084 1819 3084 
Q 2600 3084 3056 2656 
Q 3513 2228 3513 1497 
Q 3513 744 3044 326 
Q 2575 -91 1722 -91 
Q 1428 -91 1123 -41 
Q 819 9 494 109 
L 494 744 
Q 775 591 1075 516 
Q 1375 441 1709 441 
Q 2250 441 2565 725 
Q 2881 1009 2881 1497 
Q 2881 1984 2565 2268 
Q 2250 2553 1709 2553 
Q 1456 2553 1204 2497 
Q 953 2441 691 2322 
L 691 4666 
z
" transform="scale(0.015625)"/>
       </defs>
       <use xlink:href="#DejaVuSans-2d"/>
       <use xlink:href="#DejaVuSans-31" x="36.083984"/>
       <use xlink:href="#DejaVuSans-35" x="99.707031"/>
      </g>
     </g>
    </g>
    <g id="xtick_6">
     <g id="line2d_6">
      <g>
       <use xlink:href="#m74ca7c47d8" x="243.786572" y="411.309937" style="stroke: #000000; stroke-width: 1.25"/>
      </g>
     </g>
     <g id="text_6">
      <!-- -9 -->
      <g transform="translate(237.754533 430.004047)scale(0.121 -0.121)">
       <use xlink:href="#DejaVuSans-2d"/>
       <use xlink:href="#DejaVuSans-39" x="36.083984"/>
      </g>
     </g>
    </g>
    <g id="xtick_7">
     <g id="line2d_7">
      <g>
       <use xlink:href="#m74ca7c47d8" x="277.673211" y="411.309937" style="stroke: #000000; stroke-width: 1.25"/>
      </g>
     </g>
     <g id="text_7">
      <!-- -3 -->
      <g transform="translate(271.641172 430.004047)scale(0.121 -0.121)">
       <use xlink:href="#DejaVuSans-2d"/>
       <use xlink:href="#DejaVuSans-33" x="36.083984"/>
      </g>
     </g>
    </g>
    <g id="xtick_8">
     <g id="line2d_8">
      <g>
       <use xlink:href="#m74ca7c47d8" x="311.559851" y="411.309937" style="stroke: #000000; stroke-width: 1.25"/>
      </g>
     </g>
     <g id="text_8">
      <!-- +3 -->
      <g transform="translate(302.640828 430.004047)scale(0.121 -0.121)">
       <defs>
        <path id="DejaVuSans-2b" d="M 2944 4013 
L 2944 2272 
L 4684 2272 
L 4684 1741 
L 2944 1741 
L 2944 0 
L 2419 0 
L 2419 1741 
L 678 1741 
L 678 2272 
L 2419 2272 
L 2419 4013 
L 2944 4013 
z
" transform="scale(0.015625)"/>
       </defs>
       <use xlink:href="#DejaVuSans-2b"/>
       <use xlink:href="#DejaVuSans-33" x="83.789062"/>
      </g>
     </g>
    </g>
    <g id="xtick_9">
     <g id="line2d_9">
      <g>
       <use xlink:href="#m74ca7c47d8" x="345.446491" y="411.309937" style="stroke: #000000; stroke-width: 1.25"/>
      </g>
     </g>
     <g id="text_9">
      <!-- +9 -->
      <g transform="translate(336.527467 430.004047)scale(0.121 -0.121)">
       <use xlink:href="#DejaVuSans-2b"/>
       <use xlink:href="#DejaVuSans-39" x="83.789062"/>
      </g>
     </g>
    </g>
    <g id="xtick_10">
     <g id="line2d_10">
      <g>
       <use xlink:href="#m74ca7c47d8" x="379.33313" y="411.309937" style="stroke: #000000; stroke-width: 1.25"/>
      </g>
     </g>
     <g id="text_10">
      <!-- +15 -->
      <g transform="translate(366.564795 430.004047)scale(0.121 -0.121)">
       <use xlink:href="#DejaVuSans-2b"/>
       <use xlink:href="#DejaVuSans-31" x="83.789062"/>
       <use xlink:href="#DejaVuSans-35" x="147.412109"/>
      </g>
     </g>
    </g>
    <g id="xtick_11">
     <g id="line2d_11">
      <g>
       <use xlink:href="#m74ca7c47d8" x="413.21977" y="411.309937" style="stroke: #000000; stroke-width: 1.25"/>
      </g>
     </g>
     <g id="text_11">
      <!-- +21 -->
      <g transform="translate(400.451434 430.004047)scale(0.121 -0.121)">
       <use xlink:href="#DejaVuSans-2b"/>
       <use xlink:href="#DejaVuSans-32" x="83.789062"/>
       <use xlink:href="#DejaVuSans-31" x="147.412109"/>
      </g>
     </g>
    </g>
    <g id="xtick_12">
     <g id="line2d_12">
      <g>
       <use xlink:href="#m74ca7c47d8" x="447.10641" y="411.309937" style="stroke: #000000; stroke-width: 1.25"/>
      </g>
     </g>
     <g id="text_12">
      <!-- +27 -->
      <g transform="translate(434.338074 430.004047)scale(0.121 -0.121)">
       <use xlink:href="#DejaVuSans-2b"/>
       <use xlink:href="#DejaVuSans-32" x="83.789062"/>
       <use xlink:href="#DejaVuSans-37" x="147.412109"/>
      </g>
     </g>
    </g>
    <g id="xtick_13">
     <g id="line2d_13">
      <g>
       <use xlink:href="#m74ca7c47d8" x="480.993049" y="411.309937" style="stroke: #000000; stroke-width: 1.25"/>
      </g>
     </g>
     <g id="text_13">
      <!-- +33 -->
      <g transform="translate(468.224714 430.004047)scale(0.121 -0.121)">
       <use xlink:href="#DejaVuSans-2b"/>
       <use xlink:href="#DejaVuSans-33" x="83.789062"/>
       <use xlink:href="#DejaVuSans-33" x="147.412109"/>
      </g>
     </g>
    </g>
    <g id="xtick_14">
     <g id="line2d_14">
      <g>
       <use xlink:href="#m74ca7c47d8" x="514.879689" y="411.309937" style="stroke: #000000; stroke-width: 1.25"/>
      </g>
     </g>
     <g id="text_14">
      <!-- +39 -->
      <g transform="translate(502.111353 430.004047)scale(0.121 -0.121)">
       <use xlink:href="#DejaVuSans-2b"/>
       <use xlink:href="#DejaVuSans-33" x="83.789062"/>
       <use xlink:href="#DejaVuSans-39" x="147.412109"/>
      </g>
     </g>
    </g>
    <g id="text_15">
     <!-- Allele Size (bp) Relative to Reference -->
     <g transform="translate(172.437125 457.550406)scale(0.132 -0.132)">
      <defs>
       <path id="DejaVuSans-41" d="M 2188 4044 
L 1331 1722 
L 3047 1722 
L 2188 4044 
z
M 1831 4666 
L 2547 4666 
L 4325 0 
L 3669 0 
L 3244 1197 
L 1141 1197 
L 716 0 
L 50 0 
L 1831 4666 
z
" transform="scale(0.015625)"/>
       <path id="DejaVuSans-6c" d="M 603 4863 
L 1178 4863 
L 1178 0 
L 603 0 
L 603 4863 
z
" transform="scale(0.015625)"/>
       <path id="DejaVuSans-65" d="M 3597 1894 
L 3597 1613 
L 953 1613 
Q 991 1019 1311 708 
Q 1631 397 2203 397 
Q 2534 397 2845 478 
Q 3156 559 3463 722 
L 3463 178 
Q 3153 47 2828 -22 
Q 2503 -91 2169 -91 
Q 1331 -91 842 396 
Q 353 884 353 1716 
Q 353 2575 817 3079 
Q 1281 3584 2069 3584 
Q 2775 3584 3186 3129 
Q 3597 2675 3597 1894 
z
M 3022 2063 
Q 3016 2534 2758 2815 
Q 2500 3097 2075 3097 
Q 1594 3097 1305 2825 
Q 1016 2553 972 2059 
L 3022 2063 
z
" transform="scale(0.015625)"/>
       <path id="DejaVuSans-20" transform="scale(0.015625)"/>
       <path id="DejaVuSans-53" d="M 3425 4513 
L 3425 3897 
Q 3066 4069 2747 4153 
Q 2428 4238 2131 4238 
Q 1616 4238 1336 4038 
Q 1056 3838 1056 3469 
Q 1056 3159 1242 3001 
Q 1428 2844 1947 2747 
L 2328 2669 
Q 3034 2534 3370 2195 
Q 3706 1856 3706 1288 
Q 3706 609 3251 259 
Q 2797 -91 1919 -91 
Q 1588 -91 1214 -16 
Q 841 59 441 206 
L 441 856 
Q 825 641 1194 531 
Q 1563 422 1919 422 
Q 2459 422 2753 634 
Q 3047 847 3047 1241 
Q 3047 1584 2836 1778 
Q 2625 1972 2144 2069 
L 1759 2144 
Q 1053 2284 737 2584 
Q 422 2884 422 3419 
Q 422 4038 858 4394 
Q 1294 4750 2059 4750 
Q 2388 4750 2728 4690 
Q 3069 4631 3425 4513 
z
" transform="scale(0.015625)"/>
       <path id="DejaVuSans-69" d="M 603 3500 
L 1178 3500 
L 1178 0 
L 603 0 
L 603 3500 
z
M 603 4863 
L 1178 4863 
L 1178 4134 
L 603 4134 
L 603 4863 
z
" transform="scale(0.015625)"/>
       <path id="DejaVuSans-7a" d="M 353 3500 
L 3084 3500 
L 3084 2975 
L 922 459 
L 3084 459 
L 3084 0 
L 275 0 
L 275 525 
L 2438 3041 
L 353 3041 
L 353 3500 
z
" transform="scale(0.015625)"/>
       <path id="DejaVuSans-28" d="M 1984 4856 
Q 1566 4138 1362 3434 
Q 1159 2731 1159 2009 
Q 1159 1288 1364 580 
Q 1569 -128 1984 -844 
L 1484 -844 
Q 1016 -109 783 600 
Q 550 1309 550 2009 
Q 550 2706 781 3412 
Q 1013 4119 1484 4856 
L 1984 4856 
z
" transform="scale(0.015625)"/>
       <path id="DejaVuSans-62" d="M 3116 1747 
Q 3116 2381 2855 2742 
Q 2594 3103 2138 3103 
Q 1681 3103 1420 2742 
Q 1159 2381 1159 1747 
Q 1159 1113 1420 752 
Q 1681 391 2138 391 
Q 2594 391 2855 752 
Q 3116 1113 3116 1747 
z
M 1159 2969 
Q 1341 3281 1617 3432 
Q 1894 3584 2278 3584 
Q 2916 3584 3314 3078 
Q 3713 2572 3713 1747 
Q 3713 922 3314 415 
Q 2916 -91 2278 -91 
Q 1894 -91 1617 61 
Q 1341 213 1159 525 
L 1159 0 
L 581 0 
L 581 4863 
L 1159 4863 
L 1159 2969 
z
" transform="scale(0.015625)"/>
       <path id="DejaVuSans-70" d="M 1159 525 
L 1159 -1331 
L 581 -1331 
L 581 3500 
L 1159 3500 
L 1159 2969 
Q 1341 3281 1617 3432 
Q 1894 3584 2278 3584 
Q 2916 3584 3314 3078 
Q 3713 2572 3713 1747 
Q 3713 922 3314 415 
Q 2916 -91 2278 -91 
Q 1894 -91 1617 61 
Q 1341 213 1159 525 
z
M 3116 1747 
Q 3116 2381 2855 2742 
Q 2594 3103 2138 3103 
Q 1681 3103 1420 2742 
Q 1159 2381 1159 1747 
Q 1159 1113 1420 752 
Q 1681 391 2138 391 
Q 2594 391 2855 752 
Q 3116 1113 3116 1747 
z
" transform="scale(0.015625)"/>
       <path id="DejaVuSans-29" d="M 513 4856 
L 1013 4856 
Q 1481 4119 1714 3412 
Q 1947 2706 1947 2009 
Q 1947 1309 1714 600 
Q 1481 -109 1013 -844 
L 513 -844 
Q 928 -128 1133 580 
Q 1338 1288 1338 2009 
Q 1338 2731 1133 3434 
Q 928 4138 513 4856 
z
" transform="scale(0.015625)"/>
       <path id="DejaVuSans-52" d="M 2841 2188 
Q 3044 2119 3236 1894 
Q 3428 1669 3622 1275 
L 4263 0 
L 3584 0 
L 2988 1197 
Q 2756 1666 2539 1819 
Q 2322 1972 1947 1972 
L 1259 1972 
L 1259 0 
L 628 0 
L 628 4666 
L 2053 4666 
Q 2853 4666 3247 4331 
Q 3641 3997 3641 3322 
Q 3641 2881 3436 2590 
Q 3231 2300 2841 2188 
z
M 1259 4147 
L 1259 2491 
L 2053 2491 
Q 2509 2491 2742 2702 
Q 2975 2913 2975 3322 
Q 2975 3731 2742 3939 
Q 2509 4147 2053 4147 
L 1259 4147 
z
" transform="scale(0.015625)"/>
       <path id="DejaVuSans-61" d="M 2194 1759 
Q 1497 1759 1228 1600 
Q 959 1441 959 1056 
Q 959 750 1161 570 
Q 1363 391 1709 391 
Q 2188 391 2477 730 
Q 2766 1069 2766 1631 
L 2766 1759 
L 2194 1759 
z
M 3341 1997 
L 3341 0 
L 2766 0 
L 2766 531 
Q 2569 213 2275 61 
Q 1981 -91 1556 -91 
Q 1019 -91 701 211 
Q 384 513 384 1019 
Q 384 1609 779 1909 
Q 1175 2209 1959 2209 
L 2766 2209 
L 2766 2266 
Q 2766 2663 2505 2880 
Q 2244 3097 1772 3097 
Q 1472 3097 1187 3025 
Q 903 2953 641 2809 
L 641 3341 
Q 956 3463 1253 3523 
Q 1550 3584 1831 3584 
Q 2591 3584 2966 3190 
Q 3341 2797 3341 1997 
z
" transform="scale(0.015625)"/>
       <path id="DejaVuSans-74" d="M 1172 4494 
L 1172 3500 
L 2356 3500 
L 2356 3053 
L 1172 3053 
L 1172 1153 
Q 1172 725 1289 603 
Q 1406 481 1766 481 
L 2356 481 
L 2356 0 
L 1766 0 
Q 1100 0 847 248 
Q 594 497 594 1153 
L 594 3053 
L 172 3053 
L 172 3500 
L 594 3500 
L 594 4494 
L 1172 4494 
z
" transform="scale(0.015625)"/>
       <path id="DejaVuSans-76" d="M 191 3500 
L 800 3500 
L 1894 563 
L 2988 3500 
L 3597 3500 
L 2284 0 
L 1503 0 
L 191 3500 
z
" transform="scale(0.015625)"/>
       <path id="DejaVuSans-6f" d="M 1959 3097 
Q 1497 3097 1228 2736 
Q 959 2375 959 1747 
Q 959 1119 1226 758 
Q 1494 397 1959 397 
Q 2419 397 2687 759 
Q 2956 1122 2956 1747 
Q 2956 2369 2687 2733 
Q 2419 3097 1959 3097 
z
M 1959 3584 
Q 2709 3584 3137 3096 
Q 3566 2609 3566 1747 
Q 3566 888 3137 398 
Q 2709 -91 1959 -91 
Q 1206 -91 779 398 
Q 353 888 353 1747 
Q 353 2609 779 3096 
Q 1206 3584 1959 3584 
z
" transform="scale(0.015625)"/>
       <path id="DejaVuSans-66" d="M 2375 4863 
L 2375 4384 
L 1825 4384 
Q 1516 4384 1395 4259 
Q 1275 4134 1275 3809 
L 1275 3500 
L 2222 3500 
L 2222 3053 
L 1275 3053 
L 1275 0 
L 697 0 
L 697 3053 
L 147 3053 
L 147 3500 
L 697 3500 
L 697 3744 
Q 697 4328 969 4595 
Q 1241 4863 1831 4863 
L 2375 4863 
z
" transform="scale(0.015625)"/>
       <path id="DejaVuSans-72" d="M 2631 2963 
Q 2534 3019 2420 3045 
Q 2306 3072 2169 3072 
Q 1681 3072 1420 2755 
Q 1159 2438 1159 1844 
L 1159 0 
L 581 0 
L 581 3500 
L 1159 3500 
L 1159 2956 
Q 1341 3275 1631 3429 
Q 1922 3584 2338 3584 
Q 2397 3584 2469 3576 
Q 2541 3569 2628 3553 
L 2631 2963 
z
" transform="scale(0.015625)"/>
       <path id="DejaVuSans-6e" d="M 3513 2113 
L 3513 0 
L 2938 0 
L 2938 2094 
Q 2938 2591 2744 2837 
Q 2550 3084 2163 3084 
Q 1697 3084 1428 2787 
Q 1159 2491 1159 1978 
L 1159 0 
L 581 0 
L 581 3500 
L 1159 3500 
L 1159 2956 
Q 1366 3272 1645 3428 
Q 1925 3584 2291 3584 
Q 2894 3584 3203 3211 
Q 3513 2838 3513 2113 
z
" transform="scale(0.015625)"/>
       <path id="DejaVuSans-63" d="M 3122 3366 
L 3122 2828 
Q 2878 2963 2633 3030 
Q 2388 3097 2138 3097 
Q 1578 3097 1268 2742 
Q 959 2388 959 1747 
Q 959 1106 1268 751 
Q 1578 397 2138 397 
Q 2388 397 2633 464 
Q 2878 531 3122 666 
L 3122 134 
Q 2881 22 2623 -34 
Q 2366 -91 2075 -91 
Q 1284 -91 818 406 
Q 353 903 353 1747 
Q 353 2603 823 3093 
Q 1294 3584 2113 3584 
Q 2378 3584 2631 3529 
Q 2884 3475 3122 3366 
z
" transform="scale(0.015625)"/>
      </defs>
      <use xlink:href="#DejaVuSans-41"/>
      <use xlink:href="#DejaVuSans-6c" x="68.408203"/>
      <use xlink:href="#DejaVuSans-6c" x="96.191406"/>
      <use xlink:href="#DejaVuSans-65" x="123.974609"/>
      <use xlink:href="#DejaVuSans-6c" x="185.498047"/>
      <use xlink:href="#DejaVuSans-65" x="213.28125"/>
      <use xlink:href="#DejaVuSans-20" x="274.804688"/>
      <use xlink:href="#DejaVuSans-53" x="306.591797"/>
      <use xlink:href="#DejaVuSans-69" x="370.068359"/>
      <use xlink:href="#DejaVuSans-7a" x="397.851562"/>
      <use xlink:href="#DejaVuSans-65" x="450.341797"/>
      <use xlink:href="#DejaVuSans-20" x="511.865234"/>
      <use xlink:href="#DejaVuSans-28" x="543.652344"/>
      <use xlink:href="#DejaVuSans-62" x="582.666016"/>
      <use xlink:href="#DejaVuSans-70" x="646.142578"/>
      <use xlink:href="#DejaVuSans-29" x="709.619141"/>
      <use xlink:href="#DejaVuSans-20" x="748.632812"/>
      <use xlink:href="#DejaVuSans-52" x="780.419922"/>
      <use xlink:href="#DejaVuSans-65" x="845.402344"/>
      <use xlink:href="#DejaVuSans-6c" x="906.925781"/>
      <use xlink:href="#DejaVuSans-61" x="934.708984"/>
      <use xlink:href="#DejaVuSans-74" x="995.988281"/>
      <use xlink:href="#DejaVuSans-69" x="1035.197266"/>
      <use xlink:href="#DejaVuSans-76" x="1062.980469"/>
      <use xlink:href="#DejaVuSans-65" x="1122.160156"/>
      <use xlink:href="#DejaVuSans-20" x="1183.683594"/>
      <use xlink:href="#DejaVuSans-74" x="1215.470703"/>
      <use xlink:href="#DejaVuSans-6f" x="1254.679688"/>
      <use xlink:href="#DejaVuSans-20" x="1315.861328"/>
      <use xlink:href="#DejaVuSans-52" x="1347.648438"/>
      <use xlink:href="#DejaVuSans-65" x="1412.630859"/>
      <use xlink:href="#DejaVuSans-66" x="1474.154297"/>
      <use xlink:href="#DejaVuSans-65" x="1509.359375"/>
      <use xlink:href="#DejaVuSans-72" x="1570.882812"/>
      <use xlink:href="#DejaVuSans-65" x="1609.746094"/>
      <use xlink:href="#DejaVuSans-6e" x="1671.269531"/>
      <use xlink:href="#DejaVuSans-63" x="1734.648438"/>
      <use xlink:href="#DejaVuSans-65" x="1789.628906"/>
     </g>
    </g>
   </g>
   <g id="matplotlib.axis_2">
    <g id="ytick_1">
     <g id="line2d_15">
      <defs>
       <path id="m75dadcb4ef" d="M 0 0 
L -6 0 
" style="stroke: #000000; stroke-width: 1.25"/>
      </defs>
      <g>
       <use xlink:href="#m75dadcb4ef" x="71.416531" y="411.309937" style="stroke: #000000; stroke-width: 1.25"/>
      </g>
     </g>
     <g id="text_16">
      <!-- 0.00 -->
      <g transform="translate(34.975125 415.906992)scale(0.121 -0.121)">
       <defs>
        <path id="DejaVuSans-30" d="M 2034 4250 
Q 1547 4250 1301 3770 
Q 1056 3291 1056 2328 
Q 1056 1369 1301 889 
Q 1547 409 2034 409 
Q 2525 409 2770 889 
Q 3016 1369 3016 2328 
Q 3016 3291 2770 3770 
Q 2525 4250 2034 4250 
z
M 2034 4750 
Q 2819 4750 3233 4129 
Q 3647 3509 3647 2328 
Q 3647 1150 3233 529 
Q 2819 -91 2034 -91 
Q 1250 -91 836 529 
Q 422 1150 422 2328 
Q 422 3509 836 4129 
Q 1250 4750 2034 4750 
z
" transform="scale(0.015625)"/>
        <path id="DejaVuSans-2e" d="M 684 794 
L 1344 794 
L 1344 0 
L 684 0 
L 684 794 
z
" transform="scale(0.015625)"/>
       </defs>
       <use xlink:href="#DejaVuSans-30"/>
       <use xlink:href="#DejaVuSans-2e" x="63.623047"/>
       <use xlink:href="#DejaVuSans-30" x="95.410156"/>
       <use xlink:href="#DejaVuSans-30" x="159.033203"/>
      </g>
     </g>
    </g>
    <g id="ytick_2">
     <g id="line2d_16">
      <g>
       <use xlink:href="#m75dadcb4ef" x="71.416531" y="346.619888" style="stroke: #000000; stroke-width: 1.25"/>
      </g>
     </g>
     <g id="text_17">
      <!-- 0.05 -->
      <g transform="translate(34.975125 351.216943)scale(0.121 -0.121)">
       <use xlink:href="#DejaVuSans-30"/>
       <use xlink:href="#DejaVuSans-2e" x="63.623047"/>
       <use xlink:href="#DejaVuSans-30" x="95.410156"/>
       <use xlink:href="#DejaVuSans-35" x="159.033203"/>
      </g>
     </g>
    </g>
    <g id="ytick_3">
     <g id="line2d_17">
      <g>
       <use xlink:href="#m75dadcb4ef" x="71.416531" y="281.929839" style="stroke: #000000; stroke-width: 1.25"/>
      </g>
     </g>
     <g id="text_18">
      <!-- 0.10 -->
      <g transform="translate(34.975125 286.526893)scale(0.121 -0.121)">
       <use xlink:href="#DejaVuSans-30"/>
       <use xlink:href="#DejaVuSans-2e" x="63.623047"/>
       <use xlink:href="#DejaVuSans-31" x="95.410156"/>
       <use xlink:href="#DejaVuSans-30" x="159.033203"/>
      </g>
     </g>
    </g>
    <g id="ytick_4">
     <g id="line2d_18">
      <g>
       <use xlink:href="#m75dadcb4ef" x="71.416531" y="217.239789" style="stroke: #000000; stroke-width: 1.25"/>
      </g>
     </g>
     <g id="text_19">
      <!-- 0.15 -->
      <g transform="translate(34.975125 221.836844)scale(0.121 -0.121)">
       <use xlink:href="#DejaVuSans-30"/>
       <use xlink:href="#DejaVuSans-2e" x="63.623047"/>
       <use xlink:href="#DejaVuSans-31" x="95.410156"/>
       <use xlink:href="#DejaVuSans-35" x="159.033203"/>
      </g>
     </g>
    </g>
    <g id="ytick_5">
     <g id="line2d_19">
      <g>
       <use xlink:href="#m75dadcb4ef" x="71.416531" y="152.54974" style="stroke: #000000; stroke-width: 1.25"/>
      </g>
     </g>
     <g id="text_20">
      <!-- 0.20 -->
      <g transform="translate(34.975125 157.146795)scale(0.121 -0.121)">
       <use xlink:href="#DejaVuSans-30"/>
       <use xlink:href="#DejaVuSans-2e" x="63.623047"/>
       <use xlink:href="#DejaVuSans-32" x="95.410156"/>
       <use xlink:href="#DejaVuSans-30" x="159.033203"/>
      </g>
     </g>
    </g>
    <g id="ytick_6">
     <g id="line2d_20">
      <g>
       <use xlink:href="#m75dadcb4ef" x="71.416531" y="87.85969" style="stroke: #000000; stroke-width: 1.25"/>
      </g>
     </g>
     <g id="text_21">
      <!-- 0.25 -->
      <g transform="translate(34.975125 92.456745)scale(0.121 -0.121)">
       <use xlink:href="#DejaVuSans-30"/>
       <use xlink:href="#DejaVuSans-2e" x="63.623047"/>
       <use xlink:href="#DejaVuSans-32" x="95.410156"/>
       <use xlink:href="#DejaVuSans-35" x="159.033203"/>
      </g>
     </g>
    </g>
    <g id="text_22">
     <!-- Fraction of Alleles -->
     <g transform="translate(17.229938 275.749031)rotate(-90)scale(0.132 -0.132)">
      <defs>
       <path id="DejaVuSans-46" d="M 628 4666 
L 3309 4666 
L 3309 4134 
L 1259 4134 
L 1259 2759 
L 3109 2759 
L 3109 2228 
L 1259 2228 
L 1259 0 
L 628 0 
L 628 4666 
z
" transform="scale(0.015625)"/>
       <path id="DejaVuSans-73" d="M 2834 3397 
L 2834 2853 
Q 2591 2978 2328 3040 
Q 2066 3103 1784 3103 
Q 1356 3103 1142 2972 
Q 928 2841 928 2578 
Q 928 2378 1081 2264 
Q 1234 2150 1697 2047 
L 1894 2003 
Q 2506 1872 2764 1633 
Q 3022 1394 3022 966 
Q 3022 478 2636 193 
Q 2250 -91 1575 -91 
Q 1294 -91 989 -36 
Q 684 19 347 128 
L 347 722 
Q 666 556 975 473 
Q 1284 391 1588 391 
Q 1994 391 2212 530 
Q 2431 669 2431 922 
Q 2431 1156 2273 1281 
Q 2116 1406 1581 1522 
L 1381 1569 
Q 847 1681 609 1914 
Q 372 2147 372 2553 
Q 372 3047 722 3315 
Q 1072 3584 1716 3584 
Q 2034 3584 2315 3537 
Q 2597 3491 2834 3397 
z
" transform="scale(0.015625)"/>
      </defs>
      <use xlink:href="#DejaVuSans-46"/>
      <use xlink:href="#DejaVuSans-72" x="50.269531"/>
      <use xlink:href="#DejaVuSans-61" x="91.382812"/>
      <use xlink:href="#DejaVuSans-63" x="152.662109"/>
      <use xlink:href="#DejaVuSans-74" x="207.642578"/>
      <use xlink:href="#DejaVuSans-69" x="246.851562"/>
      <use xlink:href="#DejaVuSans-6f" x="274.634766"/>
      <use xlink:href="#DejaVuSans-6e" x="335.816406"/>
      <use xlink:href="#DejaVuSans-20" x="399.195312"/>
      <use xlink:href="#DejaVuSans-6f" x="430.982422"/>
      <use xlink:href="#DejaVuSans-66" x="492.164062"/>
      <use xlink:href="#DejaVuSans-20" x="527.369141"/>
      <use xlink:href="#DejaVuSans-41" x="559.15625"/>
      <use xlink:href="#DejaVuSans-6c" x="627.564453"/>
      <use xlink:href="#DejaVuSans-6c" x="655.347656"/>
      <use xlink:href="#DejaVuSans-65" x="683.130859"/>
      <use xlink:href="#DejaVuSans-6c" x="744.654297"/>
      <use xlink:href="#DejaVuSans-65" x="772.4375"/>
      <use xlink:href="#DejaVuSans-73" x="833.960938"/>
     </g>
    </g>
   </g>
   <g id="patch_29">
    <path d="M 71.416531 411.309937 
L 71.416531 23.229938 
" style="fill: none; stroke: #000000; stroke-width: 1.25; stroke-linejoin: miter; stroke-linecap: square"/>
   </g>
   <g id="patch_30">
    <path d="M 71.416531 411.309937 
L 517.816531 411.309937 
" style="fill: none; stroke: #000000; stroke-width: 1.25; stroke-linejoin: miter; stroke-linecap: square"/>
   </g>
   <g id="text_23">
    <!-- Size of STR in CHM1-CHM13 Relative to hg38 -->
    <g transform="translate(145.674125 17.229938)scale(0.132 -0.132)">
     <defs>
      <path id="DejaVuSans-54" d="M -19 4666 
L 3928 4666 
L 3928 4134 
L 2272 4134 
L 2272 0 
L 1638 0 
L 1638 4134 
L -19 4134 
L -19 4666 
z
" transform="scale(0.015625)"/>
      <path id="DejaVuSans-43" d="M 4122 4306 
L 4122 3641 
Q 3803 3938 3442 4084 
Q 3081 4231 2675 4231 
Q 1875 4231 1450 3742 
Q 1025 3253 1025 2328 
Q 1025 1406 1450 917 
Q 1875 428 2675 428 
Q 3081 428 3442 575 
Q 3803 722 4122 1019 
L 4122 359 
Q 3791 134 3420 21 
Q 3050 -91 2638 -91 
Q 1578 -91 968 557 
Q 359 1206 359 2328 
Q 359 3453 968 4101 
Q 1578 4750 2638 4750 
Q 3056 4750 3426 4639 
Q 3797 4528 4122 4306 
z
" transform="scale(0.015625)"/>
      <path id="DejaVuSans-48" d="M 628 4666 
L 1259 4666 
L 1259 2753 
L 3553 2753 
L 3553 4666 
L 4184 4666 
L 4184 0 
L 3553 0 
L 3553 2222 
L 1259 2222 
L 1259 0 
L 628 0 
L 628 4666 
z
" transform="scale(0.015625)"/>
      <path id="DejaVuSans-4d" d="M 628 4666 
L 1569 4666 
L 2759 1491 
L 3956 4666 
L 4897 4666 
L 4897 0 
L 4281 0 
L 4281 4097 
L 3078 897 
L 2444 897 
L 1241 4097 
L 1241 0 
L 628 0 
L 628 4666 
z
" transform="scale(0.015625)"/>
      <path id="DejaVuSans-68" d="M 3513 2113 
L 3513 0 
L 2938 0 
L 2938 2094 
Q 2938 2591 2744 2837 
Q 2550 3084 2163 3084 
Q 1697 3084 1428 2787 
Q 1159 2491 1159 1978 
L 1159 0 
L 581 0 
L 581 4863 
L 1159 4863 
L 1159 2956 
Q 1366 3272 1645 3428 
Q 1925 3584 2291 3584 
Q 2894 3584 3203 3211 
Q 3513 2838 3513 2113 
z
" transform="scale(0.015625)"/>
      <path id="DejaVuSans-67" d="M 2906 1791 
Q 2906 2416 2648 2759 
Q 2391 3103 1925 3103 
Q 1463 3103 1205 2759 
Q 947 2416 947 1791 
Q 947 1169 1205 825 
Q 1463 481 1925 481 
Q 2391 481 2648 825 
Q 2906 1169 2906 1791 
z
M 3481 434 
Q 3481 -459 3084 -895 
Q 2688 -1331 1869 -1331 
Q 1566 -1331 1297 -1286 
Q 1028 -1241 775 -1147 
L 775 -588 
Q 1028 -725 1275 -790 
Q 1522 -856 1778 -856 
Q 2344 -856 2625 -561 
Q 2906 -266 2906 331 
L 2906 616 
Q 2728 306 2450 153 
Q 2172 0 1784 0 
Q 1141 0 747 490 
Q 353 981 353 1791 
Q 353 2603 747 3093 
Q 1141 3584 1784 3584 
Q 2172 3584 2450 3431 
Q 2728 3278 2906 2969 
L 2906 3500 
L 3481 3500 
L 3481 434 
z
" transform="scale(0.015625)"/>
      <path id="DejaVuSans-38" d="M 2034 2216 
Q 1584 2216 1326 1975 
Q 1069 1734 1069 1313 
Q 1069 891 1326 650 
Q 1584 409 2034 409 
Q 2484 409 2743 651 
Q 3003 894 3003 1313 
Q 3003 1734 2745 1975 
Q 2488 2216 2034 2216 
z
M 1403 2484 
Q 997 2584 770 2862 
Q 544 3141 544 3541 
Q 544 4100 942 4425 
Q 1341 4750 2034 4750 
Q 2731 4750 3128 4425 
Q 3525 4100 3525 3541 
Q 3525 3141 3298 2862 
Q 3072 2584 2669 2484 
Q 3125 2378 3379 2068 
Q 3634 1759 3634 1313 
Q 3634 634 3220 271 
Q 2806 -91 2034 -91 
Q 1263 -91 848 271 
Q 434 634 434 1313 
Q 434 1759 690 2068 
Q 947 2378 1403 2484 
z
M 1172 3481 
Q 1172 3119 1398 2916 
Q 1625 2713 2034 2713 
Q 2441 2713 2670 2916 
Q 2900 3119 2900 3481 
Q 2900 3844 2670 4047 
Q 2441 4250 2034 4250 
Q 1625 4250 1398 4047 
Q 1172 3844 1172 3481 
z
" transform="scale(0.015625)"/>
     </defs>
     <use xlink:href="#DejaVuSans-53"/>
     <use xlink:href="#DejaVuSans-69" x="63.476562"/>
     <use xlink:href="#DejaVuSans-7a" x="91.259766"/>
     <use xlink:href="#DejaVuSans-65" x="143.75"/>
     <use xlink:href="#DejaVuSans-20" x="205.273438"/>
     <use xlink:href="#DejaVuSans-6f" x="237.060547"/>
     <use xlink:href="#DejaVuSans-66" x="298.242188"/>
     <use xlink:href="#DejaVuSans-20" x="333.447266"/>
     <use xlink:href="#DejaVuSans-53" x="365.234375"/>
     <use xlink:href="#DejaVuSans-54" x="428.710938"/>
     <use xlink:href="#DejaVuSans-52" x="489.794922"/>
     <use xlink:href="#DejaVuSans-20" x="559.277344"/>
     <use xlink:href="#DejaVuSans-69" x="591.064453"/>
     <use xlink:href="#DejaVuSans-6e" x="618.847656"/>
     <use xlink:href="#DejaVuSans-20" x="682.226562"/>
     <use xlink:href="#DejaVuSans-43" x="714.013672"/>
     <use xlink:href="#DejaVuSans-48" x="783.837891"/>
     <use xlink:href="#DejaVuSans-4d" x="859.033203"/>
     <use xlink:href="#DejaVuSans-31" x="945.3125"/>
     <use xlink:href="#DejaVuSans-2d" x="1008.935547"/>
     <use xlink:href="#DejaVuSans-43" x="1045.019531"/>
     <use xlink:href="#DejaVuSans-48" x="1114.84375"/>
     <use xlink:href="#DejaVuSans-4d" x="1190.039062"/>
     <use xlink:href="#DejaVuSans-31" x="1276.318359"/>
     <use xlink:href="#DejaVuSans-33" x="1339.941406"/>
     <use xlink:href="#DejaVuSans-20" x="1403.564453"/>
     <use xlink:href="#DejaVuSans-52" x="1435.351562"/>
     <use xlink:href="#DejaVuSans-65" x="1500.333984"/>
     <use xlink:href="#DejaVuSans-6c" x="1561.857422"/>
     <use xlink:href="#DejaVuSans-61" x="1589.640625"/>
     <use xlink:href="#DejaVuSans-74" x="1650.919922"/>
     <use xlink:href="#DejaVuSans-69" x="1690.128906"/>
     <use xlink:href="#DejaVuSans-76" x="1717.912109"/>
     <use xlink:href="#DejaVuSans-65" x="1777.091797"/>
     <use xlink:href="#DejaVuSans-20" x="1838.615234"/>
     <use xlink:href="#DejaVuSans-74" x="1870.402344"/>
     <use xlink:href="#DejaVuSans-6f" x="1909.611328"/>
     <use xlink:href="#DejaVuSans-20" x="1970.792969"/>
     <use xlink:href="#DejaVuSans-68" x="2002.580078"/>
     <use xlink:href="#DejaVuSans-67" x="2065.958984"/>
     <use xlink:href="#DejaVuSans-33" x="2129.435547"/>
     <use xlink:href="#DejaVuSans-38" x="2193.058594"/>
    </g>
   </g>
  </g>
 </g>
 <defs>
  <clipPath id="p27cc7509dc">
   <rect x="71.416531" y="23.229938" width="446.4" height="388.08"/>
  </clipPath>
 </defs>
</svg>
