<?xml version="1.0" encoding="utf-8" standalone="no"?>
<!DOCTYPE svg PUBLIC "-//W3C//DTD SVG 1.1//EN"
  "http://www.w3.org/Graphics/SVG/1.1/DTD/svg11.dtd">
<svg xmlns:xlink="http://www.w3.org/1999/xlink" width="536.320658pt" height="467.580937pt" viewBox="0 0 536.320658 467.580937" xmlns="http://www.w3.org/2000/svg" version="1.1">
 <metadata>
  <rdf:RDF xmlns:dc="http://purl.org/dc/elements/1.1/" xmlns:cc="http://creativecommons.org/ns#" xmlns:rdf="http://www.w3.org/1999/02/22-rdf-syntax-ns#">
   <cc:Work>
    <dc:type rdf:resource="http://purl.org/dc/dcmitype/StillImage"/>
    <dc:date>2023-03-20T17:57:44.601570</dc:date>
    <dc:format>image/svg+xml</dc:format>
    <dc:creator>
     <cc:Agent>
      <dc:title>Matplotlib v3.5.1, https://matplotlib.org/</dc:title>
     </cc:Agent>
    </dc:creator>
   </cc:Work>
  </rdf:RDF>
 </metadata>
 <defs>
  <style type="text/css">*{stroke-linejoin: round; stroke-linecap: butt}</style>
 </defs>
 <g id="figure_1">
  <g id="patch_1">
   <path d="M 0 467.580937 
L 536.320658 467.580937 
L 536.320658 0 
L 0 0 
z
" style="fill: #ffffff"/>
  </g>
  <g id="axes_1">
   <g id="patch_2">
    <path d="M 72.994687 411.917812 
L 519.394688 411.917812 
L 519.394688 23.837812 
L 72.994687 23.837812 
z
" style="fill: #ffffff"/>
   </g>
   <g id="patch_3">
    <path d="M 67.45987 411.917812 
L 84.40319 411.917812 
L 84.40319 410.833942 
L 67.45987 410.833942 
z
" clip-path="url(#p8998b2f7e8)" style="fill: #1f77b4; fill-opacity: 0.75; stroke: #000000; stroke-width: 0.8; stroke-linejoin: miter"/>
   </g>
   <g id="patch_4">
    <path d="M 84.40319 411.917812 
L 101.346509 411.917812 
L 101.346509 410.625781 
L 84.40319 410.625781 
z
" clip-path="url(#p8998b2f7e8)" style="fill: #1f77b4; fill-opacity: 0.75; stroke: #000000; stroke-width: 0.8; stroke-linejoin: miter"/>
   </g>
   <g id="patch_5">
    <path d="M 101.346509 411.917812 
L 118.289829 411.917812 
L 118.289829 409.462952 
L 101.346509 409.462952 
z
" clip-path="url(#p8998b2f7e8)" style="fill: #1f77b4; fill-opacity: 0.75; stroke: #000000; stroke-width: 0.8; stroke-linejoin: miter"/>
   </g>
   <g id="patch_6">
    <path d="M 118.289829 411.917812 
L 135.233149 411.917812 
L 135.233149 409.599334 
L 118.289829 409.599334 
z
" clip-path="url(#p8998b2f7e8)" style="fill: #1f77b4; fill-opacity: 0.75; stroke: #000000; stroke-width: 0.8; stroke-linejoin: miter"/>
   </g>
   <g id="patch_7">
    <path d="M 135.233149 411.917812 
L 152.176469 411.917812 
L 152.176469 407.503371 
L 135.233149 407.503371 
z
" clip-path="url(#p8998b2f7e8)" style="fill: #1f77b4; fill-opacity: 0.75; stroke: #000000; stroke-width: 0.8; stroke-linejoin: miter"/>
   </g>
   <g id="patch_8">
    <path d="M 152.176469 411.917812 
L 169.119789 411.917812 
L 169.119789 406.290297 
L 152.176469 406.290297 
z
" clip-path="url(#p8998b2f7e8)" style="fill: #1f77b4; fill-opacity: 0.75; stroke: #000000; stroke-width: 0.8; stroke-linejoin: miter"/>
   </g>
   <g id="patch_9">
    <path d="M 169.119789 411.917812 
L 186.063109 411.917812 
L 186.063109 400.174681 
L 169.119789 400.174681 
z
" clip-path="url(#p8998b2f7e8)" style="fill: #1f77b4; fill-opacity: 0.75; stroke: #000000; stroke-width: 0.8; stroke-linejoin: miter"/>
   </g>
   <g id="patch_10">
    <path d="M 186.063109 411.917812 
L 203.006428 411.917812 
L 203.006428 405.82373 
L 186.063109 405.82373 
z
" clip-path="url(#p8998b2f7e8)" style="fill: #1f77b4; fill-opacity: 0.75; stroke: #000000; stroke-width: 0.8; stroke-linejoin: miter"/>
   </g>
   <g id="patch_11">
    <path d="M 203.006428 411.917812 
L 219.949748 411.917812 
L 219.949748 385.459876 
L 203.006428 385.459876 
z
" clip-path="url(#p8998b2f7e8)" style="fill: #1f77b4; fill-opacity: 0.75; stroke: #000000; stroke-width: 0.8; stroke-linejoin: miter"/>
   </g>
   <g id="patch_12">
    <path d="M 219.949748 411.917812 
L 236.893068 411.917812 
L 236.893068 382.330288 
L 219.949748 382.330288 
z
" clip-path="url(#p8998b2f7e8)" style="fill: #1f77b4; fill-opacity: 0.75; stroke: #000000; stroke-width: 0.8; stroke-linejoin: miter"/>
   </g>
   <g id="patch_13">
    <path d="M 236.893068 411.917812 
L 253.836388 411.917812 
L 253.836388 326.270472 
L 236.893068 326.270472 
z
" clip-path="url(#p8998b2f7e8)" style="fill: #1f77b4; fill-opacity: 0.75; stroke: #000000; stroke-width: 0.8; stroke-linejoin: miter"/>
   </g>
   <g id="patch_14">
    <path d="M 253.836388 411.917812 
L 270.779708 411.917812 
L 270.779708 329.99583 
L 253.836388 329.99583 
z
" clip-path="url(#p8998b2f7e8)" style="fill: #1f77b4; fill-opacity: 0.75; stroke: #000000; stroke-width: 0.8; stroke-linejoin: miter"/>
   </g>
   <g id="patch_15">
    <path d="M 270.779708 411.917812 
L 287.723028 411.917812 
L 287.723028 42.317812 
L 270.779708 42.317812 
z
" clip-path="url(#p8998b2f7e8)" style="fill: #1f77b4; fill-opacity: 0.75; stroke: #000000; stroke-width: 0.8; stroke-linejoin: miter"/>
   </g>
   <g id="patch_16">
    <path d="M 287.723028 411.917812 
L 304.666347 411.917812 
L 304.666347 411.917812 
L 287.723028 411.917812 
z
" clip-path="url(#p8998b2f7e8)" style="fill: #1f77b4; fill-opacity: 0.75; stroke: #000000; stroke-width: 0.8; stroke-linejoin: miter"/>
   </g>
   <g id="patch_17">
    <path d="M 304.666347 411.917812 
L 321.609667 411.917812 
L 321.609667 48.304226 
L 304.666347 48.304226 
z
" clip-path="url(#p8998b2f7e8)" style="fill: #1f77b4; fill-opacity: 0.75; stroke: #000000; stroke-width: 0.8; stroke-linejoin: miter"/>
   </g>
   <g id="patch_18">
    <path d="M 321.609667 411.917812 
L 338.552987 411.917812 
L 338.552987 333.218731 
L 321.609667 333.218731 
z
" clip-path="url(#p8998b2f7e8)" style="fill: #1f77b4; fill-opacity: 0.75; stroke: #000000; stroke-width: 0.8; stroke-linejoin: miter"/>
   </g>
   <g id="patch_19">
    <path d="M 338.552987 411.917812 
L 355.496307 411.917812 
L 355.496307 328.632019 
L 338.552987 328.632019 
z
" clip-path="url(#p8998b2f7e8)" style="fill: #1f77b4; fill-opacity: 0.75; stroke: #000000; stroke-width: 0.8; stroke-linejoin: miter"/>
   </g>
   <g id="patch_20">
    <path d="M 355.496307 411.917812 
L 372.439627 411.917812 
L 372.439627 382.086238 
L 355.496307 382.086238 
z
" clip-path="url(#p8998b2f7e8)" style="fill: #1f77b4; fill-opacity: 0.75; stroke: #000000; stroke-width: 0.8; stroke-linejoin: miter"/>
   </g>
   <g id="patch_21">
    <path d="M 372.439627 411.917812 
L 389.382947 411.917812 
L 389.382947 384.993309 
L 372.439627 384.993309 
z
" clip-path="url(#p8998b2f7e8)" style="fill: #1f77b4; fill-opacity: 0.75; stroke: #000000; stroke-width: 0.8; stroke-linejoin: miter"/>
   </g>
   <g id="patch_22">
    <path d="M 389.382947 411.917812 
L 406.326266 411.917812 
L 406.326266 404.904952 
L 389.382947 404.904952 
z
" clip-path="url(#p8998b2f7e8)" style="fill: #1f77b4; fill-opacity: 0.75; stroke: #000000; stroke-width: 0.8; stroke-linejoin: miter"/>
   </g>
   <g id="patch_23">
    <path d="M 406.326266 411.917812 
L 423.269586 411.917812 
L 423.269586 399.995232 
L 406.326266 399.995232 
z
" clip-path="url(#p8998b2f7e8)" style="fill: #1f77b4; fill-opacity: 0.75; stroke: #000000; stroke-width: 0.8; stroke-linejoin: miter"/>
   </g>
   <g id="patch_24">
    <path d="M 423.269586 411.917812 
L 440.212906 411.917812 
L 440.212906 406.448212 
L 423.269586 406.448212 
z
" clip-path="url(#p8998b2f7e8)" style="fill: #1f77b4; fill-opacity: 0.75; stroke: #000000; stroke-width: 0.8; stroke-linejoin: miter"/>
   </g>
   <g id="patch_25">
    <path d="M 440.212906 411.917812 
L 457.156226 411.917812 
L 457.156226 407.43877 
L 440.212906 407.43877 
z
" clip-path="url(#p8998b2f7e8)" style="fill: #1f77b4; fill-opacity: 0.75; stroke: #000000; stroke-width: 0.8; stroke-linejoin: miter"/>
   </g>
   <g id="patch_26">
    <path d="M 457.156226 411.917812 
L 474.099546 411.917812 
L 474.099546 409.584978 
L 457.156226 409.584978 
z
" clip-path="url(#p8998b2f7e8)" style="fill: #1f77b4; fill-opacity: 0.75; stroke: #000000; stroke-width: 0.8; stroke-linejoin: miter"/>
   </g>
   <g id="patch_27">
    <path d="M 474.099546 411.917812 
L 491.042866 411.917812 
L 491.042866 409.707003 
L 474.099546 409.707003 
z
" clip-path="url(#p8998b2f7e8)" style="fill: #1f77b4; fill-opacity: 0.75; stroke: #000000; stroke-width: 0.8; stroke-linejoin: miter"/>
   </g>
   <g id="patch_28">
    <path d="M 491.042866 411.917812 
L 507.986185 411.917812 
L 507.986185 410.518112 
L 491.042866 410.518112 
z
" clip-path="url(#p8998b2f7e8)" style="fill: #1f77b4; fill-opacity: 0.75; stroke: #000000; stroke-width: 0.8; stroke-linejoin: miter"/>
   </g>
   <g id="matplotlib.axis_1">
    <g id="xtick_1">
     <g id="line2d_1">
      <defs>
       <path id="mdcdb4d9f69" d="M 0 0 
L 0 4.8 
" style="stroke: #000000"/>
      </defs>
      <g>
       <use xlink:href="#mdcdb4d9f69" x="75.93153" y="411.917812" style="stroke: #000000"/>
      </g>
     </g>
     <g id="text_1">
      <!-- -39 -->
      <g transform="translate(66.131842 429.335937)scale(0.12 -0.12)">
       <defs>
        <path id="DejaVuSans-2d" d="M 313 2009 
L 1997 2009 
L 1997 1497 
L 313 1497 
L 313 2009 
z
" transform="scale(0.015625)"/>
        <path id="DejaVuSans-33" d="M 2597 2516 
Q 3050 2419 3304 2112 
Q 3559 1806 3559 1356 
Q 3559 666 3084 287 
Q 2609 -91 1734 -91 
Q 1441 -91 1130 -33 
Q 819 25 488 141 
L 488 750 
Q 750 597 1062 519 
Q 1375 441 1716 441 
Q 2309 441 2620 675 
Q 2931 909 2931 1356 
Q 2931 1769 2642 2001 
Q 2353 2234 1838 2234 
L 1294 2234 
L 1294 2753 
L 1863 2753 
Q 2328 2753 2575 2939 
Q 2822 3125 2822 3475 
Q 2822 3834 2567 4026 
Q 2313 4219 1838 4219 
Q 1578 4219 1281 4162 
Q 984 4106 628 3988 
L 628 4550 
Q 988 4650 1302 4700 
Q 1616 4750 1894 4750 
Q 2613 4750 3031 4423 
Q 3450 4097 3450 3541 
Q 3450 3153 3228 2886 
Q 3006 2619 2597 2516 
z
" transform="scale(0.015625)"/>
        <path id="DejaVuSans-39" d="M 703 97 
L 703 672 
Q 941 559 1184 500 
Q 1428 441 1663 441 
Q 2288 441 2617 861 
Q 2947 1281 2994 2138 
Q 2813 1869 2534 1725 
Q 2256 1581 1919 1581 
Q 1219 1581 811 2004 
Q 403 2428 403 3163 
Q 403 3881 828 4315 
Q 1253 4750 1959 4750 
Q 2769 4750 3195 4129 
Q 3622 3509 3622 2328 
Q 3622 1225 3098 567 
Q 2575 -91 1691 -91 
Q 1453 -91 1209 -44 
Q 966 3 703 97 
z
M 1959 2075 
Q 2384 2075 2632 2365 
Q 2881 2656 2881 3163 
Q 2881 3666 2632 3958 
Q 2384 4250 1959 4250 
Q 1534 4250 1286 3958 
Q 1038 3666 1038 3163 
Q 1038 2656 1286 2365 
Q 1534 2075 1959 2075 
z
" transform="scale(0.015625)"/>
       </defs>
       <use xlink:href="#DejaVuSans-2d"/>
       <use xlink:href="#DejaVuSans-33" x="36.083984"/>
       <use xlink:href="#DejaVuSans-39" x="99.707031"/>
      </g>
     </g>
    </g>
    <g id="xtick_2">
     <g id="line2d_2">
      <g>
       <use xlink:href="#mdcdb4d9f69" x="109.818169" y="411.917812" style="stroke: #000000"/>
      </g>
     </g>
     <g id="text_2">
      <!-- -33 -->
      <g transform="translate(100.018482 429.335937)scale(0.12 -0.12)">
       <use xlink:href="#DejaVuSans-2d"/>
       <use xlink:href="#DejaVuSans-33" x="36.083984"/>
       <use xlink:href="#DejaVuSans-33" x="99.707031"/>
      </g>
     </g>
    </g>
    <g id="xtick_3">
     <g id="line2d_3">
      <g>
       <use xlink:href="#mdcdb4d9f69" x="143.704809" y="411.917812" style="stroke: #000000"/>
      </g>
     </g>
     <g id="text_3">
      <!-- -27 -->
      <g transform="translate(133.905121 429.335937)scale(0.12 -0.12)">
       <defs>
        <path id="DejaVuSans-32" d="M 1228 531 
L 3431 531 
L 3431 0 
L 469 0 
L 469 531 
Q 828 903 1448 1529 
Q 2069 2156 2228 2338 
Q 2531 2678 2651 2914 
Q 2772 3150 2772 3378 
Q 2772 3750 2511 3984 
Q 2250 4219 1831 4219 
Q 1534 4219 1204 4116 
Q 875 4013 500 3803 
L 500 4441 
Q 881 4594 1212 4672 
Q 1544 4750 1819 4750 
Q 2544 4750 2975 4387 
Q 3406 4025 3406 3419 
Q 3406 3131 3298 2873 
Q 3191 2616 2906 2266 
Q 2828 2175 2409 1742 
Q 1991 1309 1228 531 
z
" transform="scale(0.015625)"/>
        <path id="DejaVuSans-37" d="M 525 4666 
L 3525 4666 
L 3525 4397 
L 1831 0 
L 1172 0 
L 2766 4134 
L 525 4134 
L 525 4666 
z
" transform="scale(0.015625)"/>
       </defs>
       <use xlink:href="#DejaVuSans-2d"/>
       <use xlink:href="#DejaVuSans-32" x="36.083984"/>
       <use xlink:href="#DejaVuSans-37" x="99.707031"/>
      </g>
     </g>
    </g>
    <g id="xtick_4">
     <g id="line2d_4">
      <g>
       <use xlink:href="#mdcdb4d9f69" x="177.591449" y="411.917812" style="stroke: #000000"/>
      </g>
     </g>
     <g id="text_4">
      <!-- -21 -->
      <g transform="translate(167.791761 429.335937)scale(0.12 -0.12)">
       <defs>
        <path id="DejaVuSans-31" d="M 794 531 
L 1825 531 
L 1825 4091 
L 703 3866 
L 703 4441 
L 1819 4666 
L 2450 4666 
L 2450 531 
L 3481 531 
L 3481 0 
L 794 0 
L 794 531 
z
" transform="scale(0.015625)"/>
       </defs>
       <use xlink:href="#DejaVuSans-2d"/>
       <use xlink:href="#DejaVuSans-32" x="36.083984"/>
       <use xlink:href="#DejaVuSans-31" x="99.707031"/>
      </g>
     </g>
    </g>
    <g id="xtick_5">
     <g id="line2d_5">
      <g>
       <use xlink:href="#mdcdb4d9f69" x="211.478088" y="411.917812" style="stroke: #000000"/>
      </g>
     </g>
     <g id="text_5">
      <!-- -15 -->
      <g transform="translate(201.678401 429.335937)scale(0.12 -0.12)">
       <defs>
        <path id="DejaVuSans-35" d="M 691 4666 
L 3169 4666 
L 3169 4134 
L 1269 4134 
L 1269 2991 
Q 1406 3038 1543 3061 
Q 1681 3084 1819 3084 
Q 2600 3084 3056 2656 
Q 3513 2228 3513 1497 
Q 3513 744 3044 326 
Q 2575 -91 1722 -91 
Q 1428 -91 1123 -41 
Q 819 9 494 109 
L 494 744 
Q 775 591 1075 516 
Q 1375 441 1709 441 
Q 2250 441 2565 725 
Q 2881 1009 2881 1497 
Q 2881 1984 2565 2268 
Q 2250 2553 1709 2553 
Q 1456 2553 1204 2497 
Q 953 2441 691 2322 
L 691 4666 
z
" transform="scale(0.015625)"/>
       </defs>
       <use xlink:href="#DejaVuSans-2d"/>
       <use xlink:href="#DejaVuSans-31" x="36.083984"/>
       <use xlink:href="#DejaVuSans-35" x="99.707031"/>
      </g>
     </g>
    </g>
    <g id="xtick_6">
     <g id="line2d_6">
      <g>
       <use xlink:href="#mdcdb4d9f69" x="245.364728" y="411.917812" style="stroke: #000000"/>
      </g>
     </g>
     <g id="text_6">
      <!-- -9 -->
      <g transform="translate(239.38254 429.335937)scale(0.12 -0.12)">
       <use xlink:href="#DejaVuSans-2d"/>
       <use xlink:href="#DejaVuSans-39" x="36.083984"/>
      </g>
     </g>
    </g>
    <g id="xtick_7">
     <g id="line2d_7">
      <g>
       <use xlink:href="#mdcdb4d9f69" x="279.251368" y="411.917812" style="stroke: #000000"/>
      </g>
     </g>
     <g id="text_7">
      <!-- -3 -->
      <g transform="translate(273.26918 429.335937)scale(0.12 -0.12)">
       <use xlink:href="#DejaVuSans-2d"/>
       <use xlink:href="#DejaVuSans-33" x="36.083984"/>
      </g>
     </g>
    </g>
    <g id="xtick_8">
     <g id="line2d_8">
      <g>
       <use xlink:href="#mdcdb4d9f69" x="313.138007" y="411.917812" style="stroke: #000000"/>
      </g>
     </g>
     <g id="text_8">
      <!-- +3 -->
      <g transform="translate(304.292695 429.335937)scale(0.12 -0.12)">
       <defs>
        <path id="DejaVuSans-2b" d="M 2944 4013 
L 2944 2272 
L 4684 2272 
L 4684 1741 
L 2944 1741 
L 2944 0 
L 2419 0 
L 2419 1741 
L 678 1741 
L 678 2272 
L 2419 2272 
L 2419 4013 
L 2944 4013 
z
" transform="scale(0.015625)"/>
       </defs>
       <use xlink:href="#DejaVuSans-2b"/>
       <use xlink:href="#DejaVuSans-33" x="83.789062"/>
      </g>
     </g>
    </g>
    <g id="xtick_9">
     <g id="line2d_9">
      <g>
       <use xlink:href="#mdcdb4d9f69" x="347.024647" y="411.917812" style="stroke: #000000"/>
      </g>
     </g>
     <g id="text_9">
      <!-- +9 -->
      <g transform="translate(338.179335 429.335937)scale(0.12 -0.12)">
       <use xlink:href="#DejaVuSans-2b"/>
       <use xlink:href="#DejaVuSans-39" x="83.789062"/>
      </g>
     </g>
    </g>
    <g id="xtick_10">
     <g id="line2d_10">
      <g>
       <use xlink:href="#mdcdb4d9f69" x="380.911287" y="411.917812" style="stroke: #000000"/>
      </g>
     </g>
     <g id="text_10">
      <!-- +15 -->
      <g transform="translate(368.248474 429.335937)scale(0.12 -0.12)">
       <use xlink:href="#DejaVuSans-2b"/>
       <use xlink:href="#DejaVuSans-31" x="83.789062"/>
       <use xlink:href="#DejaVuSans-35" x="147.412109"/>
      </g>
     </g>
    </g>
    <g id="xtick_11">
     <g id="line2d_11">
      <g>
       <use xlink:href="#mdcdb4d9f69" x="414.797926" y="411.917812" style="stroke: #000000"/>
      </g>
     </g>
     <g id="text_11">
      <!-- +21 -->
      <g transform="translate(402.135114 429.335937)scale(0.12 -0.12)">
       <use xlink:href="#DejaVuSans-2b"/>
       <use xlink:href="#DejaVuSans-32" x="83.789062"/>
       <use xlink:href="#DejaVuSans-31" x="147.412109"/>
      </g>
     </g>
    </g>
    <g id="xtick_12">
     <g id="line2d_12">
      <g>
       <use xlink:href="#mdcdb4d9f69" x="448.684566" y="411.917812" style="stroke: #000000"/>
      </g>
     </g>
     <g id="text_12">
      <!-- +27 -->
      <g transform="translate(436.021754 429.335937)scale(0.12 -0.12)">
       <use xlink:href="#DejaVuSans-2b"/>
       <use xlink:href="#DejaVuSans-32" x="83.789062"/>
       <use xlink:href="#DejaVuSans-37" x="147.412109"/>
      </g>
     </g>
    </g>
    <g id="xtick_13">
     <g id="line2d_13">
      <g>
       <use xlink:href="#mdcdb4d9f69" x="482.571206" y="411.917812" style="stroke: #000000"/>
      </g>
     </g>
     <g id="text_13">
      <!-- +33 -->
      <g transform="translate(469.908393 429.335937)scale(0.12 -0.12)">
       <use xlink:href="#DejaVuSans-2b"/>
       <use xlink:href="#DejaVuSans-33" x="83.789062"/>
       <use xlink:href="#DejaVuSans-33" x="147.412109"/>
      </g>
     </g>
    </g>
    <g id="xtick_14">
     <g id="line2d_14">
      <g>
       <use xlink:href="#mdcdb4d9f69" x="516.457845" y="411.917812" style="stroke: #000000"/>
      </g>
     </g>
     <g id="text_14">
      <!-- +39 -->
      <g transform="translate(503.795033 429.335937)scale(0.12 -0.12)">
       <use xlink:href="#DejaVuSans-2b"/>
       <use xlink:href="#DejaVuSans-33" x="83.789062"/>
       <use xlink:href="#DejaVuSans-39" x="147.412109"/>
      </g>
     </g>
    </g>
    <g id="text_15">
     <!-- Allele Size (bp) -->
     <g transform="translate(243.78875 457.469375)scale(0.14 -0.14)">
      <defs>
       <path id="DejaVuSans-41" d="M 2188 4044 
L 1331 1722 
L 3047 1722 
L 2188 4044 
z
M 1831 4666 
L 2547 4666 
L 4325 0 
L 3669 0 
L 3244 1197 
L 1141 1197 
L 716 0 
L 50 0 
L 1831 4666 
z
" transform="scale(0.015625)"/>
       <path id="DejaVuSans-6c" d="M 603 4863 
L 1178 4863 
L 1178 0 
L 603 0 
L 603 4863 
z
" transform="scale(0.015625)"/>
       <path id="DejaVuSans-65" d="M 3597 1894 
L 3597 1613 
L 953 1613 
Q 991 1019 1311 708 
Q 1631 397 2203 397 
Q 2534 397 2845 478 
Q 3156 559 3463 722 
L 3463 178 
Q 3153 47 2828 -22 
Q 2503 -91 2169 -91 
Q 1331 -91 842 396 
Q 353 884 353 1716 
Q 353 2575 817 3079 
Q 1281 3584 2069 3584 
Q 2775 3584 3186 3129 
Q 3597 2675 3597 1894 
z
M 3022 2063 
Q 3016 2534 2758 2815 
Q 2500 3097 2075 3097 
Q 1594 3097 1305 2825 
Q 1016 2553 972 2059 
L 3022 2063 
z
" transform="scale(0.015625)"/>
       <path id="DejaVuSans-20" transform="scale(0.015625)"/>
       <path id="DejaVuSans-53" d="M 3425 4513 
L 3425 3897 
Q 3066 4069 2747 4153 
Q 2428 4238 2131 4238 
Q 1616 4238 1336 4038 
Q 1056 3838 1056 3469 
Q 1056 3159 1242 3001 
Q 1428 2844 1947 2747 
L 2328 2669 
Q 3034 2534 3370 2195 
Q 3706 1856 3706 1288 
Q 3706 609 3251 259 
Q 2797 -91 1919 -91 
Q 1588 -91 1214 -16 
Q 841 59 441 206 
L 441 856 
Q 825 641 1194 531 
Q 1563 422 1919 422 
Q 2459 422 2753 634 
Q 3047 847 3047 1241 
Q 3047 1584 2836 1778 
Q 2625 1972 2144 2069 
L 1759 2144 
Q 1053 2284 737 2584 
Q 422 2884 422 3419 
Q 422 4038 858 4394 
Q 1294 4750 2059 4750 
Q 2388 4750 2728 4690 
Q 3069 4631 3425 4513 
z
" transform="scale(0.015625)"/>
       <path id="DejaVuSans-69" d="M 603 3500 
L 1178 3500 
L 1178 0 
L 603 0 
L 603 3500 
z
M 603 4863 
L 1178 4863 
L 1178 4134 
L 603 4134 
L 603 4863 
z
" transform="scale(0.015625)"/>
       <path id="DejaVuSans-7a" d="M 353 3500 
L 3084 3500 
L 3084 2975 
L 922 459 
L 3084 459 
L 3084 0 
L 275 0 
L 275 525 
L 2438 3041 
L 353 3041 
L 353 3500 
z
" transform="scale(0.015625)"/>
       <path id="DejaVuSans-28" d="M 1984 4856 
Q 1566 4138 1362 3434 
Q 1159 2731 1159 2009 
Q 1159 1288 1364 580 
Q 1569 -128 1984 -844 
L 1484 -844 
Q 1016 -109 783 600 
Q 550 1309 550 2009 
Q 550 2706 781 3412 
Q 1013 4119 1484 4856 
L 1984 4856 
z
" transform="scale(0.015625)"/>
       <path id="DejaVuSans-62" d="M 3116 1747 
Q 3116 2381 2855 2742 
Q 2594 3103 2138 3103 
Q 1681 3103 1420 2742 
Q 1159 2381 1159 1747 
Q 1159 1113 1420 752 
Q 1681 391 2138 391 
Q 2594 391 2855 752 
Q 3116 1113 3116 1747 
z
M 1159 2969 
Q 1341 3281 1617 3432 
Q 1894 3584 2278 3584 
Q 2916 3584 3314 3078 
Q 3713 2572 3713 1747 
Q 3713 922 3314 415 
Q 2916 -91 2278 -91 
Q 1894 -91 1617 61 
Q 1341 213 1159 525 
L 1159 0 
L 581 0 
L 581 4863 
L 1159 4863 
L 1159 2969 
z
" transform="scale(0.015625)"/>
       <path id="DejaVuSans-70" d="M 1159 525 
L 1159 -1331 
L 581 -1331 
L 581 3500 
L 1159 3500 
L 1159 2969 
Q 1341 3281 1617 3432 
Q 1894 3584 2278 3584 
Q 2916 3584 3314 3078 
Q 3713 2572 3713 1747 
Q 3713 922 3314 415 
Q 2916 -91 2278 -91 
Q 1894 -91 1617 61 
Q 1341 213 1159 525 
z
M 3116 1747 
Q 3116 2381 2855 2742 
Q 2594 3103 2138 3103 
Q 1681 3103 1420 2742 
Q 1159 2381 1159 1747 
Q 1159 1113 1420 752 
Q 1681 391 2138 391 
Q 2594 391 2855 752 
Q 3116 1113 3116 1747 
z
" transform="scale(0.015625)"/>
       <path id="DejaVuSans-29" d="M 513 4856 
L 1013 4856 
Q 1481 4119 1714 3412 
Q 1947 2706 1947 2009 
Q 1947 1309 1714 600 
Q 1481 -109 1013 -844 
L 513 -844 
Q 928 -128 1133 580 
Q 1338 1288 1338 2009 
Q 1338 2731 1133 3434 
Q 928 4138 513 4856 
z
" transform="scale(0.015625)"/>
      </defs>
      <use xlink:href="#DejaVuSans-41"/>
      <use xlink:href="#DejaVuSans-6c" x="68.408203"/>
      <use xlink:href="#DejaVuSans-6c" x="96.191406"/>
      <use xlink:href="#DejaVuSans-65" x="123.974609"/>
      <use xlink:href="#DejaVuSans-6c" x="185.498047"/>
      <use xlink:href="#DejaVuSans-65" x="213.28125"/>
      <use xlink:href="#DejaVuSans-20" x="274.804688"/>
      <use xlink:href="#DejaVuSans-53" x="306.591797"/>
      <use xlink:href="#DejaVuSans-69" x="370.068359"/>
      <use xlink:href="#DejaVuSans-7a" x="397.851562"/>
      <use xlink:href="#DejaVuSans-65" x="450.341797"/>
      <use xlink:href="#DejaVuSans-20" x="511.865234"/>
      <use xlink:href="#DejaVuSans-28" x="543.652344"/>
      <use xlink:href="#DejaVuSans-62" x="582.666016"/>
      <use xlink:href="#DejaVuSans-70" x="646.142578"/>
      <use xlink:href="#DejaVuSans-29" x="709.619141"/>
     </g>
    </g>
   </g>
   <g id="matplotlib.axis_2">
    <g id="ytick_1">
     <g id="line2d_15">
      <defs>
       <path id="m1511dcb30e" d="M 0 0 
L -4.8 0 
" style="stroke: #000000"/>
      </defs>
      <g>
       <use xlink:href="#m1511dcb30e" x="72.994687" y="411.917812" style="stroke: #000000"/>
      </g>
     </g>
     <g id="text_16">
      <!-- 0.00 -->
      <g transform="translate(35.749375 416.856797)scale(0.13 -0.13)">
       <defs>
        <path id="DejaVuSans-30" d="M 2034 4250 
Q 1547 4250 1301 3770 
Q 1056 3291 1056 2328 
Q 1056 1369 1301 889 
Q 1547 409 2034 409 
Q 2525 409 2770 889 
Q 3016 1369 3016 2328 
Q 3016 3291 2770 3770 
Q 2525 4250 2034 4250 
z
M 2034 4750 
Q 2819 4750 3233 4129 
Q 3647 3509 3647 2328 
Q 3647 1150 3233 529 
Q 2819 -91 2034 -91 
Q 1250 -91 836 529 
Q 422 1150 422 2328 
Q 422 3509 836 4129 
Q 1250 4750 2034 4750 
z
" transform="scale(0.015625)"/>
        <path id="DejaVuSans-2e" d="M 684 794 
L 1344 794 
L 1344 0 
L 684 0 
L 684 794 
z
" transform="scale(0.015625)"/>
       </defs>
       <use xlink:href="#DejaVuSans-30"/>
       <use xlink:href="#DejaVuSans-2e" x="63.623047"/>
       <use xlink:href="#DejaVuSans-30" x="95.410156"/>
       <use xlink:href="#DejaVuSans-30" x="159.033203"/>
      </g>
     </g>
    </g>
    <g id="ytick_2">
     <g id="line2d_16">
      <g>
       <use xlink:href="#m1511dcb30e" x="72.994687" y="349.646554" style="stroke: #000000"/>
      </g>
     </g>
     <g id="text_17">
      <!-- 0.05 -->
      <g transform="translate(35.749375 354.585539)scale(0.13 -0.13)">
       <use xlink:href="#DejaVuSans-30"/>
       <use xlink:href="#DejaVuSans-2e" x="63.623047"/>
       <use xlink:href="#DejaVuSans-30" x="95.410156"/>
       <use xlink:href="#DejaVuSans-35" x="159.033203"/>
      </g>
     </g>
    </g>
    <g id="ytick_3">
     <g id="line2d_17">
      <g>
       <use xlink:href="#m1511dcb30e" x="72.994687" y="287.375296" style="stroke: #000000"/>
      </g>
     </g>
     <g id="text_18">
      <!-- 0.10 -->
      <g transform="translate(35.749375 292.31428)scale(0.13 -0.13)">
       <use xlink:href="#DejaVuSans-30"/>
       <use xlink:href="#DejaVuSans-2e" x="63.623047"/>
       <use xlink:href="#DejaVuSans-31" x="95.410156"/>
       <use xlink:href="#DejaVuSans-30" x="159.033203"/>
      </g>
     </g>
    </g>
    <g id="ytick_4">
     <g id="line2d_18">
      <g>
       <use xlink:href="#m1511dcb30e" x="72.994687" y="225.104038" style="stroke: #000000"/>
      </g>
     </g>
     <g id="text_19">
      <!-- 0.15 -->
      <g transform="translate(35.749375 230.043022)scale(0.13 -0.13)">
       <use xlink:href="#DejaVuSans-30"/>
       <use xlink:href="#DejaVuSans-2e" x="63.623047"/>
       <use xlink:href="#DejaVuSans-31" x="95.410156"/>
       <use xlink:href="#DejaVuSans-35" x="159.033203"/>
      </g>
     </g>
    </g>
    <g id="ytick_5">
     <g id="line2d_19">
      <g>
       <use xlink:href="#m1511dcb30e" x="72.994687" y="162.832779" style="stroke: #000000"/>
      </g>
     </g>
     <g id="text_20">
      <!-- 0.20 -->
      <g transform="translate(35.749375 167.771764)scale(0.13 -0.13)">
       <use xlink:href="#DejaVuSans-30"/>
       <use xlink:href="#DejaVuSans-2e" x="63.623047"/>
       <use xlink:href="#DejaVuSans-32" x="95.410156"/>
       <use xlink:href="#DejaVuSans-30" x="159.033203"/>
      </g>
     </g>
    </g>
    <g id="ytick_6">
     <g id="line2d_20">
      <g>
       <use xlink:href="#m1511dcb30e" x="72.994687" y="100.561521" style="stroke: #000000"/>
      </g>
     </g>
     <g id="text_21">
      <!-- 0.25 -->
      <g transform="translate(35.749375 105.500505)scale(0.13 -0.13)">
       <use xlink:href="#DejaVuSans-30"/>
       <use xlink:href="#DejaVuSans-2e" x="63.623047"/>
       <use xlink:href="#DejaVuSans-32" x="95.410156"/>
       <use xlink:href="#DejaVuSans-35" x="159.033203"/>
      </g>
     </g>
    </g>
    <g id="ytick_7">
     <g id="line2d_21">
      <g>
       <use xlink:href="#m1511dcb30e" x="72.994687" y="38.290263" style="stroke: #000000"/>
      </g>
     </g>
     <g id="text_22">
      <!-- 0.30 -->
      <g transform="translate(35.749375 43.229247)scale(0.13 -0.13)">
       <use xlink:href="#DejaVuSans-30"/>
       <use xlink:href="#DejaVuSans-2e" x="63.623047"/>
       <use xlink:href="#DejaVuSans-33" x="95.410156"/>
       <use xlink:href="#DejaVuSans-30" x="159.033203"/>
      </g>
     </g>
    </g>
    <g id="text_23">
     <!-- Fraction of Alleles -->
     <g transform="translate(17.837812 279.901094)rotate(-90)scale(0.14 -0.14)">
      <defs>
       <path id="DejaVuSans-46" d="M 628 4666 
L 3309 4666 
L 3309 4134 
L 1259 4134 
L 1259 2759 
L 3109 2759 
L 3109 2228 
L 1259 2228 
L 1259 0 
L 628 0 
L 628 4666 
z
" transform="scale(0.015625)"/>
       <path id="DejaVuSans-72" d="M 2631 2963 
Q 2534 3019 2420 3045 
Q 2306 3072 2169 3072 
Q 1681 3072 1420 2755 
Q 1159 2438 1159 1844 
L 1159 0 
L 581 0 
L 581 3500 
L 1159 3500 
L 1159 2956 
Q 1341 3275 1631 3429 
Q 1922 3584 2338 3584 
Q 2397 3584 2469 3576 
Q 2541 3569 2628 3553 
L 2631 2963 
z
" transform="scale(0.015625)"/>
       <path id="DejaVuSans-61" d="M 2194 1759 
Q 1497 1759 1228 1600 
Q 959 1441 959 1056 
Q 959 750 1161 570 
Q 1363 391 1709 391 
Q 2188 391 2477 730 
Q 2766 1069 2766 1631 
L 2766 1759 
L 2194 1759 
z
M 3341 1997 
L 3341 0 
L 2766 0 
L 2766 531 
Q 2569 213 2275 61 
Q 1981 -91 1556 -91 
Q 1019 -91 701 211 
Q 384 513 384 1019 
Q 384 1609 779 1909 
Q 1175 2209 1959 2209 
L 2766 2209 
L 2766 2266 
Q 2766 2663 2505 2880 
Q 2244 3097 1772 3097 
Q 1472 3097 1187 3025 
Q 903 2953 641 2809 
L 641 3341 
Q 956 3463 1253 3523 
Q 1550 3584 1831 3584 
Q 2591 3584 2966 3190 
Q 3341 2797 3341 1997 
z
" transform="scale(0.015625)"/>
       <path id="DejaVuSans-63" d="M 3122 3366 
L 3122 2828 
Q 2878 2963 2633 3030 
Q 2388 3097 2138 3097 
Q 1578 3097 1268 2742 
Q 959 2388 959 1747 
Q 959 1106 1268 751 
Q 1578 397 2138 397 
Q 2388 397 2633 464 
Q 2878 531 3122 666 
L 3122 134 
Q 2881 22 2623 -34 
Q 2366 -91 2075 -91 
Q 1284 -91 818 406 
Q 353 903 353 1747 
Q 353 2603 823 3093 
Q 1294 3584 2113 3584 
Q 2378 3584 2631 3529 
Q 2884 3475 3122 3366 
z
" transform="scale(0.015625)"/>
       <path id="DejaVuSans-74" d="M 1172 4494 
L 1172 3500 
L 2356 3500 
L 2356 3053 
L 1172 3053 
L 1172 1153 
Q 1172 725 1289 603 
Q 1406 481 1766 481 
L 2356 481 
L 2356 0 
L 1766 0 
Q 1100 0 847 248 
Q 594 497 594 1153 
L 594 3053 
L 172 3053 
L 172 3500 
L 594 3500 
L 594 4494 
L 1172 4494 
z
" transform="scale(0.015625)"/>
       <path id="DejaVuSans-6f" d="M 1959 3097 
Q 1497 3097 1228 2736 
Q 959 2375 959 1747 
Q 959 1119 1226 758 
Q 1494 397 1959 397 
Q 2419 397 2687 759 
Q 2956 1122 2956 1747 
Q 2956 2369 2687 2733 
Q 2419 3097 1959 3097 
z
M 1959 3584 
Q 2709 3584 3137 3096 
Q 3566 2609 3566 1747 
Q 3566 888 3137 398 
Q 2709 -91 1959 -91 
Q 1206 -91 779 398 
Q 353 888 353 1747 
Q 353 2609 779 3096 
Q 1206 3584 1959 3584 
z
" transform="scale(0.015625)"/>
       <path id="DejaVuSans-6e" d="M 3513 2113 
L 3513 0 
L 2938 0 
L 2938 2094 
Q 2938 2591 2744 2837 
Q 2550 3084 2163 3084 
Q 1697 3084 1428 2787 
Q 1159 2491 1159 1978 
L 1159 0 
L 581 0 
L 581 3500 
L 1159 3500 
L 1159 2956 
Q 1366 3272 1645 3428 
Q 1925 3584 2291 3584 
Q 2894 3584 3203 3211 
Q 3513 2838 3513 2113 
z
" transform="scale(0.015625)"/>
       <path id="DejaVuSans-66" d="M 2375 4863 
L 2375 4384 
L 1825 4384 
Q 1516 4384 1395 4259 
Q 1275 4134 1275 3809 
L 1275 3500 
L 2222 3500 
L 2222 3053 
L 1275 3053 
L 1275 0 
L 697 0 
L 697 3053 
L 147 3053 
L 147 3500 
L 697 3500 
L 697 3744 
Q 697 4328 969 4595 
Q 1241 4863 1831 4863 
L 2375 4863 
z
" transform="scale(0.015625)"/>
       <path id="DejaVuSans-73" d="M 2834 3397 
L 2834 2853 
Q 2591 2978 2328 3040 
Q 2066 3103 1784 3103 
Q 1356 3103 1142 2972 
Q 928 2841 928 2578 
Q 928 2378 1081 2264 
Q 1234 2150 1697 2047 
L 1894 2003 
Q 2506 1872 2764 1633 
Q 3022 1394 3022 966 
Q 3022 478 2636 193 
Q 2250 -91 1575 -91 
Q 1294 -91 989 -36 
Q 684 19 347 128 
L 347 722 
Q 666 556 975 473 
Q 1284 391 1588 391 
Q 1994 391 2212 530 
Q 2431 669 2431 922 
Q 2431 1156 2273 1281 
Q 2116 1406 1581 1522 
L 1381 1569 
Q 847 1681 609 1914 
Q 372 2147 372 2553 
Q 372 3047 722 3315 
Q 1072 3584 1716 3584 
Q 2034 3584 2315 3537 
Q 2597 3491 2834 3397 
z
" transform="scale(0.015625)"/>
      </defs>
      <use xlink:href="#DejaVuSans-46"/>
      <use xlink:href="#DejaVuSans-72" x="50.269531"/>
      <use xlink:href="#DejaVuSans-61" x="91.382812"/>
      <use xlink:href="#DejaVuSans-63" x="152.662109"/>
      <use xlink:href="#DejaVuSans-74" x="207.642578"/>
      <use xlink:href="#DejaVuSans-69" x="246.851562"/>
      <use xlink:href="#DejaVuSans-6f" x="274.634766"/>
      <use xlink:href="#DejaVuSans-6e" x="335.816406"/>
      <use xlink:href="#DejaVuSans-20" x="399.195312"/>
      <use xlink:href="#DejaVuSans-6f" x="430.982422"/>
      <use xlink:href="#DejaVuSans-66" x="492.164062"/>
      <use xlink:href="#DejaVuSans-20" x="527.369141"/>
      <use xlink:href="#DejaVuSans-41" x="559.15625"/>
      <use xlink:href="#DejaVuSans-6c" x="627.564453"/>
      <use xlink:href="#DejaVuSans-6c" x="655.347656"/>
      <use xlink:href="#DejaVuSans-65" x="683.130859"/>
      <use xlink:href="#DejaVuSans-6c" x="744.654297"/>
      <use xlink:href="#DejaVuSans-65" x="772.4375"/>
      <use xlink:href="#DejaVuSans-73" x="833.960938"/>
     </g>
    </g>
   </g>
   <g id="patch_29">
    <path d="M 72.994687 411.917812 
L 72.994687 23.837812 
" style="fill: none; stroke: #000000; stroke-linejoin: miter; stroke-linecap: square"/>
   </g>
   <g id="patch_30">
    <path d="M 72.994687 411.917812 
L 519.394688 411.917812 
" style="fill: none; stroke: #000000; stroke-linejoin: miter; stroke-linecap: square"/>
   </g>
   <g id="text_24">
    <!-- STR Allele Size Distribution -->
    <g transform="translate(201.494531 17.837812)scale(0.14 -0.14)">
     <defs>
      <path id="DejaVuSans-54" d="M -19 4666 
L 3928 4666 
L 3928 4134 
L 2272 4134 
L 2272 0 
L 1638 0 
L 1638 4134 
L -19 4134 
L -19 4666 
z
" transform="scale(0.015625)"/>
      <path id="DejaVuSans-52" d="M 2841 2188 
Q 3044 2119 3236 1894 
Q 3428 1669 3622 1275 
L 4263 0 
L 3584 0 
L 2988 1197 
Q 2756 1666 2539 1819 
Q 2322 1972 1947 1972 
L 1259 1972 
L 1259 0 
L 628 0 
L 628 4666 
L 2053 4666 
Q 2853 4666 3247 4331 
Q 3641 3997 3641 3322 
Q 3641 2881 3436 2590 
Q 3231 2300 2841 2188 
z
M 1259 4147 
L 1259 2491 
L 2053 2491 
Q 2509 2491 2742 2702 
Q 2975 2913 2975 3322 
Q 2975 3731 2742 3939 
Q 2509 4147 2053 4147 
L 1259 4147 
z
" transform="scale(0.015625)"/>
      <path id="DejaVuSans-44" d="M 1259 4147 
L 1259 519 
L 2022 519 
Q 2988 519 3436 956 
Q 3884 1394 3884 2338 
Q 3884 3275 3436 3711 
Q 2988 4147 2022 4147 
L 1259 4147 
z
M 628 4666 
L 1925 4666 
Q 3281 4666 3915 4102 
Q 4550 3538 4550 2338 
Q 4550 1131 3912 565 
Q 3275 0 1925 0 
L 628 0 
L 628 4666 
z
" transform="scale(0.015625)"/>
      <path id="DejaVuSans-75" d="M 544 1381 
L 544 3500 
L 1119 3500 
L 1119 1403 
Q 1119 906 1312 657 
Q 1506 409 1894 409 
Q 2359 409 2629 706 
Q 2900 1003 2900 1516 
L 2900 3500 
L 3475 3500 
L 3475 0 
L 2900 0 
L 2900 538 
Q 2691 219 2414 64 
Q 2138 -91 1772 -91 
Q 1169 -91 856 284 
Q 544 659 544 1381 
z
M 1991 3584 
L 1991 3584 
z
" transform="scale(0.015625)"/>
     </defs>
     <use xlink:href="#DejaVuSans-53"/>
     <use xlink:href="#DejaVuSans-54" x="63.476562"/>
     <use xlink:href="#DejaVuSans-52" x="124.560547"/>
     <use xlink:href="#DejaVuSans-20" x="194.042969"/>
     <use xlink:href="#DejaVuSans-41" x="225.830078"/>
     <use xlink:href="#DejaVuSans-6c" x="294.238281"/>
     <use xlink:href="#DejaVuSans-6c" x="322.021484"/>
     <use xlink:href="#DejaVuSans-65" x="349.804688"/>
     <use xlink:href="#DejaVuSans-6c" x="411.328125"/>
     <use xlink:href="#DejaVuSans-65" x="439.111328"/>
     <use xlink:href="#DejaVuSans-20" x="500.634766"/>
     <use xlink:href="#DejaVuSans-53" x="532.421875"/>
     <use xlink:href="#DejaVuSans-69" x="595.898438"/>
     <use xlink:href="#DejaVuSans-7a" x="623.681641"/>
     <use xlink:href="#DejaVuSans-65" x="676.171875"/>
     <use xlink:href="#DejaVuSans-20" x="737.695312"/>
     <use xlink:href="#DejaVuSans-44" x="769.482422"/>
     <use xlink:href="#DejaVuSans-69" x="846.484375"/>
     <use xlink:href="#DejaVuSans-73" x="874.267578"/>
     <use xlink:href="#DejaVuSans-74" x="926.367188"/>
     <use xlink:href="#DejaVuSans-72" x="965.576172"/>
     <use xlink:href="#DejaVuSans-69" x="1006.689453"/>
     <use xlink:href="#DejaVuSans-62" x="1034.472656"/>
     <use xlink:href="#DejaVuSans-75" x="1097.949219"/>
     <use xlink:href="#DejaVuSans-74" x="1161.328125"/>
     <use xlink:href="#DejaVuSans-69" x="1200.537109"/>
     <use xlink:href="#DejaVuSans-6f" x="1228.320312"/>
     <use xlink:href="#DejaVuSans-6e" x="1289.501953"/>
    </g>
   </g>
  </g>
 </g>
 <defs>
  <clipPath id="p8998b2f7e8">
   <rect x="72.994687" y="23.837812" width="446.4" height="388.08"/>
  </clipPath>
 </defs>
</svg>
