<?xml version="1.0" encoding="utf-8" standalone="no"?>
<!DOCTYPE svg PUBLIC "-//W3C//DTD SVG 1.1//EN"
  "http://www.w3.org/Graphics/SVG/1.1/DTD/svg11.dtd">
<svg xmlns:xlink="http://www.w3.org/1999/xlink" width="747.345937pt" height="512.550937pt" viewBox="0 0 747.345937 512.550937" xmlns="http://www.w3.org/2000/svg" version="1.1">
 <metadata>
  <rdf:RDF xmlns:dc="http://purl.org/dc/elements/1.1/" xmlns:cc="http://creativecommons.org/ns#" xmlns:rdf="http://www.w3.org/1999/02/22-rdf-syntax-ns#">
   <cc:Work>
    <dc:type rdf:resource="http://purl.org/dc/dcmitype/StillImage"/>
    <dc:date>2023-04-20T21:05:13.795825</dc:date>
    <dc:format>image/svg+xml</dc:format>
    <dc:creator>
     <cc:Agent>
      <dc:title>Matplotlib v3.5.1, https://matplotlib.org/</dc:title>
     </cc:Agent>
    </dc:creator>
   </cc:Work>
  </rdf:RDF>
 </metadata>
 <defs>
  <style type="text/css">*{stroke-linejoin: round; stroke-linecap: butt}</style>
 </defs>
 <g id="figure_1">
  <g id="patch_1">
   <path d="M 0 512.550937 
L 747.345937 512.550937 
L 747.345937 0 
L 0 0 
z
" style="fill: #ffffff"/>
  </g>
  <g id="axes_1">
   <g id="patch_2">
    <path d="M 70.545938 450.72 
L 740.145938 450.72 
L 740.145938 7.2 
L 70.545938 7.2 
z
" style="fill: #ffffff"/>
   </g>
   <g id="matplotlib.axis_1">
    <g id="xtick_1">
     <g id="line2d_1">
      <defs>
       <path id="maf3a384914" d="M 0 0 
L 0 3.5 
" style="stroke: #000000; stroke-width: 0.8"/>
      </defs>
      <g>
       <use xlink:href="#maf3a384914" x="161.855028" y="450.72" style="stroke: #000000; stroke-width: 0.8"/>
      </g>
     </g>
     <g id="text_1">
      <!-- 10 -->
      <g transform="translate(152.947528 474.857812)scale(0.14 -0.14)">
       <defs>
        <path id="DejaVuSans-31" d="M 794 531 
L 1825 531 
L 1825 4091 
L 703 3866 
L 703 4441 
L 1819 4666 
L 2450 4666 
L 2450 531 
L 3481 531 
L 3481 0 
L 794 0 
L 794 531 
z
" transform="scale(0.015625)"/>
        <path id="DejaVuSans-30" d="M 2034 4250 
Q 1547 4250 1301 3770 
Q 1056 3291 1056 2328 
Q 1056 1369 1301 889 
Q 1547 409 2034 409 
Q 2525 409 2770 889 
Q 3016 1369 3016 2328 
Q 3016 3291 2770 3770 
Q 2525 4250 2034 4250 
z
M 2034 4750 
Q 2819 4750 3233 4129 
Q 3647 3509 3647 2328 
Q 3647 1150 3233 529 
Q 2819 -91 2034 -91 
Q 1250 -91 836 529 
Q 422 1150 422 2328 
Q 422 3509 836 4129 
Q 1250 4750 2034 4750 
z
" transform="scale(0.015625)"/>
       </defs>
       <use xlink:href="#DejaVuSans-31"/>
       <use xlink:href="#DejaVuSans-30" x="63.623047"/>
      </g>
     </g>
    </g>
    <g id="xtick_2">
     <g id="line2d_2">
      <g>
       <use xlink:href="#maf3a384914" x="283.600483" y="450.72" style="stroke: #000000; stroke-width: 0.8"/>
      </g>
     </g>
     <g id="text_2">
      <!-- 20 -->
      <g transform="translate(274.692983 474.857812)scale(0.14 -0.14)">
       <defs>
        <path id="DejaVuSans-32" d="M 1228 531 
L 3431 531 
L 3431 0 
L 469 0 
L 469 531 
Q 828 903 1448 1529 
Q 2069 2156 2228 2338 
Q 2531 2678 2651 2914 
Q 2772 3150 2772 3378 
Q 2772 3750 2511 3984 
Q 2250 4219 1831 4219 
Q 1534 4219 1204 4116 
Q 875 4013 500 3803 
L 500 4441 
Q 881 4594 1212 4672 
Q 1544 4750 1819 4750 
Q 2544 4750 2975 4387 
Q 3406 4025 3406 3419 
Q 3406 3131 3298 2873 
Q 3191 2616 2906 2266 
Q 2828 2175 2409 1742 
Q 1991 1309 1228 531 
z
" transform="scale(0.015625)"/>
       </defs>
       <use xlink:href="#DejaVuSans-32"/>
       <use xlink:href="#DejaVuSans-30" x="63.623047"/>
      </g>
     </g>
    </g>
    <g id="xtick_3">
     <g id="line2d_3">
      <g>
       <use xlink:href="#maf3a384914" x="405.345937" y="450.72" style="stroke: #000000; stroke-width: 0.8"/>
      </g>
     </g>
     <g id="text_3">
      <!-- 30 -->
      <g transform="translate(396.438437 474.857812)scale(0.14 -0.14)">
       <defs>
        <path id="DejaVuSans-33" d="M 2597 2516 
Q 3050 2419 3304 2112 
Q 3559 1806 3559 1356 
Q 3559 666 3084 287 
Q 2609 -91 1734 -91 
Q 1441 -91 1130 -33 
Q 819 25 488 141 
L 488 750 
Q 750 597 1062 519 
Q 1375 441 1716 441 
Q 2309 441 2620 675 
Q 2931 909 2931 1356 
Q 2931 1769 2642 2001 
Q 2353 2234 1838 2234 
L 1294 2234 
L 1294 2753 
L 1863 2753 
Q 2328 2753 2575 2939 
Q 2822 3125 2822 3475 
Q 2822 3834 2567 4026 
Q 2313 4219 1838 4219 
Q 1578 4219 1281 4162 
Q 984 4106 628 3988 
L 628 4550 
Q 988 4650 1302 4700 
Q 1616 4750 1894 4750 
Q 2613 4750 3031 4423 
Q 3450 4097 3450 3541 
Q 3450 3153 3228 2886 
Q 3006 2619 2597 2516 
z
" transform="scale(0.015625)"/>
       </defs>
       <use xlink:href="#DejaVuSans-33"/>
       <use xlink:href="#DejaVuSans-30" x="63.623047"/>
      </g>
     </g>
    </g>
    <g id="xtick_4">
     <g id="line2d_4">
      <g>
       <use xlink:href="#maf3a384914" x="527.091392" y="450.72" style="stroke: #000000; stroke-width: 0.8"/>
      </g>
     </g>
     <g id="text_4">
      <!-- 40 -->
      <g transform="translate(518.183892 474.857812)scale(0.14 -0.14)">
       <defs>
        <path id="DejaVuSans-34" d="M 2419 4116 
L 825 1625 
L 2419 1625 
L 2419 4116 
z
M 2253 4666 
L 3047 4666 
L 3047 1625 
L 3713 1625 
L 3713 1100 
L 3047 1100 
L 3047 0 
L 2419 0 
L 2419 1100 
L 313 1100 
L 313 1709 
L 2253 4666 
z
" transform="scale(0.015625)"/>
       </defs>
       <use xlink:href="#DejaVuSans-34"/>
       <use xlink:href="#DejaVuSans-30" x="63.623047"/>
      </g>
     </g>
    </g>
    <g id="xtick_5">
     <g id="line2d_5">
      <g>
       <use xlink:href="#maf3a384914" x="648.836847" y="450.72" style="stroke: #000000; stroke-width: 0.8"/>
      </g>
     </g>
     <g id="text_5">
      <!-- 50 -->
      <g transform="translate(639.929347 474.857812)scale(0.14 -0.14)">
       <defs>
        <path id="DejaVuSans-35" d="M 691 4666 
L 3169 4666 
L 3169 4134 
L 1269 4134 
L 1269 2991 
Q 1406 3038 1543 3061 
Q 1681 3084 1819 3084 
Q 2600 3084 3056 2656 
Q 3513 2228 3513 1497 
Q 3513 744 3044 326 
Q 2575 -91 1722 -91 
Q 1428 -91 1123 -41 
Q 819 9 494 109 
L 494 744 
Q 775 591 1075 516 
Q 1375 441 1709 441 
Q 2250 441 2565 725 
Q 2881 1009 2881 1497 
Q 2881 1984 2565 2268 
Q 2250 2553 1709 2553 
Q 1456 2553 1204 2497 
Q 953 2441 691 2322 
L 691 4666 
z
" transform="scale(0.015625)"/>
       </defs>
       <use xlink:href="#DejaVuSans-35"/>
       <use xlink:href="#DejaVuSans-30" x="63.623047"/>
      </g>
     </g>
    </g>
    <g id="text_6">
     <!-- Total Allele Size (bp) -->
     <g transform="translate(339.437969 502.647344)scale(0.13 -0.13)">
      <defs>
       <path id="DejaVuSans-54" d="M -19 4666 
L 3928 4666 
L 3928 4134 
L 2272 4134 
L 2272 0 
L 1638 0 
L 1638 4134 
L -19 4134 
L -19 4666 
z
" transform="scale(0.015625)"/>
       <path id="DejaVuSans-6f" d="M 1959 3097 
Q 1497 3097 1228 2736 
Q 959 2375 959 1747 
Q 959 1119 1226 758 
Q 1494 397 1959 397 
Q 2419 397 2687 759 
Q 2956 1122 2956 1747 
Q 2956 2369 2687 2733 
Q 2419 3097 1959 3097 
z
M 1959 3584 
Q 2709 3584 3137 3096 
Q 3566 2609 3566 1747 
Q 3566 888 3137 398 
Q 2709 -91 1959 -91 
Q 1206 -91 779 398 
Q 353 888 353 1747 
Q 353 2609 779 3096 
Q 1206 3584 1959 3584 
z
" transform="scale(0.015625)"/>
       <path id="DejaVuSans-74" d="M 1172 4494 
L 1172 3500 
L 2356 3500 
L 2356 3053 
L 1172 3053 
L 1172 1153 
Q 1172 725 1289 603 
Q 1406 481 1766 481 
L 2356 481 
L 2356 0 
L 1766 0 
Q 1100 0 847 248 
Q 594 497 594 1153 
L 594 3053 
L 172 3053 
L 172 3500 
L 594 3500 
L 594 4494 
L 1172 4494 
z
" transform="scale(0.015625)"/>
       <path id="DejaVuSans-61" d="M 2194 1759 
Q 1497 1759 1228 1600 
Q 959 1441 959 1056 
Q 959 750 1161 570 
Q 1363 391 1709 391 
Q 2188 391 2477 730 
Q 2766 1069 2766 1631 
L 2766 1759 
L 2194 1759 
z
M 3341 1997 
L 3341 0 
L 2766 0 
L 2766 531 
Q 2569 213 2275 61 
Q 1981 -91 1556 -91 
Q 1019 -91 701 211 
Q 384 513 384 1019 
Q 384 1609 779 1909 
Q 1175 2209 1959 2209 
L 2766 2209 
L 2766 2266 
Q 2766 2663 2505 2880 
Q 2244 3097 1772 3097 
Q 1472 3097 1187 3025 
Q 903 2953 641 2809 
L 641 3341 
Q 956 3463 1253 3523 
Q 1550 3584 1831 3584 
Q 2591 3584 2966 3190 
Q 3341 2797 3341 1997 
z
" transform="scale(0.015625)"/>
       <path id="DejaVuSans-6c" d="M 603 4863 
L 1178 4863 
L 1178 0 
L 603 0 
L 603 4863 
z
" transform="scale(0.015625)"/>
       <path id="DejaVuSans-20" transform="scale(0.015625)"/>
       <path id="DejaVuSans-41" d="M 2188 4044 
L 1331 1722 
L 3047 1722 
L 2188 4044 
z
M 1831 4666 
L 2547 4666 
L 4325 0 
L 3669 0 
L 3244 1197 
L 1141 1197 
L 716 0 
L 50 0 
L 1831 4666 
z
" transform="scale(0.015625)"/>
       <path id="DejaVuSans-65" d="M 3597 1894 
L 3597 1613 
L 953 1613 
Q 991 1019 1311 708 
Q 1631 397 2203 397 
Q 2534 397 2845 478 
Q 3156 559 3463 722 
L 3463 178 
Q 3153 47 2828 -22 
Q 2503 -91 2169 -91 
Q 1331 -91 842 396 
Q 353 884 353 1716 
Q 353 2575 817 3079 
Q 1281 3584 2069 3584 
Q 2775 3584 3186 3129 
Q 3597 2675 3597 1894 
z
M 3022 2063 
Q 3016 2534 2758 2815 
Q 2500 3097 2075 3097 
Q 1594 3097 1305 2825 
Q 1016 2553 972 2059 
L 3022 2063 
z
" transform="scale(0.015625)"/>
       <path id="DejaVuSans-53" d="M 3425 4513 
L 3425 3897 
Q 3066 4069 2747 4153 
Q 2428 4238 2131 4238 
Q 1616 4238 1336 4038 
Q 1056 3838 1056 3469 
Q 1056 3159 1242 3001 
Q 1428 2844 1947 2747 
L 2328 2669 
Q 3034 2534 3370 2195 
Q 3706 1856 3706 1288 
Q 3706 609 3251 259 
Q 2797 -91 1919 -91 
Q 1588 -91 1214 -16 
Q 841 59 441 206 
L 441 856 
Q 825 641 1194 531 
Q 1563 422 1919 422 
Q 2459 422 2753 634 
Q 3047 847 3047 1241 
Q 3047 1584 2836 1778 
Q 2625 1972 2144 2069 
L 1759 2144 
Q 1053 2284 737 2584 
Q 422 2884 422 3419 
Q 422 4038 858 4394 
Q 1294 4750 2059 4750 
Q 2388 4750 2728 4690 
Q 3069 4631 3425 4513 
z
" transform="scale(0.015625)"/>
       <path id="DejaVuSans-69" d="M 603 3500 
L 1178 3500 
L 1178 0 
L 603 0 
L 603 3500 
z
M 603 4863 
L 1178 4863 
L 1178 4134 
L 603 4134 
L 603 4863 
z
" transform="scale(0.015625)"/>
       <path id="DejaVuSans-7a" d="M 353 3500 
L 3084 3500 
L 3084 2975 
L 922 459 
L 3084 459 
L 3084 0 
L 275 0 
L 275 525 
L 2438 3041 
L 353 3041 
L 353 3500 
z
" transform="scale(0.015625)"/>
       <path id="DejaVuSans-28" d="M 1984 4856 
Q 1566 4138 1362 3434 
Q 1159 2731 1159 2009 
Q 1159 1288 1364 580 
Q 1569 -128 1984 -844 
L 1484 -844 
Q 1016 -109 783 600 
Q 550 1309 550 2009 
Q 550 2706 781 3412 
Q 1013 4119 1484 4856 
L 1984 4856 
z
" transform="scale(0.015625)"/>
       <path id="DejaVuSans-62" d="M 3116 1747 
Q 3116 2381 2855 2742 
Q 2594 3103 2138 3103 
Q 1681 3103 1420 2742 
Q 1159 2381 1159 1747 
Q 1159 1113 1420 752 
Q 1681 391 2138 391 
Q 2594 391 2855 752 
Q 3116 1113 3116 1747 
z
M 1159 2969 
Q 1341 3281 1617 3432 
Q 1894 3584 2278 3584 
Q 2916 3584 3314 3078 
Q 3713 2572 3713 1747 
Q 3713 922 3314 415 
Q 2916 -91 2278 -91 
Q 1894 -91 1617 61 
Q 1341 213 1159 525 
L 1159 0 
L 581 0 
L 581 4863 
L 1159 4863 
L 1159 2969 
z
" transform="scale(0.015625)"/>
       <path id="DejaVuSans-70" d="M 1159 525 
L 1159 -1331 
L 581 -1331 
L 581 3500 
L 1159 3500 
L 1159 2969 
Q 1341 3281 1617 3432 
Q 1894 3584 2278 3584 
Q 2916 3584 3314 3078 
Q 3713 2572 3713 1747 
Q 3713 922 3314 415 
Q 2916 -91 2278 -91 
Q 1894 -91 1617 61 
Q 1341 213 1159 525 
z
M 3116 1747 
Q 3116 2381 2855 2742 
Q 2594 3103 2138 3103 
Q 1681 3103 1420 2742 
Q 1159 2381 1159 1747 
Q 1159 1113 1420 752 
Q 1681 391 2138 391 
Q 2594 391 2855 752 
Q 3116 1113 3116 1747 
z
" transform="scale(0.015625)"/>
       <path id="DejaVuSans-29" d="M 513 4856 
L 1013 4856 
Q 1481 4119 1714 3412 
Q 1947 2706 1947 2009 
Q 1947 1309 1714 600 
Q 1481 -109 1013 -844 
L 513 -844 
Q 928 -128 1133 580 
Q 1338 1288 1338 2009 
Q 1338 2731 1133 3434 
Q 928 4138 513 4856 
z
" transform="scale(0.015625)"/>
      </defs>
      <use xlink:href="#DejaVuSans-54"/>
      <use xlink:href="#DejaVuSans-6f" x="44.083984"/>
      <use xlink:href="#DejaVuSans-74" x="105.265625"/>
      <use xlink:href="#DejaVuSans-61" x="144.474609"/>
      <use xlink:href="#DejaVuSans-6c" x="205.753906"/>
      <use xlink:href="#DejaVuSans-20" x="233.537109"/>
      <use xlink:href="#DejaVuSans-41" x="265.324219"/>
      <use xlink:href="#DejaVuSans-6c" x="333.732422"/>
      <use xlink:href="#DejaVuSans-6c" x="361.515625"/>
      <use xlink:href="#DejaVuSans-65" x="389.298828"/>
      <use xlink:href="#DejaVuSans-6c" x="450.822266"/>
      <use xlink:href="#DejaVuSans-65" x="478.605469"/>
      <use xlink:href="#DejaVuSans-20" x="540.128906"/>
      <use xlink:href="#DejaVuSans-53" x="571.916016"/>
      <use xlink:href="#DejaVuSans-69" x="635.392578"/>
      <use xlink:href="#DejaVuSans-7a" x="663.175781"/>
      <use xlink:href="#DejaVuSans-65" x="715.666016"/>
      <use xlink:href="#DejaVuSans-20" x="777.189453"/>
      <use xlink:href="#DejaVuSans-28" x="808.976562"/>
      <use xlink:href="#DejaVuSans-62" x="847.990234"/>
      <use xlink:href="#DejaVuSans-70" x="911.466797"/>
      <use xlink:href="#DejaVuSans-29" x="974.943359"/>
     </g>
    </g>
   </g>
   <g id="matplotlib.axis_2">
    <g id="ytick_1">
     <g id="line2d_6">
      <defs>
       <path id="m3a45990fd6" d="M 0 0 
L -3.5 0 
" style="stroke: #000000; stroke-width: 0.8"/>
      </defs>
      <g>
       <use xlink:href="#m3a45990fd6" x="70.545938" y="430.56" style="stroke: #000000; stroke-width: 0.8"/>
      </g>
     </g>
     <g id="text_7">
      <!-- 0.0 -->
      <g transform="translate(34.781563 435.878906)scale(0.14 -0.14)">
       <defs>
        <path id="DejaVuSans-2e" d="M 684 794 
L 1344 794 
L 1344 0 
L 684 0 
L 684 794 
z
" transform="scale(0.015625)"/>
       </defs>
       <use xlink:href="#DejaVuSans-30"/>
       <use xlink:href="#DejaVuSans-2e" x="63.623047"/>
       <use xlink:href="#DejaVuSans-30" x="95.410156"/>
      </g>
     </g>
    </g>
    <g id="ytick_2">
     <g id="line2d_7">
      <g>
       <use xlink:href="#m3a45990fd6" x="70.545938" y="372.73522" style="stroke: #000000; stroke-width: 0.8"/>
      </g>
     </g>
     <g id="text_8">
      <!-- 0.1 -->
      <g transform="translate(34.781563 378.054126)scale(0.14 -0.14)">
       <use xlink:href="#DejaVuSans-30"/>
       <use xlink:href="#DejaVuSans-2e" x="63.623047"/>
       <use xlink:href="#DejaVuSans-31" x="95.410156"/>
      </g>
     </g>
    </g>
    <g id="ytick_3">
     <g id="line2d_8">
      <g>
       <use xlink:href="#m3a45990fd6" x="70.545938" y="314.910439" style="stroke: #000000; stroke-width: 0.8"/>
      </g>
     </g>
     <g id="text_9">
      <!-- 0.2 -->
      <g transform="translate(34.781563 320.229345)scale(0.14 -0.14)">
       <use xlink:href="#DejaVuSans-30"/>
       <use xlink:href="#DejaVuSans-2e" x="63.623047"/>
       <use xlink:href="#DejaVuSans-32" x="95.410156"/>
      </g>
     </g>
    </g>
    <g id="ytick_4">
     <g id="line2d_9">
      <g>
       <use xlink:href="#m3a45990fd6" x="70.545938" y="257.085659" style="stroke: #000000; stroke-width: 0.8"/>
      </g>
     </g>
     <g id="text_10">
      <!-- 0.3 -->
      <g transform="translate(34.781563 262.404565)scale(0.14 -0.14)">
       <use xlink:href="#DejaVuSans-30"/>
       <use xlink:href="#DejaVuSans-2e" x="63.623047"/>
       <use xlink:href="#DejaVuSans-33" x="95.410156"/>
      </g>
     </g>
    </g>
    <g id="ytick_5">
     <g id="line2d_10">
      <g>
       <use xlink:href="#m3a45990fd6" x="70.545938" y="199.260878" style="stroke: #000000; stroke-width: 0.8"/>
      </g>
     </g>
     <g id="text_11">
      <!-- 0.4 -->
      <g transform="translate(34.781563 204.579784)scale(0.14 -0.14)">
       <use xlink:href="#DejaVuSans-30"/>
       <use xlink:href="#DejaVuSans-2e" x="63.623047"/>
       <use xlink:href="#DejaVuSans-34" x="95.410156"/>
      </g>
     </g>
    </g>
    <g id="ytick_6">
     <g id="line2d_11">
      <g>
       <use xlink:href="#m3a45990fd6" x="70.545938" y="141.436098" style="stroke: #000000; stroke-width: 0.8"/>
      </g>
     </g>
     <g id="text_12">
      <!-- 0.5 -->
      <g transform="translate(34.781563 146.755004)scale(0.14 -0.14)">
       <use xlink:href="#DejaVuSans-30"/>
       <use xlink:href="#DejaVuSans-2e" x="63.623047"/>
       <use xlink:href="#DejaVuSans-35" x="95.410156"/>
      </g>
     </g>
    </g>
    <g id="ytick_7">
     <g id="line2d_12">
      <g>
       <use xlink:href="#m3a45990fd6" x="70.545938" y="83.611317" style="stroke: #000000; stroke-width: 0.8"/>
      </g>
     </g>
     <g id="text_13">
      <!-- 0.6 -->
      <g transform="translate(34.781563 88.930223)scale(0.14 -0.14)">
       <defs>
        <path id="DejaVuSans-36" d="M 2113 2584 
Q 1688 2584 1439 2293 
Q 1191 2003 1191 1497 
Q 1191 994 1439 701 
Q 1688 409 2113 409 
Q 2538 409 2786 701 
Q 3034 994 3034 1497 
Q 3034 2003 2786 2293 
Q 2538 2584 2113 2584 
z
M 3366 4563 
L 3366 3988 
Q 3128 4100 2886 4159 
Q 2644 4219 2406 4219 
Q 1781 4219 1451 3797 
Q 1122 3375 1075 2522 
Q 1259 2794 1537 2939 
Q 1816 3084 2150 3084 
Q 2853 3084 3261 2657 
Q 3669 2231 3669 1497 
Q 3669 778 3244 343 
Q 2819 -91 2113 -91 
Q 1303 -91 875 529 
Q 447 1150 447 2328 
Q 447 3434 972 4092 
Q 1497 4750 2381 4750 
Q 2619 4750 2861 4703 
Q 3103 4656 3366 4563 
z
" transform="scale(0.015625)"/>
       </defs>
       <use xlink:href="#DejaVuSans-30"/>
       <use xlink:href="#DejaVuSans-2e" x="63.623047"/>
       <use xlink:href="#DejaVuSans-36" x="95.410156"/>
      </g>
     </g>
    </g>
    <g id="ytick_8">
     <g id="line2d_13">
      <g>
       <use xlink:href="#m3a45990fd6" x="70.545938" y="25.786537" style="stroke: #000000; stroke-width: 0.8"/>
      </g>
     </g>
     <g id="text_14">
      <!-- 0.7 -->
      <g transform="translate(34.781563 31.105443)scale(0.14 -0.14)">
       <defs>
        <path id="DejaVuSans-37" d="M 525 4666 
L 3525 4666 
L 3525 4397 
L 1831 0 
L 1172 0 
L 2766 4134 
L 525 4134 
L 525 4666 
z
" transform="scale(0.015625)"/>
       </defs>
       <use xlink:href="#DejaVuSans-30"/>
       <use xlink:href="#DejaVuSans-2e" x="63.623047"/>
       <use xlink:href="#DejaVuSans-37" x="95.410156"/>
      </g>
     </g>
    </g>
    <g id="text_15">
     <!-- Fraction Multi-allelic Variants -->
     <g transform="translate(17.077969 322.491953)rotate(-90)scale(0.13 -0.13)">
      <defs>
       <path id="DejaVuSans-46" d="M 628 4666 
L 3309 4666 
L 3309 4134 
L 1259 4134 
L 1259 2759 
L 3109 2759 
L 3109 2228 
L 1259 2228 
L 1259 0 
L 628 0 
L 628 4666 
z
" transform="scale(0.015625)"/>
       <path id="DejaVuSans-72" d="M 2631 2963 
Q 2534 3019 2420 3045 
Q 2306 3072 2169 3072 
Q 1681 3072 1420 2755 
Q 1159 2438 1159 1844 
L 1159 0 
L 581 0 
L 581 3500 
L 1159 3500 
L 1159 2956 
Q 1341 3275 1631 3429 
Q 1922 3584 2338 3584 
Q 2397 3584 2469 3576 
Q 2541 3569 2628 3553 
L 2631 2963 
z
" transform="scale(0.015625)"/>
       <path id="DejaVuSans-63" d="M 3122 3366 
L 3122 2828 
Q 2878 2963 2633 3030 
Q 2388 3097 2138 3097 
Q 1578 3097 1268 2742 
Q 959 2388 959 1747 
Q 959 1106 1268 751 
Q 1578 397 2138 397 
Q 2388 397 2633 464 
Q 2878 531 3122 666 
L 3122 134 
Q 2881 22 2623 -34 
Q 2366 -91 2075 -91 
Q 1284 -91 818 406 
Q 353 903 353 1747 
Q 353 2603 823 3093 
Q 1294 3584 2113 3584 
Q 2378 3584 2631 3529 
Q 2884 3475 3122 3366 
z
" transform="scale(0.015625)"/>
       <path id="DejaVuSans-6e" d="M 3513 2113 
L 3513 0 
L 2938 0 
L 2938 2094 
Q 2938 2591 2744 2837 
Q 2550 3084 2163 3084 
Q 1697 3084 1428 2787 
Q 1159 2491 1159 1978 
L 1159 0 
L 581 0 
L 581 3500 
L 1159 3500 
L 1159 2956 
Q 1366 3272 1645 3428 
Q 1925 3584 2291 3584 
Q 2894 3584 3203 3211 
Q 3513 2838 3513 2113 
z
" transform="scale(0.015625)"/>
       <path id="DejaVuSans-4d" d="M 628 4666 
L 1569 4666 
L 2759 1491 
L 3956 4666 
L 4897 4666 
L 4897 0 
L 4281 0 
L 4281 4097 
L 3078 897 
L 2444 897 
L 1241 4097 
L 1241 0 
L 628 0 
L 628 4666 
z
" transform="scale(0.015625)"/>
       <path id="DejaVuSans-75" d="M 544 1381 
L 544 3500 
L 1119 3500 
L 1119 1403 
Q 1119 906 1312 657 
Q 1506 409 1894 409 
Q 2359 409 2629 706 
Q 2900 1003 2900 1516 
L 2900 3500 
L 3475 3500 
L 3475 0 
L 2900 0 
L 2900 538 
Q 2691 219 2414 64 
Q 2138 -91 1772 -91 
Q 1169 -91 856 284 
Q 544 659 544 1381 
z
M 1991 3584 
L 1991 3584 
z
" transform="scale(0.015625)"/>
       <path id="DejaVuSans-2d" d="M 313 2009 
L 1997 2009 
L 1997 1497 
L 313 1497 
L 313 2009 
z
" transform="scale(0.015625)"/>
       <path id="DejaVuSans-56" d="M 1831 0 
L 50 4666 
L 709 4666 
L 2188 738 
L 3669 4666 
L 4325 4666 
L 2547 0 
L 1831 0 
z
" transform="scale(0.015625)"/>
       <path id="DejaVuSans-73" d="M 2834 3397 
L 2834 2853 
Q 2591 2978 2328 3040 
Q 2066 3103 1784 3103 
Q 1356 3103 1142 2972 
Q 928 2841 928 2578 
Q 928 2378 1081 2264 
Q 1234 2150 1697 2047 
L 1894 2003 
Q 2506 1872 2764 1633 
Q 3022 1394 3022 966 
Q 3022 478 2636 193 
Q 2250 -91 1575 -91 
Q 1294 -91 989 -36 
Q 684 19 347 128 
L 347 722 
Q 666 556 975 473 
Q 1284 391 1588 391 
Q 1994 391 2212 530 
Q 2431 669 2431 922 
Q 2431 1156 2273 1281 
Q 2116 1406 1581 1522 
L 1381 1569 
Q 847 1681 609 1914 
Q 372 2147 372 2553 
Q 372 3047 722 3315 
Q 1072 3584 1716 3584 
Q 2034 3584 2315 3537 
Q 2597 3491 2834 3397 
z
" transform="scale(0.015625)"/>
      </defs>
      <use xlink:href="#DejaVuSans-46"/>
      <use xlink:href="#DejaVuSans-72" x="50.269531"/>
      <use xlink:href="#DejaVuSans-61" x="91.382812"/>
      <use xlink:href="#DejaVuSans-63" x="152.662109"/>
      <use xlink:href="#DejaVuSans-74" x="207.642578"/>
      <use xlink:href="#DejaVuSans-69" x="246.851562"/>
      <use xlink:href="#DejaVuSans-6f" x="274.634766"/>
      <use xlink:href="#DejaVuSans-6e" x="335.816406"/>
      <use xlink:href="#DejaVuSans-20" x="399.195312"/>
      <use xlink:href="#DejaVuSans-4d" x="430.982422"/>
      <use xlink:href="#DejaVuSans-75" x="517.261719"/>
      <use xlink:href="#DejaVuSans-6c" x="580.640625"/>
      <use xlink:href="#DejaVuSans-74" x="608.423828"/>
      <use xlink:href="#DejaVuSans-69" x="647.632812"/>
      <use xlink:href="#DejaVuSans-2d" x="675.416016"/>
      <use xlink:href="#DejaVuSans-61" x="711.5"/>
      <use xlink:href="#DejaVuSans-6c" x="772.779297"/>
      <use xlink:href="#DejaVuSans-6c" x="800.5625"/>
      <use xlink:href="#DejaVuSans-65" x="828.345703"/>
      <use xlink:href="#DejaVuSans-6c" x="889.869141"/>
      <use xlink:href="#DejaVuSans-69" x="917.652344"/>
      <use xlink:href="#DejaVuSans-63" x="945.435547"/>
      <use xlink:href="#DejaVuSans-20" x="1000.416016"/>
      <use xlink:href="#DejaVuSans-56" x="1032.203125"/>
      <use xlink:href="#DejaVuSans-61" x="1092.861328"/>
      <use xlink:href="#DejaVuSans-72" x="1154.140625"/>
      <use xlink:href="#DejaVuSans-69" x="1195.253906"/>
      <use xlink:href="#DejaVuSans-61" x="1223.037109"/>
      <use xlink:href="#DejaVuSans-6e" x="1284.316406"/>
      <use xlink:href="#DejaVuSans-74" x="1347.695312"/>
      <use xlink:href="#DejaVuSans-73" x="1386.904297"/>
     </g>
    </g>
   </g>
   <g id="line2d_14">
    <path d="M 100.982301 429.090501 
L 222.727756 406.902505 
L 344.47321 300.605599 
L 466.218665 158.61417 
L 587.964119 95.37102 
L 709.709574 27.36 
" clip-path="url(#p9617622453)" style="fill: none; stroke: #fdd9b4; stroke-width: 1.5; stroke-linecap: square"/>
    <defs>
     <path id="m0220a4b67a" d="M 0 3 
C 0.795609 3 1.55874 2.683901 2.12132 2.12132 
C 2.683901 1.55874 3 0.795609 3 0 
C 3 -0.795609 2.683901 -1.55874 2.12132 -2.12132 
C 1.55874 -2.683901 0.795609 -3 0 -3 
C -0.795609 -3 -1.55874 -2.683901 -2.12132 -2.12132 
C -2.683901 -1.55874 -3 -0.795609 -3 0 
C -3 0.795609 -2.683901 1.55874 -2.12132 2.12132 
C -1.55874 2.683901 -0.795609 3 0 3 
z
" style="stroke: #ffffff; stroke-width: 0.75"/>
    </defs>
    <g clip-path="url(#p9617622453)">
     <use xlink:href="#m0220a4b67a" x="100.982301" y="429.090501" style="fill: #fdd9b4; stroke: #ffffff; stroke-width: 0.75"/>
     <use xlink:href="#m0220a4b67a" x="222.727756" y="406.902505" style="fill: #fdd9b4; stroke: #ffffff; stroke-width: 0.75"/>
     <use xlink:href="#m0220a4b67a" x="344.47321" y="300.605599" style="fill: #fdd9b4; stroke: #ffffff; stroke-width: 0.75"/>
     <use xlink:href="#m0220a4b67a" x="466.218665" y="158.61417" style="fill: #fdd9b4; stroke: #ffffff; stroke-width: 0.75"/>
     <use xlink:href="#m0220a4b67a" x="587.964119" y="95.37102" style="fill: #fdd9b4; stroke: #ffffff; stroke-width: 0.75"/>
     <use xlink:href="#m0220a4b67a" x="709.709574" y="27.36" style="fill: #fdd9b4; stroke: #ffffff; stroke-width: 0.75"/>
    </g>
   </g>
   <g id="line2d_15">
    <path d="M 100.982301 424.682005 
L 222.727756 400.037639 
L 344.47321 317.291649 
L 466.218665 206.253528 
L 587.964119 155.915203 
L 709.709574 93.478695 
" clip-path="url(#p9617622453)" style="fill: none; stroke: #fda762; stroke-width: 1.5; stroke-linecap: square"/>
    <defs>
     <path id="m000ca373ca" d="M 0 3 
C 0.795609 3 1.55874 2.683901 2.12132 2.12132 
C 2.683901 1.55874 3 0.795609 3 0 
C 3 -0.795609 2.683901 -1.55874 2.12132 -2.12132 
C 1.55874 -2.683901 0.795609 -3 0 -3 
C -0.795609 -3 -1.55874 -2.683901 -2.12132 -2.12132 
C -2.683901 -1.55874 -3 -0.795609 -3 0 
C -3 0.795609 -2.683901 1.55874 -2.12132 2.12132 
C -1.55874 2.683901 -0.795609 3 0 3 
z
" style="stroke: #ffffff; stroke-width: 0.75"/>
    </defs>
    <g clip-path="url(#p9617622453)">
     <use xlink:href="#m000ca373ca" x="100.982301" y="424.682005" style="fill: #fda762; stroke: #ffffff; stroke-width: 0.75"/>
     <use xlink:href="#m000ca373ca" x="222.727756" y="400.037639" style="fill: #fda762; stroke: #ffffff; stroke-width: 0.75"/>
     <use xlink:href="#m000ca373ca" x="344.47321" y="317.291649" style="fill: #fda762; stroke: #ffffff; stroke-width: 0.75"/>
     <use xlink:href="#m000ca373ca" x="466.218665" y="206.253528" style="fill: #fda762; stroke: #ffffff; stroke-width: 0.75"/>
     <use xlink:href="#m000ca373ca" x="587.964119" y="155.915203" style="fill: #fda762; stroke: #ffffff; stroke-width: 0.75"/>
     <use xlink:href="#m000ca373ca" x="709.709574" y="93.478695" style="fill: #fda762; stroke: #ffffff; stroke-width: 0.75"/>
    </g>
   </g>
   <g id="line2d_16">
    <path d="M 100.982301 422.056356 
L 222.727756 405.184764 
L 344.47321 334.696637 
L 466.218665 220.708895 
L 587.964119 137.021992 
L 709.709574 88.772998 
" clip-path="url(#p9617622453)" style="fill: none; stroke: #f3701b; stroke-width: 1.5; stroke-linecap: square"/>
    <defs>
     <path id="ma9e239987c" d="M 0 3 
C 0.795609 3 1.55874 2.683901 2.12132 2.12132 
C 2.683901 1.55874 3 0.795609 3 0 
C 3 -0.795609 2.683901 -1.55874 2.12132 -2.12132 
C 1.55874 -2.683901 0.795609 -3 0 -3 
C -0.795609 -3 -1.55874 -2.683901 -2.12132 -2.12132 
C -2.683901 -1.55874 -3 -0.795609 -3 0 
C -3 0.795609 -2.683901 1.55874 -2.12132 2.12132 
C -1.55874 2.683901 -0.795609 3 0 3 
z
" style="stroke: #ffffff; stroke-width: 0.75"/>
    </defs>
    <g clip-path="url(#p9617622453)">
     <use xlink:href="#ma9e239987c" x="100.982301" y="422.056356" style="fill: #f3701b; stroke: #ffffff; stroke-width: 0.75"/>
     <use xlink:href="#ma9e239987c" x="222.727756" y="405.184764" style="fill: #f3701b; stroke: #ffffff; stroke-width: 0.75"/>
     <use xlink:href="#ma9e239987c" x="344.47321" y="334.696637" style="fill: #f3701b; stroke: #ffffff; stroke-width: 0.75"/>
     <use xlink:href="#ma9e239987c" x="466.218665" y="220.708895" style="fill: #f3701b; stroke: #ffffff; stroke-width: 0.75"/>
     <use xlink:href="#ma9e239987c" x="587.964119" y="137.021992" style="fill: #f3701b; stroke: #ffffff; stroke-width: 0.75"/>
     <use xlink:href="#ma9e239987c" x="709.709574" y="88.772998" style="fill: #f3701b; stroke: #ffffff; stroke-width: 0.75"/>
    </g>
   </g>
   <g id="line2d_17">
    <path d="M 100.982301 401.64761 
L 222.727756 415.791392 
L 344.47321 382.709657 
L 466.218665 277.57067 
L 587.964119 217.659672 
L 709.709574 107.421521 
" clip-path="url(#p9617622453)" style="fill: none; stroke: #c54102; stroke-width: 1.5; stroke-linecap: square"/>
    <defs>
     <path id="mc7bb3bca83" d="M 0 3 
C 0.795609 3 1.55874 2.683901 2.12132 2.12132 
C 2.683901 1.55874 3 0.795609 3 0 
C 3 -0.795609 2.683901 -1.55874 2.12132 -2.12132 
C 1.55874 -2.683901 0.795609 -3 0 -3 
C -0.795609 -3 -1.55874 -2.683901 -2.12132 -2.12132 
C -2.683901 -1.55874 -3 -0.795609 -3 0 
C -3 0.795609 -2.683901 1.55874 -2.12132 2.12132 
C -1.55874 2.683901 -0.795609 3 0 3 
z
" style="stroke: #ffffff; stroke-width: 0.75"/>
    </defs>
    <g clip-path="url(#p9617622453)">
     <use xlink:href="#mc7bb3bca83" x="100.982301" y="401.64761" style="fill: #c54102; stroke: #ffffff; stroke-width: 0.75"/>
     <use xlink:href="#mc7bb3bca83" x="222.727756" y="415.791392" style="fill: #c54102; stroke: #ffffff; stroke-width: 0.75"/>
     <use xlink:href="#mc7bb3bca83" x="344.47321" y="382.709657" style="fill: #c54102; stroke: #ffffff; stroke-width: 0.75"/>
     <use xlink:href="#mc7bb3bca83" x="466.218665" y="277.57067" style="fill: #c54102; stroke: #ffffff; stroke-width: 0.75"/>
     <use xlink:href="#mc7bb3bca83" x="587.964119" y="217.659672" style="fill: #c54102; stroke: #ffffff; stroke-width: 0.75"/>
     <use xlink:href="#mc7bb3bca83" x="709.709574" y="107.421521" style="fill: #c54102; stroke: #ffffff; stroke-width: 0.75"/>
    </g>
   </g>
   <g id="line2d_18">
    <path d="M 100.982301 427.012467 
L 222.727756 430.56 
L 344.47321 400.125905 
L 466.218665 386.0794 
L 587.964119 314.910439 
" clip-path="url(#p9617622453)" style="fill: none; stroke: #d0e1f2; stroke-width: 1.5; stroke-linecap: square"/>
    <defs>
     <path id="mb6297a852c" d="M 0 3 
C 0.795609 3 1.55874 2.683901 2.12132 2.12132 
C 2.683901 1.55874 3 0.795609 3 0 
C 3 -0.795609 2.683901 -1.55874 2.12132 -2.12132 
C 1.55874 -2.683901 0.795609 -3 0 -3 
C -0.795609 -3 -1.55874 -2.683901 -2.12132 -2.12132 
C -2.683901 -1.55874 -3 -0.795609 -3 0 
C -3 0.795609 -2.683901 1.55874 -2.12132 2.12132 
C -1.55874 2.683901 -0.795609 3 0 3 
z
" style="stroke: #ffffff; stroke-width: 0.75"/>
    </defs>
    <g clip-path="url(#p9617622453)">
     <use xlink:href="#mb6297a852c" x="100.982301" y="427.012467" style="fill: #d0e1f2; stroke: #ffffff; stroke-width: 0.75"/>
     <use xlink:href="#mb6297a852c" x="222.727756" y="430.56" style="fill: #d0e1f2; stroke: #ffffff; stroke-width: 0.75"/>
     <use xlink:href="#mb6297a852c" x="344.47321" y="400.125905" style="fill: #d0e1f2; stroke: #ffffff; stroke-width: 0.75"/>
     <use xlink:href="#mb6297a852c" x="466.218665" y="386.0794" style="fill: #d0e1f2; stroke: #ffffff; stroke-width: 0.75"/>
     <use xlink:href="#mb6297a852c" x="587.964119" y="314.910439" style="fill: #d0e1f2; stroke: #ffffff; stroke-width: 0.75"/>
    </g>
   </g>
   <g id="line2d_19">
    <path d="M 100.982301 430.56 
L 222.727756 426.509227 
L 344.47321 410.132768 
L 466.218665 382.463774 
L 587.964119 350.152761 
L 709.709574 341.598799 
" clip-path="url(#p9617622453)" style="fill: none; stroke: #94c4df; stroke-width: 1.5; stroke-linecap: square"/>
    <defs>
     <path id="mecba4c9804" d="M 0 3 
C 0.795609 3 1.55874 2.683901 2.12132 2.12132 
C 2.683901 1.55874 3 0.795609 3 0 
C 3 -0.795609 2.683901 -1.55874 2.12132 -2.12132 
C 1.55874 -2.683901 0.795609 -3 0 -3 
C -0.795609 -3 -1.55874 -2.683901 -2.12132 -2.12132 
C -2.683901 -1.55874 -3 -0.795609 -3 0 
C -3 0.795609 -2.683901 1.55874 -2.12132 2.12132 
C -1.55874 2.683901 -0.795609 3 0 3 
z
" style="stroke: #ffffff; stroke-width: 0.75"/>
    </defs>
    <g clip-path="url(#p9617622453)">
     <use xlink:href="#mecba4c9804" x="100.982301" y="430.56" style="fill: #94c4df; stroke: #ffffff; stroke-width: 0.75"/>
     <use xlink:href="#mecba4c9804" x="222.727756" y="426.509227" style="fill: #94c4df; stroke: #ffffff; stroke-width: 0.75"/>
     <use xlink:href="#mecba4c9804" x="344.47321" y="410.132768" style="fill: #94c4df; stroke: #ffffff; stroke-width: 0.75"/>
     <use xlink:href="#mecba4c9804" x="466.218665" y="382.463774" style="fill: #94c4df; stroke: #ffffff; stroke-width: 0.75"/>
     <use xlink:href="#mecba4c9804" x="587.964119" y="350.152761" style="fill: #94c4df; stroke: #ffffff; stroke-width: 0.75"/>
     <use xlink:href="#mecba4c9804" x="709.709574" y="341.598799" style="fill: #94c4df; stroke: #ffffff; stroke-width: 0.75"/>
    </g>
   </g>
   <g id="line2d_20">
    <path d="M 222.727756 430.56 
L 344.47321 430.56 
L 466.218665 430.56 
L 587.964119 290.982944 
L 709.709574 279.712747 
" clip-path="url(#p9617622453)" style="fill: none; stroke: #4a98c9; stroke-width: 1.5; stroke-linecap: square"/>
    <defs>
     <path id="mce06970091" d="M 0 3 
C 0.795609 3 1.55874 2.683901 2.12132 2.12132 
C 2.683901 1.55874 3 0.795609 3 0 
C 3 -0.795609 2.683901 -1.55874 2.12132 -2.12132 
C 1.55874 -2.683901 0.795609 -3 0 -3 
C -0.795609 -3 -1.55874 -2.683901 -2.12132 -2.12132 
C -2.683901 -1.55874 -3 -0.795609 -3 0 
C -3 0.795609 -2.683901 1.55874 -2.12132 2.12132 
C -1.55874 2.683901 -0.795609 3 0 3 
z
" style="stroke: #ffffff; stroke-width: 0.75"/>
    </defs>
    <g clip-path="url(#p9617622453)">
     <use xlink:href="#mce06970091" x="222.727756" y="430.56" style="fill: #4a98c9; stroke: #ffffff; stroke-width: 0.75"/>
     <use xlink:href="#mce06970091" x="344.47321" y="430.56" style="fill: #4a98c9; stroke: #ffffff; stroke-width: 0.75"/>
     <use xlink:href="#mce06970091" x="466.218665" y="430.56" style="fill: #4a98c9; stroke: #ffffff; stroke-width: 0.75"/>
     <use xlink:href="#mce06970091" x="587.964119" y="290.982944" style="fill: #4a98c9; stroke: #ffffff; stroke-width: 0.75"/>
     <use xlink:href="#mce06970091" x="709.709574" y="279.712747" style="fill: #4a98c9; stroke: #ffffff; stroke-width: 0.75"/>
    </g>
   </g>
   <g id="line2d_21">
    <path d="M 222.727756 430.56 
L 344.47321 417.989396 
L 587.964119 430.56 
" clip-path="url(#p9617622453)" style="fill: none; stroke: #1764ab; stroke-width: 1.5; stroke-linecap: square"/>
    <defs>
     <path id="m3fb52636ee" d="M 0 3 
C 0.795609 3 1.55874 2.683901 2.12132 2.12132 
C 2.683901 1.55874 3 0.795609 3 0 
C 3 -0.795609 2.683901 -1.55874 2.12132 -2.12132 
C 1.55874 -2.683901 0.795609 -3 0 -3 
C -0.795609 -3 -1.55874 -2.683901 -2.12132 -2.12132 
C -2.683901 -1.55874 -3 -0.795609 -3 0 
C -3 0.795609 -2.683901 1.55874 -2.12132 2.12132 
C -1.55874 2.683901 -0.795609 3 0 3 
z
" style="stroke: #ffffff; stroke-width: 0.75"/>
    </defs>
    <g clip-path="url(#p9617622453)">
     <use xlink:href="#m3fb52636ee" x="222.727756" y="430.56" style="fill: #1764ab; stroke: #ffffff; stroke-width: 0.75"/>
     <use xlink:href="#m3fb52636ee" x="344.47321" y="417.989396" style="fill: #1764ab; stroke: #ffffff; stroke-width: 0.75"/>
     <use xlink:href="#m3fb52636ee" x="587.964119" y="430.56" style="fill: #1764ab; stroke: #ffffff; stroke-width: 0.75"/>
    </g>
   </g>
   <g id="line2d_22"/>
   <g id="line2d_23"/>
   <g id="line2d_24"/>
   <g id="line2d_25"/>
   <g id="line2d_26"/>
   <g id="line2d_27"/>
   <g id="line2d_28"/>
   <g id="line2d_29"/>
   <g id="patch_3">
    <path d="M 70.545938 450.72 
L 70.545938 7.2 
" style="fill: none; stroke: #000000; stroke-width: 0.8; stroke-linejoin: miter; stroke-linecap: square"/>
   </g>
   <g id="patch_4">
    <path d="M 70.545938 450.72 
L 740.145937 450.72 
" style="fill: none; stroke: #000000; stroke-width: 0.8; stroke-linejoin: miter; stroke-linecap: square"/>
   </g>
   <g id="legend_1">
    <g id="text_16">
     <!-- Motif Size (bp), Interrupted? -->
     <g transform="translate(83.145938 30.437812)scale(0.14 -0.14)">
      <defs>
       <path id="DejaVuSans-66" d="M 2375 4863 
L 2375 4384 
L 1825 4384 
Q 1516 4384 1395 4259 
Q 1275 4134 1275 3809 
L 1275 3500 
L 2222 3500 
L 2222 3053 
L 1275 3053 
L 1275 0 
L 697 0 
L 697 3053 
L 147 3053 
L 147 3500 
L 697 3500 
L 697 3744 
Q 697 4328 969 4595 
Q 1241 4863 1831 4863 
L 2375 4863 
z
" transform="scale(0.015625)"/>
       <path id="DejaVuSans-2c" d="M 750 794 
L 1409 794 
L 1409 256 
L 897 -744 
L 494 -744 
L 750 256 
L 750 794 
z
" transform="scale(0.015625)"/>
       <path id="DejaVuSans-49" d="M 628 4666 
L 1259 4666 
L 1259 0 
L 628 0 
L 628 4666 
z
" transform="scale(0.015625)"/>
       <path id="DejaVuSans-64" d="M 2906 2969 
L 2906 4863 
L 3481 4863 
L 3481 0 
L 2906 0 
L 2906 525 
Q 2725 213 2448 61 
Q 2172 -91 1784 -91 
Q 1150 -91 751 415 
Q 353 922 353 1747 
Q 353 2572 751 3078 
Q 1150 3584 1784 3584 
Q 2172 3584 2448 3432 
Q 2725 3281 2906 2969 
z
M 947 1747 
Q 947 1113 1208 752 
Q 1469 391 1925 391 
Q 2381 391 2643 752 
Q 2906 1113 2906 1747 
Q 2906 2381 2643 2742 
Q 2381 3103 1925 3103 
Q 1469 3103 1208 2742 
Q 947 2381 947 1747 
z
" transform="scale(0.015625)"/>
       <path id="DejaVuSans-3f" d="M 1222 794 
L 1856 794 
L 1856 0 
L 1222 0 
L 1222 794 
z
M 1838 1253 
L 1241 1253 
L 1241 1734 
Q 1241 2050 1328 2253 
Q 1416 2456 1697 2725 
L 1978 3003 
Q 2156 3169 2236 3316 
Q 2316 3463 2316 3616 
Q 2316 3894 2111 4066 
Q 1906 4238 1569 4238 
Q 1322 4238 1042 4128 
Q 763 4019 459 3809 
L 459 4397 
Q 753 4575 1054 4662 
Q 1356 4750 1678 4750 
Q 2253 4750 2601 4447 
Q 2950 4144 2950 3647 
Q 2950 3409 2837 3195 
Q 2725 2981 2444 2713 
L 2169 2444 
Q 2022 2297 1961 2214 
Q 1900 2131 1875 2053 
Q 1856 1988 1847 1894 
Q 1838 1800 1838 1638 
L 1838 1253 
z
" transform="scale(0.015625)"/>
      </defs>
      <use xlink:href="#DejaVuSans-4d"/>
      <use xlink:href="#DejaVuSans-6f" x="86.279297"/>
      <use xlink:href="#DejaVuSans-74" x="147.460938"/>
      <use xlink:href="#DejaVuSans-69" x="186.669922"/>
      <use xlink:href="#DejaVuSans-66" x="214.453125"/>
      <use xlink:href="#DejaVuSans-20" x="249.658203"/>
      <use xlink:href="#DejaVuSans-53" x="281.445312"/>
      <use xlink:href="#DejaVuSans-69" x="344.921875"/>
      <use xlink:href="#DejaVuSans-7a" x="372.705078"/>
      <use xlink:href="#DejaVuSans-65" x="425.195312"/>
      <use xlink:href="#DejaVuSans-20" x="486.71875"/>
      <use xlink:href="#DejaVuSans-28" x="518.505859"/>
      <use xlink:href="#DejaVuSans-62" x="557.519531"/>
      <use xlink:href="#DejaVuSans-70" x="620.996094"/>
      <use xlink:href="#DejaVuSans-29" x="684.472656"/>
      <use xlink:href="#DejaVuSans-2c" x="723.486328"/>
      <use xlink:href="#DejaVuSans-20" x="755.273438"/>
      <use xlink:href="#DejaVuSans-49" x="787.060547"/>
      <use xlink:href="#DejaVuSans-6e" x="816.552734"/>
      <use xlink:href="#DejaVuSans-74" x="879.931641"/>
      <use xlink:href="#DejaVuSans-65" x="919.140625"/>
      <use xlink:href="#DejaVuSans-72" x="980.664062"/>
      <use xlink:href="#DejaVuSans-72" x="1020.027344"/>
      <use xlink:href="#DejaVuSans-75" x="1061.140625"/>
      <use xlink:href="#DejaVuSans-70" x="1124.519531"/>
      <use xlink:href="#DejaVuSans-74" x="1187.996094"/>
      <use xlink:href="#DejaVuSans-65" x="1227.205078"/>
      <use xlink:href="#DejaVuSans-64" x="1288.728516"/>
      <use xlink:href="#DejaVuSans-3f" x="1352.205078"/>
     </g>
    </g>
    <g id="line2d_30">
     <path d="M 104.685156 46.087187 
L 118.685156 46.087187 
L 132.685156 46.087187 
" style="fill: none; stroke: #fdd9b4; stroke-width: 1.5; stroke-linecap: square"/>
    </g>
    <g id="text_17">
     <!-- 3bp, pure -->
     <g transform="translate(143.885156 50.987187)scale(0.14 -0.14)">
      <use xlink:href="#DejaVuSans-33"/>
      <use xlink:href="#DejaVuSans-62" x="63.623047"/>
      <use xlink:href="#DejaVuSans-70" x="127.099609"/>
      <use xlink:href="#DejaVuSans-2c" x="190.576172"/>
      <use xlink:href="#DejaVuSans-20" x="222.363281"/>
      <use xlink:href="#DejaVuSans-70" x="254.150391"/>
      <use xlink:href="#DejaVuSans-75" x="317.626953"/>
      <use xlink:href="#DejaVuSans-72" x="381.005859"/>
      <use xlink:href="#DejaVuSans-65" x="419.869141"/>
     </g>
    </g>
    <g id="line2d_31">
     <path d="M 104.685156 66.636562 
L 118.685156 66.636562 
L 132.685156 66.636562 
" style="fill: none; stroke: #fda762; stroke-width: 1.5; stroke-linecap: square"/>
    </g>
    <g id="text_18">
     <!-- 4bp, pure -->
     <g transform="translate(143.885156 71.536562)scale(0.14 -0.14)">
      <use xlink:href="#DejaVuSans-34"/>
      <use xlink:href="#DejaVuSans-62" x="63.623047"/>
      <use xlink:href="#DejaVuSans-70" x="127.099609"/>
      <use xlink:href="#DejaVuSans-2c" x="190.576172"/>
      <use xlink:href="#DejaVuSans-20" x="222.363281"/>
      <use xlink:href="#DejaVuSans-70" x="254.150391"/>
      <use xlink:href="#DejaVuSans-75" x="317.626953"/>
      <use xlink:href="#DejaVuSans-72" x="381.005859"/>
      <use xlink:href="#DejaVuSans-65" x="419.869141"/>
     </g>
    </g>
    <g id="line2d_32">
     <path d="M 104.685156 87.185937 
L 118.685156 87.185937 
L 132.685156 87.185937 
" style="fill: none; stroke: #f3701b; stroke-width: 1.5; stroke-linecap: square"/>
    </g>
    <g id="text_19">
     <!-- 5bp, pure -->
     <g transform="translate(143.885156 92.085937)scale(0.14 -0.14)">
      <use xlink:href="#DejaVuSans-35"/>
      <use xlink:href="#DejaVuSans-62" x="63.623047"/>
      <use xlink:href="#DejaVuSans-70" x="127.099609"/>
      <use xlink:href="#DejaVuSans-2c" x="190.576172"/>
      <use xlink:href="#DejaVuSans-20" x="222.363281"/>
      <use xlink:href="#DejaVuSans-70" x="254.150391"/>
      <use xlink:href="#DejaVuSans-75" x="317.626953"/>
      <use xlink:href="#DejaVuSans-72" x="381.005859"/>
      <use xlink:href="#DejaVuSans-65" x="419.869141"/>
     </g>
    </g>
    <g id="line2d_33">
     <path d="M 104.685156 107.735312 
L 118.685156 107.735312 
L 132.685156 107.735312 
" style="fill: none; stroke: #c54102; stroke-width: 1.5; stroke-linecap: square"/>
    </g>
    <g id="text_20">
     <!-- 6bp, pure -->
     <g transform="translate(143.885156 112.635312)scale(0.14 -0.14)">
      <use xlink:href="#DejaVuSans-36"/>
      <use xlink:href="#DejaVuSans-62" x="63.623047"/>
      <use xlink:href="#DejaVuSans-70" x="127.099609"/>
      <use xlink:href="#DejaVuSans-2c" x="190.576172"/>
      <use xlink:href="#DejaVuSans-20" x="222.363281"/>
      <use xlink:href="#DejaVuSans-70" x="254.150391"/>
      <use xlink:href="#DejaVuSans-75" x="317.626953"/>
      <use xlink:href="#DejaVuSans-72" x="381.005859"/>
      <use xlink:href="#DejaVuSans-65" x="419.869141"/>
     </g>
    </g>
    <g id="line2d_34">
     <path d="M 104.685156 128.284687 
L 118.685156 128.284687 
L 132.685156 128.284687 
" style="fill: none; stroke: #d0e1f2; stroke-width: 1.5; stroke-linecap: square"/>
    </g>
    <g id="text_21">
     <!-- 3bp, interrupted -->
     <g transform="translate(143.885156 133.184687)scale(0.14 -0.14)">
      <use xlink:href="#DejaVuSans-33"/>
      <use xlink:href="#DejaVuSans-62" x="63.623047"/>
      <use xlink:href="#DejaVuSans-70" x="127.099609"/>
      <use xlink:href="#DejaVuSans-2c" x="190.576172"/>
      <use xlink:href="#DejaVuSans-20" x="222.363281"/>
      <use xlink:href="#DejaVuSans-69" x="254.150391"/>
      <use xlink:href="#DejaVuSans-6e" x="281.933594"/>
      <use xlink:href="#DejaVuSans-74" x="345.3125"/>
      <use xlink:href="#DejaVuSans-65" x="384.521484"/>
      <use xlink:href="#DejaVuSans-72" x="446.044922"/>
      <use xlink:href="#DejaVuSans-72" x="485.408203"/>
      <use xlink:href="#DejaVuSans-75" x="526.521484"/>
      <use xlink:href="#DejaVuSans-70" x="589.900391"/>
      <use xlink:href="#DejaVuSans-74" x="653.376953"/>
      <use xlink:href="#DejaVuSans-65" x="692.585938"/>
      <use xlink:href="#DejaVuSans-64" x="754.109375"/>
     </g>
    </g>
    <g id="line2d_35">
     <path d="M 104.685156 148.834062 
L 118.685156 148.834062 
L 132.685156 148.834062 
" style="fill: none; stroke: #94c4df; stroke-width: 1.5; stroke-linecap: square"/>
    </g>
    <g id="text_22">
     <!-- 4bp, interrupted -->
     <g transform="translate(143.885156 153.734062)scale(0.14 -0.14)">
      <use xlink:href="#DejaVuSans-34"/>
      <use xlink:href="#DejaVuSans-62" x="63.623047"/>
      <use xlink:href="#DejaVuSans-70" x="127.099609"/>
      <use xlink:href="#DejaVuSans-2c" x="190.576172"/>
      <use xlink:href="#DejaVuSans-20" x="222.363281"/>
      <use xlink:href="#DejaVuSans-69" x="254.150391"/>
      <use xlink:href="#DejaVuSans-6e" x="281.933594"/>
      <use xlink:href="#DejaVuSans-74" x="345.3125"/>
      <use xlink:href="#DejaVuSans-65" x="384.521484"/>
      <use xlink:href="#DejaVuSans-72" x="446.044922"/>
      <use xlink:href="#DejaVuSans-72" x="485.408203"/>
      <use xlink:href="#DejaVuSans-75" x="526.521484"/>
      <use xlink:href="#DejaVuSans-70" x="589.900391"/>
      <use xlink:href="#DejaVuSans-74" x="653.376953"/>
      <use xlink:href="#DejaVuSans-65" x="692.585938"/>
      <use xlink:href="#DejaVuSans-64" x="754.109375"/>
     </g>
    </g>
    <g id="line2d_36">
     <path d="M 104.685156 169.383437 
L 118.685156 169.383437 
L 132.685156 169.383437 
" style="fill: none; stroke: #4a98c9; stroke-width: 1.5; stroke-linecap: square"/>
    </g>
    <g id="text_23">
     <!-- 5bp, interrupted -->
     <g transform="translate(143.885156 174.283437)scale(0.14 -0.14)">
      <use xlink:href="#DejaVuSans-35"/>
      <use xlink:href="#DejaVuSans-62" x="63.623047"/>
      <use xlink:href="#DejaVuSans-70" x="127.099609"/>
      <use xlink:href="#DejaVuSans-2c" x="190.576172"/>
      <use xlink:href="#DejaVuSans-20" x="222.363281"/>
      <use xlink:href="#DejaVuSans-69" x="254.150391"/>
      <use xlink:href="#DejaVuSans-6e" x="281.933594"/>
      <use xlink:href="#DejaVuSans-74" x="345.3125"/>
      <use xlink:href="#DejaVuSans-65" x="384.521484"/>
      <use xlink:href="#DejaVuSans-72" x="446.044922"/>
      <use xlink:href="#DejaVuSans-72" x="485.408203"/>
      <use xlink:href="#DejaVuSans-75" x="526.521484"/>
      <use xlink:href="#DejaVuSans-70" x="589.900391"/>
      <use xlink:href="#DejaVuSans-74" x="653.376953"/>
      <use xlink:href="#DejaVuSans-65" x="692.585938"/>
      <use xlink:href="#DejaVuSans-64" x="754.109375"/>
     </g>
    </g>
    <g id="line2d_37">
     <path d="M 104.685156 189.932812 
L 118.685156 189.932812 
L 132.685156 189.932812 
" style="fill: none; stroke: #1764ab; stroke-width: 1.5; stroke-linecap: square"/>
    </g>
    <g id="text_24">
     <!-- 6bp, interrupted -->
     <g transform="translate(143.885156 194.832812)scale(0.14 -0.14)">
      <use xlink:href="#DejaVuSans-36"/>
      <use xlink:href="#DejaVuSans-62" x="63.623047"/>
      <use xlink:href="#DejaVuSans-70" x="127.099609"/>
      <use xlink:href="#DejaVuSans-2c" x="190.576172"/>
      <use xlink:href="#DejaVuSans-20" x="222.363281"/>
      <use xlink:href="#DejaVuSans-69" x="254.150391"/>
      <use xlink:href="#DejaVuSans-6e" x="281.933594"/>
      <use xlink:href="#DejaVuSans-74" x="345.3125"/>
      <use xlink:href="#DejaVuSans-65" x="384.521484"/>
      <use xlink:href="#DejaVuSans-72" x="446.044922"/>
      <use xlink:href="#DejaVuSans-72" x="485.408203"/>
      <use xlink:href="#DejaVuSans-75" x="526.521484"/>
      <use xlink:href="#DejaVuSans-70" x="589.900391"/>
      <use xlink:href="#DejaVuSans-74" x="653.376953"/>
      <use xlink:href="#DejaVuSans-65" x="692.585938"/>
      <use xlink:href="#DejaVuSans-64" x="754.109375"/>
     </g>
    </g>
   </g>
  </g>
 </g>
 <defs>
  <clipPath id="p9617622453">
   <rect x="70.545938" y="7.2" width="669.6" height="443.52"/>
  </clipPath>
 </defs>
</svg>
