<?xml version="1.0" encoding="utf-8" standalone="no"?>
<!DOCTYPE svg PUBLIC "-//W3C//DTD SVG 1.1//EN"
  "http://www.w3.org/Graphics/SVG/1.1/DTD/svg11.dtd">
<svg xmlns:xlink="http://www.w3.org/1999/xlink" width="531.779149pt" height="483.257875pt" viewBox="0 0 531.779149 483.257875" xmlns="http://www.w3.org/2000/svg" version="1.1">
 <metadata>
  <rdf:RDF xmlns:dc="http://purl.org/dc/elements/1.1/" xmlns:cc="http://creativecommons.org/ns#" xmlns:rdf="http://www.w3.org/1999/02/22-rdf-syntax-ns#">
   <cc:Work>
    <dc:type rdf:resource="http://purl.org/dc/dcmitype/StillImage"/>
    <dc:date>2023-03-20T08:33:31.509750</dc:date>
    <dc:format>image/svg+xml</dc:format>
    <dc:creator>
     <cc:Agent>
      <dc:title>Matplotlib v3.5.1, https://matplotlib.org/</dc:title>
     </cc:Agent>
    </dc:creator>
   </cc:Work>
  </rdf:RDF>
 </metadata>
 <defs>
  <style type="text/css">*{stroke-linejoin: round; stroke-linecap: butt}</style>
 </defs>
 <g id="figure_1">
  <g id="patch_1">
   <path d="M 0 483.257875 
L 531.779149 483.257875 
L 531.779149 0 
L 0 0 
z
" style="fill: #ffffff"/>
  </g>
  <g id="axes_1">
   <g id="patch_2">
    <path d="M 72.994687 427.59475 
L 519.394688 427.59475 
L 519.394688 39.51475 
L 72.994687 39.51475 
z
" style="fill: #ffffff"/>
   </g>
   <g id="patch_3">
    <path d="M -545.119745 427.59475 
L -530.738302 427.59475 
L -530.738302 427.327505 
L -545.119745 427.327505 
z
" clip-path="url(#p42bc90a033)" style="fill: #1f77b4; fill-opacity: 0.75; stroke: #000000; stroke-width: 0.8; stroke-linejoin: miter"/>
   </g>
   <g id="patch_4">
    <path d="M -530.738302 427.59475 
L -516.356859 427.59475 
L -516.356859 427.59475 
L -530.738302 427.59475 
z
" clip-path="url(#p42bc90a033)" style="fill: #1f77b4; fill-opacity: 0.75; stroke: #000000; stroke-width: 0.8; stroke-linejoin: miter"/>
   </g>
   <g id="patch_5">
    <path d="M -516.356859 427.59475 
L -501.975416 427.59475 
L -501.975416 427.59475 
L -516.356859 427.59475 
z
" clip-path="url(#p42bc90a033)" style="fill: #1f77b4; fill-opacity: 0.75; stroke: #000000; stroke-width: 0.8; stroke-linejoin: miter"/>
   </g>
   <g id="patch_6">
    <path d="M -501.975416 427.59475 
L -487.593972 427.59475 
L -487.593972 427.327505 
L -501.975416 427.327505 
z
" clip-path="url(#p42bc90a033)" style="fill: #1f77b4; fill-opacity: 0.75; stroke: #000000; stroke-width: 0.8; stroke-linejoin: miter"/>
   </g>
   <g id="patch_7">
    <path d="M -487.593972 427.59475 
L -473.212529 427.59475 
L -473.212529 427.59475 
L -487.593972 427.59475 
z
" clip-path="url(#p42bc90a033)" style="fill: #1f77b4; fill-opacity: 0.75; stroke: #000000; stroke-width: 0.8; stroke-linejoin: miter"/>
   </g>
   <g id="patch_8">
    <path d="M -473.212529 427.59475 
L -458.831086 427.59475 
L -458.831086 427.59475 
L -473.212529 427.59475 
z
" clip-path="url(#p42bc90a033)" style="fill: #1f77b4; fill-opacity: 0.75; stroke: #000000; stroke-width: 0.8; stroke-linejoin: miter"/>
   </g>
   <g id="patch_9">
    <path d="M -458.831086 427.59475 
L -444.449642 427.59475 
L -444.449642 427.59475 
L -458.831086 427.59475 
z
" clip-path="url(#p42bc90a033)" style="fill: #1f77b4; fill-opacity: 0.75; stroke: #000000; stroke-width: 0.8; stroke-linejoin: miter"/>
   </g>
   <g id="patch_10">
    <path d="M -444.449642 427.59475 
L -430.068199 427.59475 
L -430.068199 427.59475 
L -444.449642 427.59475 
z
" clip-path="url(#p42bc90a033)" style="fill: #1f77b4; fill-opacity: 0.75; stroke: #000000; stroke-width: 0.8; stroke-linejoin: miter"/>
   </g>
   <g id="patch_11">
    <path d="M -430.068199 427.59475 
L -415.686756 427.59475 
L -415.686756 427.327505 
L -430.068199 427.327505 
z
" clip-path="url(#p42bc90a033)" style="fill: #1f77b4; fill-opacity: 0.75; stroke: #000000; stroke-width: 0.8; stroke-linejoin: miter"/>
   </g>
   <g id="patch_12">
    <path d="M -415.686756 427.59475 
L -401.305313 427.59475 
L -401.305313 427.59475 
L -415.686756 427.59475 
z
" clip-path="url(#p42bc90a033)" style="fill: #1f77b4; fill-opacity: 0.75; stroke: #000000; stroke-width: 0.8; stroke-linejoin: miter"/>
   </g>
   <g id="patch_13">
    <path d="M -401.305313 427.59475 
L -386.923869 427.59475 
L -386.923869 427.59475 
L -401.305313 427.59475 
z
" clip-path="url(#p42bc90a033)" style="fill: #1f77b4; fill-opacity: 0.75; stroke: #000000; stroke-width: 0.8; stroke-linejoin: miter"/>
   </g>
   <g id="patch_14">
    <path d="M -386.923869 427.59475 
L -372.542426 427.59475 
L -372.542426 427.59475 
L -386.923869 427.59475 
z
" clip-path="url(#p42bc90a033)" style="fill: #1f77b4; fill-opacity: 0.75; stroke: #000000; stroke-width: 0.8; stroke-linejoin: miter"/>
   </g>
   <g id="patch_15">
    <path d="M -372.542426 427.59475 
L -358.160983 427.59475 
L -358.160983 427.59475 
L -372.542426 427.59475 
z
" clip-path="url(#p42bc90a033)" style="fill: #1f77b4; fill-opacity: 0.75; stroke: #000000; stroke-width: 0.8; stroke-linejoin: miter"/>
   </g>
   <g id="patch_16">
    <path d="M -358.160983 427.59475 
L -343.779539 427.59475 
L -343.779539 427.59475 
L -358.160983 427.59475 
z
" clip-path="url(#p42bc90a033)" style="fill: #1f77b4; fill-opacity: 0.75; stroke: #000000; stroke-width: 0.8; stroke-linejoin: miter"/>
   </g>
   <g id="patch_17">
    <path d="M -343.779539 427.59475 
L -329.398096 427.59475 
L -329.398096 427.327505 
L -343.779539 427.327505 
z
" clip-path="url(#p42bc90a033)" style="fill: #1f77b4; fill-opacity: 0.75; stroke: #000000; stroke-width: 0.8; stroke-linejoin: miter"/>
   </g>
   <g id="patch_18">
    <path d="M -329.398096 427.59475 
L -315.016653 427.59475 
L -315.016653 427.59475 
L -329.398096 427.59475 
z
" clip-path="url(#p42bc90a033)" style="fill: #1f77b4; fill-opacity: 0.75; stroke: #000000; stroke-width: 0.8; stroke-linejoin: miter"/>
   </g>
   <g id="patch_19">
    <path d="M -315.016653 427.59475 
L -300.635209 427.59475 
L -300.635209 427.59475 
L -315.016653 427.59475 
z
" clip-path="url(#p42bc90a033)" style="fill: #1f77b4; fill-opacity: 0.75; stroke: #000000; stroke-width: 0.8; stroke-linejoin: miter"/>
   </g>
   <g id="patch_20">
    <path d="M -300.635209 427.59475 
L -286.253766 427.59475 
L -286.253766 427.59475 
L -300.635209 427.59475 
z
" clip-path="url(#p42bc90a033)" style="fill: #1f77b4; fill-opacity: 0.75; stroke: #000000; stroke-width: 0.8; stroke-linejoin: miter"/>
   </g>
   <g id="patch_21">
    <path d="M -286.253766 427.59475 
L -271.872323 427.59475 
L -271.872323 427.59475 
L -286.253766 427.59475 
z
" clip-path="url(#p42bc90a033)" style="fill: #1f77b4; fill-opacity: 0.75; stroke: #000000; stroke-width: 0.8; stroke-linejoin: miter"/>
   </g>
   <g id="patch_22">
    <path d="M -271.872323 427.59475 
L -257.49088 427.59475 
L -257.49088 427.59475 
L -271.872323 427.59475 
z
" clip-path="url(#p42bc90a033)" style="fill: #1f77b4; fill-opacity: 0.75; stroke: #000000; stroke-width: 0.8; stroke-linejoin: miter"/>
   </g>
   <g id="patch_23">
    <path d="M -257.49088 427.59475 
L -243.109436 427.59475 
L -243.109436 427.59475 
L -257.49088 427.59475 
z
" clip-path="url(#p42bc90a033)" style="fill: #1f77b4; fill-opacity: 0.75; stroke: #000000; stroke-width: 0.8; stroke-linejoin: miter"/>
   </g>
   <g id="patch_24">
    <path d="M -243.109436 427.59475 
L -228.727993 427.59475 
L -228.727993 427.59475 
L -243.109436 427.59475 
z
" clip-path="url(#p42bc90a033)" style="fill: #1f77b4; fill-opacity: 0.75; stroke: #000000; stroke-width: 0.8; stroke-linejoin: miter"/>
   </g>
   <g id="patch_25">
    <path d="M -228.727993 427.59475 
L -214.34655 427.59475 
L -214.34655 427.59475 
L -228.727993 427.59475 
z
" clip-path="url(#p42bc90a033)" style="fill: #1f77b4; fill-opacity: 0.75; stroke: #000000; stroke-width: 0.8; stroke-linejoin: miter"/>
   </g>
   <g id="patch_26">
    <path d="M -214.34655 427.59475 
L -199.965106 427.59475 
L -199.965106 427.59475 
L -214.34655 427.59475 
z
" clip-path="url(#p42bc90a033)" style="fill: #1f77b4; fill-opacity: 0.75; stroke: #000000; stroke-width: 0.8; stroke-linejoin: miter"/>
   </g>
   <g id="patch_27">
    <path d="M -199.965106 427.59475 
L -185.583663 427.59475 
L -185.583663 427.327505 
L -199.965106 427.327505 
z
" clip-path="url(#p42bc90a033)" style="fill: #1f77b4; fill-opacity: 0.75; stroke: #000000; stroke-width: 0.8; stroke-linejoin: miter"/>
   </g>
   <g id="patch_28">
    <path d="M -185.583663 427.59475 
L -171.20222 427.59475 
L -171.20222 427.59475 
L -185.583663 427.59475 
z
" clip-path="url(#p42bc90a033)" style="fill: #1f77b4; fill-opacity: 0.75; stroke: #000000; stroke-width: 0.8; stroke-linejoin: miter"/>
   </g>
   <g id="patch_29">
    <path d="M -171.20222 427.59475 
L -156.820776 427.59475 
L -156.820776 427.59475 
L -171.20222 427.59475 
z
" clip-path="url(#p42bc90a033)" style="fill: #1f77b4; fill-opacity: 0.75; stroke: #000000; stroke-width: 0.8; stroke-linejoin: miter"/>
   </g>
   <g id="patch_30">
    <path d="M -156.820776 427.59475 
L -142.439333 427.59475 
L -142.439333 427.59475 
L -156.820776 427.59475 
z
" clip-path="url(#p42bc90a033)" style="fill: #1f77b4; fill-opacity: 0.75; stroke: #000000; stroke-width: 0.8; stroke-linejoin: miter"/>
   </g>
   <g id="patch_31">
    <path d="M -142.439333 427.59475 
L -128.05789 427.59475 
L -128.05789 427.59475 
L -142.439333 427.59475 
z
" clip-path="url(#p42bc90a033)" style="fill: #1f77b4; fill-opacity: 0.75; stroke: #000000; stroke-width: 0.8; stroke-linejoin: miter"/>
   </g>
   <g id="patch_32">
    <path d="M -128.05789 427.59475 
L -113.676447 427.59475 
L -113.676447 427.59475 
L -128.05789 427.59475 
z
" clip-path="url(#p42bc90a033)" style="fill: #1f77b4; fill-opacity: 0.75; stroke: #000000; stroke-width: 0.8; stroke-linejoin: miter"/>
   </g>
   <g id="patch_33">
    <path d="M -113.676447 427.59475 
L -99.295003 427.59475 
L -99.295003 427.327505 
L -113.676447 427.327505 
z
" clip-path="url(#p42bc90a033)" style="fill: #1f77b4; fill-opacity: 0.75; stroke: #000000; stroke-width: 0.8; stroke-linejoin: miter"/>
   </g>
   <g id="patch_34">
    <path d="M -99.295003 427.59475 
L -84.91356 427.59475 
L -84.91356 427.59475 
L -99.295003 427.59475 
z
" clip-path="url(#p42bc90a033)" style="fill: #1f77b4; fill-opacity: 0.75; stroke: #000000; stroke-width: 0.8; stroke-linejoin: miter"/>
   </g>
   <g id="patch_35">
    <path d="M -84.91356 427.59475 
L -70.532117 427.59475 
L -70.532117 427.59475 
L -84.91356 427.59475 
z
" clip-path="url(#p42bc90a033)" style="fill: #1f77b4; fill-opacity: 0.75; stroke: #000000; stroke-width: 0.8; stroke-linejoin: miter"/>
   </g>
   <g id="patch_36">
    <path d="M -70.532117 427.59475 
L -56.150673 427.59475 
L -56.150673 427.327505 
L -70.532117 427.327505 
z
" clip-path="url(#p42bc90a033)" style="fill: #1f77b4; fill-opacity: 0.75; stroke: #000000; stroke-width: 0.8; stroke-linejoin: miter"/>
   </g>
   <g id="patch_37">
    <path d="M -56.150673 427.59475 
L -41.76923 427.59475 
L -41.76923 427.327505 
L -56.150673 427.327505 
z
" clip-path="url(#p42bc90a033)" style="fill: #1f77b4; fill-opacity: 0.75; stroke: #000000; stroke-width: 0.8; stroke-linejoin: miter"/>
   </g>
   <g id="patch_38">
    <path d="M -41.76923 427.59475 
L -27.387787 427.59475 
L -27.387787 426.793015 
L -41.76923 426.793015 
z
" clip-path="url(#p42bc90a033)" style="fill: #1f77b4; fill-opacity: 0.75; stroke: #000000; stroke-width: 0.8; stroke-linejoin: miter"/>
   </g>
   <g id="patch_39">
    <path d="M -27.387787 427.59475 
L -13.006343 427.59475 
L -13.006343 426.793015 
L -27.387787 426.793015 
z
" clip-path="url(#p42bc90a033)" style="fill: #1f77b4; fill-opacity: 0.75; stroke: #000000; stroke-width: 0.8; stroke-linejoin: miter"/>
   </g>
   <g id="patch_40">
    <path d="M -13.006343 427.59475 
L 1.3751 427.59475 
L 1.3751 426.258524 
L -13.006343 426.258524 
z
" clip-path="url(#p42bc90a033)" style="fill: #1f77b4; fill-opacity: 0.75; stroke: #000000; stroke-width: 0.8; stroke-linejoin: miter"/>
   </g>
   <g id="patch_41">
    <path d="M 1.3751 427.59475 
L 15.756543 427.59475 
L 15.756543 427.59475 
L 1.3751 427.59475 
z
" clip-path="url(#p42bc90a033)" style="fill: #1f77b4; fill-opacity: 0.75; stroke: #000000; stroke-width: 0.8; stroke-linejoin: miter"/>
   </g>
   <g id="patch_42">
    <path d="M 15.756543 427.59475 
L 30.137986 427.59475 
L 30.137986 427.327505 
L 15.756543 427.327505 
z
" clip-path="url(#p42bc90a033)" style="fill: #1f77b4; fill-opacity: 0.75; stroke: #000000; stroke-width: 0.8; stroke-linejoin: miter"/>
   </g>
   <g id="patch_43">
    <path d="M 30.137986 427.59475 
L 44.51943 427.59475 
L 44.51943 427.327505 
L 30.137986 427.327505 
z
" clip-path="url(#p42bc90a033)" style="fill: #1f77b4; fill-opacity: 0.75; stroke: #000000; stroke-width: 0.8; stroke-linejoin: miter"/>
   </g>
   <g id="patch_44">
    <path d="M 44.51943 427.59475 
L 58.900873 427.59475 
L 58.900873 426.793015 
L 44.51943 426.793015 
z
" clip-path="url(#p42bc90a033)" style="fill: #1f77b4; fill-opacity: 0.75; stroke: #000000; stroke-width: 0.8; stroke-linejoin: miter"/>
   </g>
   <g id="patch_45">
    <path d="M 58.900873 427.59475 
L 73.282316 427.59475 
L 73.282316 425.724034 
L 58.900873 425.724034 
z
" clip-path="url(#p42bc90a033)" style="fill: #1f77b4; fill-opacity: 0.75; stroke: #000000; stroke-width: 0.8; stroke-linejoin: miter"/>
   </g>
   <g id="patch_46">
    <path d="M 73.282316 427.59475 
L 87.66376 427.59475 
L 87.66376 425.991279 
L 73.282316 425.991279 
z
" clip-path="url(#p42bc90a033)" style="fill: #1f77b4; fill-opacity: 0.75; stroke: #000000; stroke-width: 0.8; stroke-linejoin: miter"/>
   </g>
   <g id="patch_47">
    <path d="M 87.66376 427.59475 
L 102.045203 427.59475 
L 102.045203 424.922299 
L 87.66376 424.922299 
z
" clip-path="url(#p42bc90a033)" style="fill: #1f77b4; fill-opacity: 0.75; stroke: #000000; stroke-width: 0.8; stroke-linejoin: miter"/>
   </g>
   <g id="patch_48">
    <path d="M 102.045203 427.59475 
L 116.426646 427.59475 
L 116.426646 424.387809 
L 102.045203 424.387809 
z
" clip-path="url(#p42bc90a033)" style="fill: #1f77b4; fill-opacity: 0.75; stroke: #000000; stroke-width: 0.8; stroke-linejoin: miter"/>
   </g>
   <g id="patch_49">
    <path d="M 116.426646 427.59475 
L 130.80809 427.59475 
L 130.80809 422.784338 
L 116.426646 422.784338 
z
" clip-path="url(#p42bc90a033)" style="fill: #1f77b4; fill-opacity: 0.75; stroke: #000000; stroke-width: 0.8; stroke-linejoin: miter"/>
   </g>
   <g id="patch_50">
    <path d="M 130.80809 427.59475 
L 145.189533 427.59475 
L 145.189533 422.517093 
L 130.80809 422.517093 
z
" clip-path="url(#p42bc90a033)" style="fill: #1f77b4; fill-opacity: 0.75; stroke: #000000; stroke-width: 0.8; stroke-linejoin: miter"/>
   </g>
   <g id="patch_51">
    <path d="M 145.189533 427.59475 
L 159.570976 427.59475 
L 159.570976 418.508416 
L 145.189533 418.508416 
z
" clip-path="url(#p42bc90a033)" style="fill: #1f77b4; fill-opacity: 0.75; stroke: #000000; stroke-width: 0.8; stroke-linejoin: miter"/>
   </g>
   <g id="patch_52">
    <path d="M 159.570976 427.59475 
L 173.952419 427.59475 
L 173.952419 413.430759 
L 159.570976 413.430759 
z
" clip-path="url(#p42bc90a033)" style="fill: #1f77b4; fill-opacity: 0.75; stroke: #000000; stroke-width: 0.8; stroke-linejoin: miter"/>
   </g>
   <g id="patch_53">
    <path d="M 173.952419 427.59475 
L 188.333863 427.59475 
L 188.333863 408.085856 
L 173.952419 408.085856 
z
" clip-path="url(#p42bc90a033)" style="fill: #1f77b4; fill-opacity: 0.75; stroke: #000000; stroke-width: 0.8; stroke-linejoin: miter"/>
   </g>
   <g id="patch_54">
    <path d="M 188.333863 427.59475 
L 202.715306 427.59475 
L 202.715306 392.852884 
L 188.333863 392.852884 
z
" clip-path="url(#p42bc90a033)" style="fill: #1f77b4; fill-opacity: 0.75; stroke: #000000; stroke-width: 0.8; stroke-linejoin: miter"/>
   </g>
   <g id="patch_55">
    <path d="M 202.715306 427.59475 
L 217.096749 427.59475 
L 217.096749 371.74052 
L 202.715306 371.74052 
z
" clip-path="url(#p42bc90a033)" style="fill: #1f77b4; fill-opacity: 0.75; stroke: #000000; stroke-width: 0.8; stroke-linejoin: miter"/>
   </g>
   <g id="patch_56">
    <path d="M 217.096749 427.59475 
L 231.478193 427.59475 
L 231.478193 339.136616 
L 217.096749 339.136616 
z
" clip-path="url(#p42bc90a033)" style="fill: #1f77b4; fill-opacity: 0.75; stroke: #000000; stroke-width: 0.8; stroke-linejoin: miter"/>
   </g>
   <g id="patch_57">
    <path d="M 231.478193 427.59475 
L 245.859636 427.59475 
L 245.859636 314.282819 
L 231.478193 314.282819 
z
" clip-path="url(#p42bc90a033)" style="fill: #1f77b4; fill-opacity: 0.75; stroke: #000000; stroke-width: 0.8; stroke-linejoin: miter"/>
   </g>
   <g id="patch_58">
    <path d="M 245.859636 427.59475 
L 260.241079 427.59475 
L 260.241079 179.056789 
L 245.859636 179.056789 
z
" clip-path="url(#p42bc90a033)" style="fill: #1f77b4; fill-opacity: 0.75; stroke: #000000; stroke-width: 0.8; stroke-linejoin: miter"/>
   </g>
   <g id="patch_59">
    <path d="M 260.241079 427.59475 
L 274.622523 427.59475 
L 274.622523 65.477613 
L 260.241079 65.477613 
z
" clip-path="url(#p42bc90a033)" style="fill: #1f77b4; fill-opacity: 0.75; stroke: #000000; stroke-width: 0.8; stroke-linejoin: miter"/>
   </g>
   <g id="patch_60">
    <path d="M 274.622523 427.59475 
L 289.003966 427.59475 
L 289.003966 135.495835 
L 274.622523 135.495835 
z
" clip-path="url(#p42bc90a033)" style="fill: #1f77b4; fill-opacity: 0.75; stroke: #000000; stroke-width: 0.8; stroke-linejoin: miter"/>
   </g>
   <g id="patch_61">
    <path d="M 289.003966 427.59475 
L 303.385409 427.59475 
L 303.385409 427.59475 
L 289.003966 427.59475 
z
" clip-path="url(#p42bc90a033)" style="fill: #1f77b4; fill-opacity: 0.75; stroke: #000000; stroke-width: 0.8; stroke-linejoin: miter"/>
   </g>
   <g id="patch_62">
    <path d="M 303.385409 427.59475 
L 317.766852 427.59475 
L 317.766852 72.693232 
L 303.385409 72.693232 
z
" clip-path="url(#p42bc90a033)" style="fill: #1f77b4; fill-opacity: 0.75; stroke: #000000; stroke-width: 0.8; stroke-linejoin: miter"/>
   </g>
   <g id="patch_63">
    <path d="M 317.766852 427.59475 
L 332.148296 427.59475 
L 332.148296 57.99475 
L 317.766852 57.99475 
z
" clip-path="url(#p42bc90a033)" style="fill: #1f77b4; fill-opacity: 0.75; stroke: #000000; stroke-width: 0.8; stroke-linejoin: miter"/>
   </g>
   <g id="patch_64">
    <path d="M 332.148296 427.59475 
L 346.529739 427.59475 
L 346.529739 200.970889 
L 332.148296 200.970889 
z
" clip-path="url(#p42bc90a033)" style="fill: #1f77b4; fill-opacity: 0.75; stroke: #000000; stroke-width: 0.8; stroke-linejoin: miter"/>
   </g>
   <g id="patch_65">
    <path d="M 346.529739 427.59475 
L 360.911182 427.59475 
L 360.911182 302.256789 
L 346.529739 302.256789 
z
" clip-path="url(#p42bc90a033)" style="fill: #1f77b4; fill-opacity: 0.75; stroke: #000000; stroke-width: 0.8; stroke-linejoin: miter"/>
   </g>
   <g id="patch_66">
    <path d="M 360.911182 427.59475 
L 375.292626 427.59475 
L 375.292626 339.938351 
L 360.911182 339.938351 
z
" clip-path="url(#p42bc90a033)" style="fill: #1f77b4; fill-opacity: 0.75; stroke: #000000; stroke-width: 0.8; stroke-linejoin: miter"/>
   </g>
   <g id="patch_67">
    <path d="M 375.292626 427.59475 
L 389.674069 427.59475 
L 389.674069 380.292364 
L 375.292626 380.292364 
z
" clip-path="url(#p42bc90a033)" style="fill: #1f77b4; fill-opacity: 0.75; stroke: #000000; stroke-width: 0.8; stroke-linejoin: miter"/>
   </g>
   <g id="patch_68">
    <path d="M 389.674069 427.59475 
L 404.055512 427.59475 
L 404.055512 396.059826 
L 389.674069 396.059826 
z
" clip-path="url(#p42bc90a033)" style="fill: #1f77b4; fill-opacity: 0.75; stroke: #000000; stroke-width: 0.8; stroke-linejoin: miter"/>
   </g>
   <g id="patch_69">
    <path d="M 404.055512 427.59475 
L 418.436956 427.59475 
L 418.436956 403.809934 
L 404.055512 403.809934 
z
" clip-path="url(#p42bc90a033)" style="fill: #1f77b4; fill-opacity: 0.75; stroke: #000000; stroke-width: 0.8; stroke-linejoin: miter"/>
   </g>
   <g id="patch_70">
    <path d="M 418.436956 427.59475 
L 432.818399 427.59475 
L 432.818399 412.629023 
L 418.436956 412.629023 
z
" clip-path="url(#p42bc90a033)" style="fill: #1f77b4; fill-opacity: 0.75; stroke: #000000; stroke-width: 0.8; stroke-linejoin: miter"/>
   </g>
   <g id="patch_71">
    <path d="M 432.818399 427.59475 
L 447.199842 427.59475 
L 447.199842 415.56872 
L 432.818399 415.56872 
z
" clip-path="url(#p42bc90a033)" style="fill: #1f77b4; fill-opacity: 0.75; stroke: #000000; stroke-width: 0.8; stroke-linejoin: miter"/>
   </g>
   <g id="patch_72">
    <path d="M 447.199842 427.59475 
L 461.581285 427.59475 
L 461.581285 416.904945 
L 447.199842 416.904945 
z
" clip-path="url(#p42bc90a033)" style="fill: #1f77b4; fill-opacity: 0.75; stroke: #000000; stroke-width: 0.8; stroke-linejoin: miter"/>
   </g>
   <g id="patch_73">
    <path d="M 461.581285 427.59475 
L 475.962729 427.59475 
L 475.962729 421.448112 
L 461.581285 421.448112 
z
" clip-path="url(#p42bc90a033)" style="fill: #1f77b4; fill-opacity: 0.75; stroke: #000000; stroke-width: 0.8; stroke-linejoin: miter"/>
   </g>
   <g id="patch_74">
    <path d="M 475.962729 427.59475 
L 490.344172 427.59475 
L 490.344172 422.784338 
L 475.962729 422.784338 
z
" clip-path="url(#p42bc90a033)" style="fill: #1f77b4; fill-opacity: 0.75; stroke: #000000; stroke-width: 0.8; stroke-linejoin: miter"/>
   </g>
   <g id="patch_75">
    <path d="M 490.344172 427.59475 
L 504.725615 427.59475 
L 504.725615 425.724034 
L 490.344172 425.724034 
z
" clip-path="url(#p42bc90a033)" style="fill: #1f77b4; fill-opacity: 0.75; stroke: #000000; stroke-width: 0.8; stroke-linejoin: miter"/>
   </g>
   <g id="patch_76">
    <path d="M 504.725615 427.59475 
L 519.107059 427.59475 
L 519.107059 424.387809 
L 504.725615 424.387809 
z
" clip-path="url(#p42bc90a033)" style="fill: #1f77b4; fill-opacity: 0.75; stroke: #000000; stroke-width: 0.8; stroke-linejoin: miter"/>
   </g>
   <g id="patch_77">
    <path d="M 519.107059 427.59475 
L 533.488502 427.59475 
L 533.488502 425.724034 
L 519.107059 425.724034 
z
" clip-path="url(#p42bc90a033)" style="fill: #1f77b4; fill-opacity: 0.75; stroke: #000000; stroke-width: 0.8; stroke-linejoin: miter"/>
   </g>
   <g id="patch_78">
    <path d="M 533.488502 427.59475 
L 547.869945 427.59475 
L 547.869945 425.724034 
L 533.488502 425.724034 
z
" clip-path="url(#p42bc90a033)" style="fill: #1f77b4; fill-opacity: 0.75; stroke: #000000; stroke-width: 0.8; stroke-linejoin: miter"/>
   </g>
   <g id="patch_79">
    <path d="M 547.869945 427.59475 
L 562.251389 427.59475 
L 562.251389 426.793015 
L 547.869945 426.793015 
z
" clip-path="url(#p42bc90a033)" style="fill: #1f77b4; fill-opacity: 0.75; stroke: #000000; stroke-width: 0.8; stroke-linejoin: miter"/>
   </g>
   <g id="patch_80">
    <path d="M 562.251389 427.59475 
L 576.632832 427.59475 
L 576.632832 426.258524 
L 562.251389 426.258524 
z
" clip-path="url(#p42bc90a033)" style="fill: #1f77b4; fill-opacity: 0.75; stroke: #000000; stroke-width: 0.8; stroke-linejoin: miter"/>
   </g>
   <g id="patch_81">
    <path d="M 576.632832 427.59475 
L 591.014275 427.59475 
L 591.014275 426.793015 
L 576.632832 426.793015 
z
" clip-path="url(#p42bc90a033)" style="fill: #1f77b4; fill-opacity: 0.75; stroke: #000000; stroke-width: 0.8; stroke-linejoin: miter"/>
   </g>
   <g id="patch_82">
    <path d="M 591.014275 427.59475 
L 605.395718 427.59475 
L 605.395718 426.793015 
L 591.014275 426.793015 
z
" clip-path="url(#p42bc90a033)" style="fill: #1f77b4; fill-opacity: 0.75; stroke: #000000; stroke-width: 0.8; stroke-linejoin: miter"/>
   </g>
   <g id="patch_83">
    <path d="M 605.395718 427.59475 
L 619.777162 427.59475 
L 619.777162 427.06026 
L 605.395718 427.06026 
z
" clip-path="url(#p42bc90a033)" style="fill: #1f77b4; fill-opacity: 0.75; stroke: #000000; stroke-width: 0.8; stroke-linejoin: miter"/>
   </g>
   <g id="patch_84">
    <path d="M 619.777162 427.59475 
L 634.158605 427.59475 
L 634.158605 427.06026 
L 619.777162 427.06026 
z
" clip-path="url(#p42bc90a033)" style="fill: #1f77b4; fill-opacity: 0.75; stroke: #000000; stroke-width: 0.8; stroke-linejoin: miter"/>
   </g>
   <g id="patch_85">
    <path d="M 634.158605 427.59475 
L 648.540048 427.59475 
L 648.540048 427.06026 
L 634.158605 427.06026 
z
" clip-path="url(#p42bc90a033)" style="fill: #1f77b4; fill-opacity: 0.75; stroke: #000000; stroke-width: 0.8; stroke-linejoin: miter"/>
   </g>
   <g id="patch_86">
    <path d="M 648.540048 427.59475 
L 662.921492 427.59475 
L 662.921492 427.327505 
L 648.540048 427.327505 
z
" clip-path="url(#p42bc90a033)" style="fill: #1f77b4; fill-opacity: 0.75; stroke: #000000; stroke-width: 0.8; stroke-linejoin: miter"/>
   </g>
   <g id="patch_87">
    <path d="M 662.921492 427.59475 
L 677.302935 427.59475 
L 677.302935 427.327505 
L 662.921492 427.327505 
z
" clip-path="url(#p42bc90a033)" style="fill: #1f77b4; fill-opacity: 0.75; stroke: #000000; stroke-width: 0.8; stroke-linejoin: miter"/>
   </g>
   <g id="patch_88">
    <path d="M 677.302935 427.59475 
L 691.684378 427.59475 
L 691.684378 427.59475 
L 677.302935 427.59475 
z
" clip-path="url(#p42bc90a033)" style="fill: #1f77b4; fill-opacity: 0.75; stroke: #000000; stroke-width: 0.8; stroke-linejoin: miter"/>
   </g>
   <g id="patch_89">
    <path d="M 691.684378 427.59475 
L 706.065822 427.59475 
L 706.065822 426.793015 
L 691.684378 426.793015 
z
" clip-path="url(#p42bc90a033)" style="fill: #1f77b4; fill-opacity: 0.75; stroke: #000000; stroke-width: 0.8; stroke-linejoin: miter"/>
   </g>
   <g id="patch_90">
    <path d="M 706.065822 427.59475 
L 720.447265 427.59475 
L 720.447265 427.59475 
L 706.065822 427.59475 
z
" clip-path="url(#p42bc90a033)" style="fill: #1f77b4; fill-opacity: 0.75; stroke: #000000; stroke-width: 0.8; stroke-linejoin: miter"/>
   </g>
   <g id="patch_91">
    <path d="M 720.447265 427.59475 
L 734.828708 427.59475 
L 734.828708 427.327505 
L 720.447265 427.327505 
z
" clip-path="url(#p42bc90a033)" style="fill: #1f77b4; fill-opacity: 0.75; stroke: #000000; stroke-width: 0.8; stroke-linejoin: miter"/>
   </g>
   <g id="patch_92">
    <path d="M 734.828708 427.59475 
L 749.210151 427.59475 
L 749.210151 427.59475 
L 734.828708 427.59475 
z
" clip-path="url(#p42bc90a033)" style="fill: #1f77b4; fill-opacity: 0.75; stroke: #000000; stroke-width: 0.8; stroke-linejoin: miter"/>
   </g>
   <g id="patch_93">
    <path d="M 749.210151 427.59475 
L 763.591595 427.59475 
L 763.591595 427.59475 
L 749.210151 427.59475 
z
" clip-path="url(#p42bc90a033)" style="fill: #1f77b4; fill-opacity: 0.75; stroke: #000000; stroke-width: 0.8; stroke-linejoin: miter"/>
   </g>
   <g id="patch_94">
    <path d="M 763.591595 427.59475 
L 777.973038 427.59475 
L 777.973038 427.59475 
L 763.591595 427.59475 
z
" clip-path="url(#p42bc90a033)" style="fill: #1f77b4; fill-opacity: 0.75; stroke: #000000; stroke-width: 0.8; stroke-linejoin: miter"/>
   </g>
   <g id="patch_95">
    <path d="M 777.973038 427.59475 
L 792.354481 427.59475 
L 792.354481 427.59475 
L 777.973038 427.59475 
z
" clip-path="url(#p42bc90a033)" style="fill: #1f77b4; fill-opacity: 0.75; stroke: #000000; stroke-width: 0.8; stroke-linejoin: miter"/>
   </g>
   <g id="patch_96">
    <path d="M 792.354481 427.59475 
L 806.735925 427.59475 
L 806.735925 427.59475 
L 792.354481 427.59475 
z
" clip-path="url(#p42bc90a033)" style="fill: #1f77b4; fill-opacity: 0.75; stroke: #000000; stroke-width: 0.8; stroke-linejoin: miter"/>
   </g>
   <g id="patch_97">
    <path d="M 806.735925 427.59475 
L 821.117368 427.59475 
L 821.117368 427.59475 
L 806.735925 427.59475 
z
" clip-path="url(#p42bc90a033)" style="fill: #1f77b4; fill-opacity: 0.75; stroke: #000000; stroke-width: 0.8; stroke-linejoin: miter"/>
   </g>
   <g id="patch_98">
    <path d="M 821.117368 427.59475 
L 835.498811 427.59475 
L 835.498811 427.59475 
L 821.117368 427.59475 
z
" clip-path="url(#p42bc90a033)" style="fill: #1f77b4; fill-opacity: 0.75; stroke: #000000; stroke-width: 0.8; stroke-linejoin: miter"/>
   </g>
   <g id="patch_99">
    <path d="M 835.498811 427.59475 
L 849.880255 427.59475 
L 849.880255 427.327505 
L 835.498811 427.327505 
z
" clip-path="url(#p42bc90a033)" style="fill: #1f77b4; fill-opacity: 0.75; stroke: #000000; stroke-width: 0.8; stroke-linejoin: miter"/>
   </g>
   <g id="patch_100">
    <path d="M 849.880255 427.59475 
L 864.261698 427.59475 
L 864.261698 427.59475 
L 849.880255 427.59475 
z
" clip-path="url(#p42bc90a033)" style="fill: #1f77b4; fill-opacity: 0.75; stroke: #000000; stroke-width: 0.8; stroke-linejoin: miter"/>
   </g>
   <g id="patch_101">
    <path d="M 864.261698 427.59475 
L 878.643141 427.59475 
L 878.643141 427.59475 
L 864.261698 427.59475 
z
" clip-path="url(#p42bc90a033)" style="fill: #1f77b4; fill-opacity: 0.75; stroke: #000000; stroke-width: 0.8; stroke-linejoin: miter"/>
   </g>
   <g id="patch_102">
    <path d="M 878.643141 427.59475 
L 893.024584 427.59475 
L 893.024584 427.59475 
L 878.643141 427.59475 
z
" clip-path="url(#p42bc90a033)" style="fill: #1f77b4; fill-opacity: 0.75; stroke: #000000; stroke-width: 0.8; stroke-linejoin: miter"/>
   </g>
   <g id="patch_103">
    <path d="M 893.024584 427.59475 
L 907.406028 427.59475 
L 907.406028 427.59475 
L 893.024584 427.59475 
z
" clip-path="url(#p42bc90a033)" style="fill: #1f77b4; fill-opacity: 0.75; stroke: #000000; stroke-width: 0.8; stroke-linejoin: miter"/>
   </g>
   <g id="patch_104">
    <path d="M 907.406028 427.59475 
L 921.787471 427.59475 
L 921.787471 426.793015 
L 907.406028 426.793015 
z
" clip-path="url(#p42bc90a033)" style="fill: #1f77b4; fill-opacity: 0.75; stroke: #000000; stroke-width: 0.8; stroke-linejoin: miter"/>
   </g>
   <g id="patch_105">
    <path d="M 921.787471 427.59475 
L 936.168914 427.59475 
L 936.168914 427.59475 
L 921.787471 427.59475 
z
" clip-path="url(#p42bc90a033)" style="fill: #1f77b4; fill-opacity: 0.75; stroke: #000000; stroke-width: 0.8; stroke-linejoin: miter"/>
   </g>
   <g id="patch_106">
    <path d="M 936.168914 427.59475 
L 950.550358 427.59475 
L 950.550358 427.59475 
L 936.168914 427.59475 
z
" clip-path="url(#p42bc90a033)" style="fill: #1f77b4; fill-opacity: 0.75; stroke: #000000; stroke-width: 0.8; stroke-linejoin: miter"/>
   </g>
   <g id="patch_107">
    <path d="M 950.550358 427.59475 
L 964.931801 427.59475 
L 964.931801 427.327505 
L 950.550358 427.327505 
z
" clip-path="url(#p42bc90a033)" style="fill: #1f77b4; fill-opacity: 0.75; stroke: #000000; stroke-width: 0.8; stroke-linejoin: miter"/>
   </g>
   <g id="patch_108">
    <path d="M 964.931801 427.59475 
L 979.313244 427.59475 
L 979.313244 427.59475 
L 964.931801 427.59475 
z
" clip-path="url(#p42bc90a033)" style="fill: #1f77b4; fill-opacity: 0.75; stroke: #000000; stroke-width: 0.8; stroke-linejoin: miter"/>
   </g>
   <g id="patch_109">
    <path d="M 979.313244 427.59475 
L 993.694688 427.59475 
L 993.694688 427.59475 
L 979.313244 427.59475 
z
" clip-path="url(#p42bc90a033)" style="fill: #1f77b4; fill-opacity: 0.75; stroke: #000000; stroke-width: 0.8; stroke-linejoin: miter"/>
   </g>
   <g id="patch_110">
    <path d="M 993.694688 427.59475 
L 1008.076131 427.59475 
L 1008.076131 427.59475 
L 993.694688 427.59475 
z
" clip-path="url(#p42bc90a033)" style="fill: #1f77b4; fill-opacity: 0.75; stroke: #000000; stroke-width: 0.8; stroke-linejoin: miter"/>
   </g>
   <g id="patch_111">
    <path d="M 1008.076131 427.59475 
L 1022.457574 427.59475 
L 1022.457574 427.59475 
L 1008.076131 427.59475 
z
" clip-path="url(#p42bc90a033)" style="fill: #1f77b4; fill-opacity: 0.75; stroke: #000000; stroke-width: 0.8; stroke-linejoin: miter"/>
   </g>
   <g id="patch_112">
    <path d="M 1022.457574 427.59475 
L 1036.839017 427.59475 
L 1036.839017 427.59475 
L 1022.457574 427.59475 
z
" clip-path="url(#p42bc90a033)" style="fill: #1f77b4; fill-opacity: 0.75; stroke: #000000; stroke-width: 0.8; stroke-linejoin: miter"/>
   </g>
   <g id="patch_113">
    <path d="M 1036.839017 427.59475 
L 1051.220461 427.59475 
L 1051.220461 427.59475 
L 1036.839017 427.59475 
z
" clip-path="url(#p42bc90a033)" style="fill: #1f77b4; fill-opacity: 0.75; stroke: #000000; stroke-width: 0.8; stroke-linejoin: miter"/>
   </g>
   <g id="patch_114">
    <path d="M 1051.220461 427.59475 
L 1065.601904 427.59475 
L 1065.601904 427.59475 
L 1051.220461 427.59475 
z
" clip-path="url(#p42bc90a033)" style="fill: #1f77b4; fill-opacity: 0.75; stroke: #000000; stroke-width: 0.8; stroke-linejoin: miter"/>
   </g>
   <g id="patch_115">
    <path d="M 1065.601904 427.59475 
L 1079.983347 427.59475 
L 1079.983347 427.59475 
L 1065.601904 427.59475 
z
" clip-path="url(#p42bc90a033)" style="fill: #1f77b4; fill-opacity: 0.75; stroke: #000000; stroke-width: 0.8; stroke-linejoin: miter"/>
   </g>
   <g id="patch_116">
    <path d="M 1079.983347 427.59475 
L 1094.364791 427.59475 
L 1094.364791 427.59475 
L 1079.983347 427.59475 
z
" clip-path="url(#p42bc90a033)" style="fill: #1f77b4; fill-opacity: 0.75; stroke: #000000; stroke-width: 0.8; stroke-linejoin: miter"/>
   </g>
   <g id="patch_117">
    <path d="M 1094.364791 427.59475 
L 1108.746234 427.59475 
L 1108.746234 427.59475 
L 1094.364791 427.59475 
z
" clip-path="url(#p42bc90a033)" style="fill: #1f77b4; fill-opacity: 0.75; stroke: #000000; stroke-width: 0.8; stroke-linejoin: miter"/>
   </g>
   <g id="patch_118">
    <path d="M 1108.746234 427.59475 
L 1123.127677 427.59475 
L 1123.127677 427.59475 
L 1108.746234 427.59475 
z
" clip-path="url(#p42bc90a033)" style="fill: #1f77b4; fill-opacity: 0.75; stroke: #000000; stroke-width: 0.8; stroke-linejoin: miter"/>
   </g>
   <g id="patch_119">
    <path d="M 1123.127677 427.59475 
L 1137.50912 427.59475 
L 1137.50912 427.59475 
L 1123.127677 427.59475 
z
" clip-path="url(#p42bc90a033)" style="fill: #1f77b4; fill-opacity: 0.75; stroke: #000000; stroke-width: 0.8; stroke-linejoin: miter"/>
   </g>
   <g id="patch_120">
    <path d="M 1137.50912 427.59475 
L 1151.890564 427.59475 
L 1151.890564 427.59475 
L 1137.50912 427.59475 
z
" clip-path="url(#p42bc90a033)" style="fill: #1f77b4; fill-opacity: 0.75; stroke: #000000; stroke-width: 0.8; stroke-linejoin: miter"/>
   </g>
   <g id="patch_121">
    <path d="M 1151.890564 427.59475 
L 1166.272007 427.59475 
L 1166.272007 427.59475 
L 1151.890564 427.59475 
z
" clip-path="url(#p42bc90a033)" style="fill: #1f77b4; fill-opacity: 0.75; stroke: #000000; stroke-width: 0.8; stroke-linejoin: miter"/>
   </g>
   <g id="patch_122">
    <path d="M 1166.272007 427.59475 
L 1180.65345 427.59475 
L 1180.65345 427.59475 
L 1166.272007 427.59475 
z
" clip-path="url(#p42bc90a033)" style="fill: #1f77b4; fill-opacity: 0.75; stroke: #000000; stroke-width: 0.8; stroke-linejoin: miter"/>
   </g>
   <g id="patch_123">
    <path d="M 1180.65345 427.59475 
L 1195.034894 427.59475 
L 1195.034894 427.59475 
L 1180.65345 427.59475 
z
" clip-path="url(#p42bc90a033)" style="fill: #1f77b4; fill-opacity: 0.75; stroke: #000000; stroke-width: 0.8; stroke-linejoin: miter"/>
   </g>
   <g id="patch_124">
    <path d="M 1195.034894 427.59475 
L 1209.416337 427.59475 
L 1209.416337 427.59475 
L 1195.034894 427.59475 
z
" clip-path="url(#p42bc90a033)" style="fill: #1f77b4; fill-opacity: 0.75; stroke: #000000; stroke-width: 0.8; stroke-linejoin: miter"/>
   </g>
   <g id="patch_125">
    <path d="M 1209.416337 427.59475 
L 1223.79778 427.59475 
L 1223.79778 427.59475 
L 1209.416337 427.59475 
z
" clip-path="url(#p42bc90a033)" style="fill: #1f77b4; fill-opacity: 0.75; stroke: #000000; stroke-width: 0.8; stroke-linejoin: miter"/>
   </g>
   <g id="patch_126">
    <path d="M 1223.79778 427.59475 
L 1238.179224 427.59475 
L 1238.179224 427.59475 
L 1223.79778 427.59475 
z
" clip-path="url(#p42bc90a033)" style="fill: #1f77b4; fill-opacity: 0.75; stroke: #000000; stroke-width: 0.8; stroke-linejoin: miter"/>
   </g>
   <g id="patch_127">
    <path d="M 1238.179224 427.59475 
L 1252.560667 427.59475 
L 1252.560667 427.59475 
L 1238.179224 427.59475 
z
" clip-path="url(#p42bc90a033)" style="fill: #1f77b4; fill-opacity: 0.75; stroke: #000000; stroke-width: 0.8; stroke-linejoin: miter"/>
   </g>
   <g id="patch_128">
    <path d="M 1252.560667 427.59475 
L 1266.94211 427.59475 
L 1266.94211 427.59475 
L 1252.560667 427.59475 
z
" clip-path="url(#p42bc90a033)" style="fill: #1f77b4; fill-opacity: 0.75; stroke: #000000; stroke-width: 0.8; stroke-linejoin: miter"/>
   </g>
   <g id="patch_129">
    <path d="M 1266.94211 427.59475 
L 1281.323553 427.59475 
L 1281.323553 427.59475 
L 1266.94211 427.59475 
z
" clip-path="url(#p42bc90a033)" style="fill: #1f77b4; fill-opacity: 0.75; stroke: #000000; stroke-width: 0.8; stroke-linejoin: miter"/>
   </g>
   <g id="patch_130">
    <path d="M 1281.323553 427.59475 
L 1295.704997 427.59475 
L 1295.704997 427.59475 
L 1281.323553 427.59475 
z
" clip-path="url(#p42bc90a033)" style="fill: #1f77b4; fill-opacity: 0.75; stroke: #000000; stroke-width: 0.8; stroke-linejoin: miter"/>
   </g>
   <g id="patch_131">
    <path d="M 1295.704997 427.59475 
L 1310.08644 427.59475 
L 1310.08644 427.59475 
L 1295.704997 427.59475 
z
" clip-path="url(#p42bc90a033)" style="fill: #1f77b4; fill-opacity: 0.75; stroke: #000000; stroke-width: 0.8; stroke-linejoin: miter"/>
   </g>
   <g id="patch_132">
    <path d="M 1310.08644 427.59475 
L 1324.467883 427.59475 
L 1324.467883 427.59475 
L 1310.08644 427.59475 
z
" clip-path="url(#p42bc90a033)" style="fill: #1f77b4; fill-opacity: 0.75; stroke: #000000; stroke-width: 0.8; stroke-linejoin: miter"/>
   </g>
   <g id="patch_133">
    <path d="M 1324.467883 427.59475 
L 1338.849327 427.59475 
L 1338.849327 427.59475 
L 1324.467883 427.59475 
z
" clip-path="url(#p42bc90a033)" style="fill: #1f77b4; fill-opacity: 0.75; stroke: #000000; stroke-width: 0.8; stroke-linejoin: miter"/>
   </g>
   <g id="patch_134">
    <path d="M 1338.849327 427.59475 
L 1353.23077 427.59475 
L 1353.23077 427.59475 
L 1338.849327 427.59475 
z
" clip-path="url(#p42bc90a033)" style="fill: #1f77b4; fill-opacity: 0.75; stroke: #000000; stroke-width: 0.8; stroke-linejoin: miter"/>
   </g>
   <g id="patch_135">
    <path d="M 1353.23077 427.59475 
L 1367.612213 427.59475 
L 1367.612213 427.59475 
L 1353.23077 427.59475 
z
" clip-path="url(#p42bc90a033)" style="fill: #1f77b4; fill-opacity: 0.75; stroke: #000000; stroke-width: 0.8; stroke-linejoin: miter"/>
   </g>
   <g id="patch_136">
    <path d="M 1367.612213 427.59475 
L 1381.993657 427.59475 
L 1381.993657 427.59475 
L 1367.612213 427.59475 
z
" clip-path="url(#p42bc90a033)" style="fill: #1f77b4; fill-opacity: 0.75; stroke: #000000; stroke-width: 0.8; stroke-linejoin: miter"/>
   </g>
   <g id="patch_137">
    <path d="M 1381.993657 427.59475 
L 1396.3751 427.59475 
L 1396.3751 427.59475 
L 1381.993657 427.59475 
z
" clip-path="url(#p42bc90a033)" style="fill: #1f77b4; fill-opacity: 0.75; stroke: #000000; stroke-width: 0.8; stroke-linejoin: miter"/>
   </g>
   <g id="patch_138">
    <path d="M 1396.3751 427.59475 
L 1410.756543 427.59475 
L 1410.756543 427.59475 
L 1396.3751 427.59475 
z
" clip-path="url(#p42bc90a033)" style="fill: #1f77b4; fill-opacity: 0.75; stroke: #000000; stroke-width: 0.8; stroke-linejoin: miter"/>
   </g>
   <g id="patch_139">
    <path d="M 1410.756543 427.59475 
L 1425.137986 427.59475 
L 1425.137986 427.59475 
L 1410.756543 427.59475 
z
" clip-path="url(#p42bc90a033)" style="fill: #1f77b4; fill-opacity: 0.75; stroke: #000000; stroke-width: 0.8; stroke-linejoin: miter"/>
   </g>
   <g id="patch_140">
    <path d="M 1425.137986 427.59475 
L 1439.51943 427.59475 
L 1439.51943 427.59475 
L 1425.137986 427.59475 
z
" clip-path="url(#p42bc90a033)" style="fill: #1f77b4; fill-opacity: 0.75; stroke: #000000; stroke-width: 0.8; stroke-linejoin: miter"/>
   </g>
   <g id="patch_141">
    <path d="M 1439.51943 427.59475 
L 1453.900873 427.59475 
L 1453.900873 427.59475 
L 1439.51943 427.59475 
z
" clip-path="url(#p42bc90a033)" style="fill: #1f77b4; fill-opacity: 0.75; stroke: #000000; stroke-width: 0.8; stroke-linejoin: miter"/>
   </g>
   <g id="patch_142">
    <path d="M 1453.900873 427.59475 
L 1468.282316 427.59475 
L 1468.282316 427.59475 
L 1453.900873 427.59475 
z
" clip-path="url(#p42bc90a033)" style="fill: #1f77b4; fill-opacity: 0.75; stroke: #000000; stroke-width: 0.8; stroke-linejoin: miter"/>
   </g>
   <g id="patch_143">
    <path d="M 1468.282316 427.59475 
L 1482.66376 427.59475 
L 1482.66376 427.59475 
L 1468.282316 427.59475 
z
" clip-path="url(#p42bc90a033)" style="fill: #1f77b4; fill-opacity: 0.75; stroke: #000000; stroke-width: 0.8; stroke-linejoin: miter"/>
   </g>
   <g id="patch_144">
    <path d="M 1482.66376 427.59475 
L 1497.045203 427.59475 
L 1497.045203 427.59475 
L 1482.66376 427.59475 
z
" clip-path="url(#p42bc90a033)" style="fill: #1f77b4; fill-opacity: 0.75; stroke: #000000; stroke-width: 0.8; stroke-linejoin: miter"/>
   </g>
   <g id="patch_145">
    <path d="M 1497.045203 427.59475 
L 1511.426646 427.59475 
L 1511.426646 427.59475 
L 1497.045203 427.59475 
z
" clip-path="url(#p42bc90a033)" style="fill: #1f77b4; fill-opacity: 0.75; stroke: #000000; stroke-width: 0.8; stroke-linejoin: miter"/>
   </g>
   <g id="patch_146">
    <path d="M 1511.426646 427.59475 
L 1525.80809 427.59475 
L 1525.80809 427.59475 
L 1511.426646 427.59475 
z
" clip-path="url(#p42bc90a033)" style="fill: #1f77b4; fill-opacity: 0.75; stroke: #000000; stroke-width: 0.8; stroke-linejoin: miter"/>
   </g>
   <g id="patch_147">
    <path d="M 1525.80809 427.59475 
L 1540.189533 427.59475 
L 1540.189533 427.59475 
L 1525.80809 427.59475 
z
" clip-path="url(#p42bc90a033)" style="fill: #1f77b4; fill-opacity: 0.75; stroke: #000000; stroke-width: 0.8; stroke-linejoin: miter"/>
   </g>
   <g id="patch_148">
    <path d="M 1540.189533 427.59475 
L 1554.570976 427.59475 
L 1554.570976 427.59475 
L 1540.189533 427.59475 
z
" clip-path="url(#p42bc90a033)" style="fill: #1f77b4; fill-opacity: 0.75; stroke: #000000; stroke-width: 0.8; stroke-linejoin: miter"/>
   </g>
   <g id="patch_149">
    <path d="M 1554.570976 427.59475 
L 1568.952419 427.59475 
L 1568.952419 427.59475 
L 1554.570976 427.59475 
z
" clip-path="url(#p42bc90a033)" style="fill: #1f77b4; fill-opacity: 0.75; stroke: #000000; stroke-width: 0.8; stroke-linejoin: miter"/>
   </g>
   <g id="patch_150">
    <path d="M 1568.952419 427.59475 
L 1583.333863 427.59475 
L 1583.333863 427.59475 
L 1568.952419 427.59475 
z
" clip-path="url(#p42bc90a033)" style="fill: #1f77b4; fill-opacity: 0.75; stroke: #000000; stroke-width: 0.8; stroke-linejoin: miter"/>
   </g>
   <g id="patch_151">
    <path d="M 1583.333863 427.59475 
L 1597.715306 427.59475 
L 1597.715306 427.59475 
L 1583.333863 427.59475 
z
" clip-path="url(#p42bc90a033)" style="fill: #1f77b4; fill-opacity: 0.75; stroke: #000000; stroke-width: 0.8; stroke-linejoin: miter"/>
   </g>
   <g id="patch_152">
    <path d="M 1597.715306 427.59475 
L 1612.096749 427.59475 
L 1612.096749 427.59475 
L 1597.715306 427.59475 
z
" clip-path="url(#p42bc90a033)" style="fill: #1f77b4; fill-opacity: 0.75; stroke: #000000; stroke-width: 0.8; stroke-linejoin: miter"/>
   </g>
   <g id="patch_153">
    <path d="M 1612.096749 427.59475 
L 1626.478193 427.59475 
L 1626.478193 427.327505 
L 1612.096749 427.327505 
z
" clip-path="url(#p42bc90a033)" style="fill: #1f77b4; fill-opacity: 0.75; stroke: #000000; stroke-width: 0.8; stroke-linejoin: miter"/>
   </g>
   <g id="matplotlib.axis_1">
    <g id="xtick_1">
     <g id="line2d_1">
      <defs>
       <path id="m0a61fc56dd" d="M 0 0 
L 0 4.8 
" style="stroke: #000000"/>
      </defs>
      <g>
       <use xlink:href="#m0a61fc56dd" x="80.473038" y="427.59475" style="stroke: #000000"/>
      </g>
     </g>
     <g id="text_1">
      <!-- -15 -->
      <g transform="translate(70.673351 445.012875)scale(0.12 -0.12)">
       <defs>
        <path id="DejaVuSans-2d" d="M 313 2009 
L 1997 2009 
L 1997 1497 
L 313 1497 
L 313 2009 
z
" transform="scale(0.015625)"/>
        <path id="DejaVuSans-31" d="M 794 531 
L 1825 531 
L 1825 4091 
L 703 3866 
L 703 4441 
L 1819 4666 
L 2450 4666 
L 2450 531 
L 3481 531 
L 3481 0 
L 794 0 
L 794 531 
z
" transform="scale(0.015625)"/>
        <path id="DejaVuSans-35" d="M 691 4666 
L 3169 4666 
L 3169 4134 
L 1269 4134 
L 1269 2991 
Q 1406 3038 1543 3061 
Q 1681 3084 1819 3084 
Q 2600 3084 3056 2656 
Q 3513 2228 3513 1497 
Q 3513 744 3044 326 
Q 2575 -91 1722 -91 
Q 1428 -91 1123 -41 
Q 819 9 494 109 
L 494 744 
Q 775 591 1075 516 
Q 1375 441 1709 441 
Q 2250 441 2565 725 
Q 2881 1009 2881 1497 
Q 2881 1984 2565 2268 
Q 2250 2553 1709 2553 
Q 1456 2553 1204 2497 
Q 953 2441 691 2322 
L 691 4666 
z
" transform="scale(0.015625)"/>
       </defs>
       <use xlink:href="#DejaVuSans-2d"/>
       <use xlink:href="#DejaVuSans-31" x="36.083984"/>
       <use xlink:href="#DejaVuSans-35" x="99.707031"/>
      </g>
     </g>
    </g>
    <g id="xtick_2">
     <g id="line2d_2">
      <g>
       <use xlink:href="#m0a61fc56dd" x="109.235925" y="427.59475" style="stroke: #000000"/>
      </g>
     </g>
     <g id="text_2">
      <!-- -13 -->
      <g transform="translate(99.436237 445.012875)scale(0.12 -0.12)">
       <defs>
        <path id="DejaVuSans-33" d="M 2597 2516 
Q 3050 2419 3304 2112 
Q 3559 1806 3559 1356 
Q 3559 666 3084 287 
Q 2609 -91 1734 -91 
Q 1441 -91 1130 -33 
Q 819 25 488 141 
L 488 750 
Q 750 597 1062 519 
Q 1375 441 1716 441 
Q 2309 441 2620 675 
Q 2931 909 2931 1356 
Q 2931 1769 2642 2001 
Q 2353 2234 1838 2234 
L 1294 2234 
L 1294 2753 
L 1863 2753 
Q 2328 2753 2575 2939 
Q 2822 3125 2822 3475 
Q 2822 3834 2567 4026 
Q 2313 4219 1838 4219 
Q 1578 4219 1281 4162 
Q 984 4106 628 3988 
L 628 4550 
Q 988 4650 1302 4700 
Q 1616 4750 1894 4750 
Q 2613 4750 3031 4423 
Q 3450 4097 3450 3541 
Q 3450 3153 3228 2886 
Q 3006 2619 2597 2516 
z
" transform="scale(0.015625)"/>
       </defs>
       <use xlink:href="#DejaVuSans-2d"/>
       <use xlink:href="#DejaVuSans-31" x="36.083984"/>
       <use xlink:href="#DejaVuSans-33" x="99.707031"/>
      </g>
     </g>
    </g>
    <g id="xtick_3">
     <g id="line2d_3">
      <g>
       <use xlink:href="#m0a61fc56dd" x="137.998811" y="427.59475" style="stroke: #000000"/>
      </g>
     </g>
     <g id="text_3">
      <!-- -11 -->
      <g transform="translate(128.199124 445.012875)scale(0.12 -0.12)">
       <use xlink:href="#DejaVuSans-2d"/>
       <use xlink:href="#DejaVuSans-31" x="36.083984"/>
       <use xlink:href="#DejaVuSans-31" x="99.707031"/>
      </g>
     </g>
    </g>
    <g id="xtick_4">
     <g id="line2d_4">
      <g>
       <use xlink:href="#m0a61fc56dd" x="166.761698" y="427.59475" style="stroke: #000000"/>
      </g>
     </g>
     <g id="text_4">
      <!-- -9 -->
      <g transform="translate(160.77951 445.012875)scale(0.12 -0.12)">
       <defs>
        <path id="DejaVuSans-39" d="M 703 97 
L 703 672 
Q 941 559 1184 500 
Q 1428 441 1663 441 
Q 2288 441 2617 861 
Q 2947 1281 2994 2138 
Q 2813 1869 2534 1725 
Q 2256 1581 1919 1581 
Q 1219 1581 811 2004 
Q 403 2428 403 3163 
Q 403 3881 828 4315 
Q 1253 4750 1959 4750 
Q 2769 4750 3195 4129 
Q 3622 3509 3622 2328 
Q 3622 1225 3098 567 
Q 2575 -91 1691 -91 
Q 1453 -91 1209 -44 
Q 966 3 703 97 
z
M 1959 2075 
Q 2384 2075 2632 2365 
Q 2881 2656 2881 3163 
Q 2881 3666 2632 3958 
Q 2384 4250 1959 4250 
Q 1534 4250 1286 3958 
Q 1038 3666 1038 3163 
Q 1038 2656 1286 2365 
Q 1534 2075 1959 2075 
z
" transform="scale(0.015625)"/>
       </defs>
       <use xlink:href="#DejaVuSans-2d"/>
       <use xlink:href="#DejaVuSans-39" x="36.083984"/>
      </g>
     </g>
    </g>
    <g id="xtick_5">
     <g id="line2d_5">
      <g>
       <use xlink:href="#m0a61fc56dd" x="195.524584" y="427.59475" style="stroke: #000000"/>
      </g>
     </g>
     <g id="text_5">
      <!-- -7 -->
      <g transform="translate(189.542397 445.012875)scale(0.12 -0.12)">
       <defs>
        <path id="DejaVuSans-37" d="M 525 4666 
L 3525 4666 
L 3525 4397 
L 1831 0 
L 1172 0 
L 2766 4134 
L 525 4134 
L 525 4666 
z
" transform="scale(0.015625)"/>
       </defs>
       <use xlink:href="#DejaVuSans-2d"/>
       <use xlink:href="#DejaVuSans-37" x="36.083984"/>
      </g>
     </g>
    </g>
    <g id="xtick_6">
     <g id="line2d_6">
      <g>
       <use xlink:href="#m0a61fc56dd" x="224.287471" y="427.59475" style="stroke: #000000"/>
      </g>
     </g>
     <g id="text_6">
      <!-- -5 -->
      <g transform="translate(218.305284 445.012875)scale(0.12 -0.12)">
       <use xlink:href="#DejaVuSans-2d"/>
       <use xlink:href="#DejaVuSans-35" x="36.083984"/>
      </g>
     </g>
    </g>
    <g id="xtick_7">
     <g id="line2d_7">
      <g>
       <use xlink:href="#m0a61fc56dd" x="253.050358" y="427.59475" style="stroke: #000000"/>
      </g>
     </g>
     <g id="text_7">
      <!-- -3 -->
      <g transform="translate(247.06817 445.012875)scale(0.12 -0.12)">
       <use xlink:href="#DejaVuSans-2d"/>
       <use xlink:href="#DejaVuSans-33" x="36.083984"/>
      </g>
     </g>
    </g>
    <g id="xtick_8">
     <g id="line2d_8">
      <g>
       <use xlink:href="#m0a61fc56dd" x="281.813244" y="427.59475" style="stroke: #000000"/>
      </g>
     </g>
     <g id="text_8">
      <!-- -1 -->
      <g transform="translate(275.831057 445.012875)scale(0.12 -0.12)">
       <use xlink:href="#DejaVuSans-2d"/>
       <use xlink:href="#DejaVuSans-31" x="36.083984"/>
      </g>
     </g>
    </g>
    <g id="xtick_9">
     <g id="line2d_9">
      <g>
       <use xlink:href="#m0a61fc56dd" x="310.576131" y="427.59475" style="stroke: #000000"/>
      </g>
     </g>
     <g id="text_9">
      <!-- +1 -->
      <g transform="translate(301.730818 445.012875)scale(0.12 -0.12)">
       <defs>
        <path id="DejaVuSans-2b" d="M 2944 4013 
L 2944 2272 
L 4684 2272 
L 4684 1741 
L 2944 1741 
L 2944 0 
L 2419 0 
L 2419 1741 
L 678 1741 
L 678 2272 
L 2419 2272 
L 2419 4013 
L 2944 4013 
z
" transform="scale(0.015625)"/>
       </defs>
       <use xlink:href="#DejaVuSans-2b"/>
       <use xlink:href="#DejaVuSans-31" x="83.789062"/>
      </g>
     </g>
    </g>
    <g id="xtick_10">
     <g id="line2d_10">
      <g>
       <use xlink:href="#m0a61fc56dd" x="339.339017" y="427.59475" style="stroke: #000000"/>
      </g>
     </g>
     <g id="text_10">
      <!-- +3 -->
      <g transform="translate(330.493705 445.012875)scale(0.12 -0.12)">
       <use xlink:href="#DejaVuSans-2b"/>
       <use xlink:href="#DejaVuSans-33" x="83.789062"/>
      </g>
     </g>
    </g>
    <g id="xtick_11">
     <g id="line2d_11">
      <g>
       <use xlink:href="#m0a61fc56dd" x="368.101904" y="427.59475" style="stroke: #000000"/>
      </g>
     </g>
     <g id="text_11">
      <!-- +5 -->
      <g transform="translate(359.256591 445.012875)scale(0.12 -0.12)">
       <use xlink:href="#DejaVuSans-2b"/>
       <use xlink:href="#DejaVuSans-35" x="83.789062"/>
      </g>
     </g>
    </g>
    <g id="xtick_12">
     <g id="line2d_12">
      <g>
       <use xlink:href="#m0a61fc56dd" x="396.864791" y="427.59475" style="stroke: #000000"/>
      </g>
     </g>
     <g id="text_12">
      <!-- +7 -->
      <g transform="translate(388.019478 445.012875)scale(0.12 -0.12)">
       <use xlink:href="#DejaVuSans-2b"/>
       <use xlink:href="#DejaVuSans-37" x="83.789062"/>
      </g>
     </g>
    </g>
    <g id="xtick_13">
     <g id="line2d_13">
      <g>
       <use xlink:href="#m0a61fc56dd" x="425.627677" y="427.59475" style="stroke: #000000"/>
      </g>
     </g>
     <g id="text_13">
      <!-- +9 -->
      <g transform="translate(416.782365 445.012875)scale(0.12 -0.12)">
       <use xlink:href="#DejaVuSans-2b"/>
       <use xlink:href="#DejaVuSans-39" x="83.789062"/>
      </g>
     </g>
    </g>
    <g id="xtick_14">
     <g id="line2d_14">
      <g>
       <use xlink:href="#m0a61fc56dd" x="454.390564" y="427.59475" style="stroke: #000000"/>
      </g>
     </g>
     <g id="text_14">
      <!-- +11 -->
      <g transform="translate(441.727751 445.012875)scale(0.12 -0.12)">
       <use xlink:href="#DejaVuSans-2b"/>
       <use xlink:href="#DejaVuSans-31" x="83.789062"/>
       <use xlink:href="#DejaVuSans-31" x="147.412109"/>
      </g>
     </g>
    </g>
    <g id="xtick_15">
     <g id="line2d_15">
      <g>
       <use xlink:href="#m0a61fc56dd" x="483.15345" y="427.59475" style="stroke: #000000"/>
      </g>
     </g>
     <g id="text_15">
      <!-- +13 -->
      <g transform="translate(470.490638 445.012875)scale(0.12 -0.12)">
       <use xlink:href="#DejaVuSans-2b"/>
       <use xlink:href="#DejaVuSans-31" x="83.789062"/>
       <use xlink:href="#DejaVuSans-33" x="147.412109"/>
      </g>
     </g>
    </g>
    <g id="xtick_16">
     <g id="line2d_16">
      <g>
       <use xlink:href="#m0a61fc56dd" x="511.916337" y="427.59475" style="stroke: #000000"/>
      </g>
     </g>
     <g id="text_16">
      <!-- +15 -->
      <g transform="translate(499.253524 445.012875)scale(0.12 -0.12)">
       <use xlink:href="#DejaVuSans-2b"/>
       <use xlink:href="#DejaVuSans-31" x="83.789062"/>
       <use xlink:href="#DejaVuSans-35" x="147.412109"/>
      </g>
     </g>
    </g>
    <g id="text_17">
     <!-- Allele Size (# of Repeats) -->
     <g transform="translate(207.326406 473.146312)scale(0.14 -0.14)">
      <defs>
       <path id="DejaVuSans-41" d="M 2188 4044 
L 1331 1722 
L 3047 1722 
L 2188 4044 
z
M 1831 4666 
L 2547 4666 
L 4325 0 
L 3669 0 
L 3244 1197 
L 1141 1197 
L 716 0 
L 50 0 
L 1831 4666 
z
" transform="scale(0.015625)"/>
       <path id="DejaVuSans-6c" d="M 603 4863 
L 1178 4863 
L 1178 0 
L 603 0 
L 603 4863 
z
" transform="scale(0.015625)"/>
       <path id="DejaVuSans-65" d="M 3597 1894 
L 3597 1613 
L 953 1613 
Q 991 1019 1311 708 
Q 1631 397 2203 397 
Q 2534 397 2845 478 
Q 3156 559 3463 722 
L 3463 178 
Q 3153 47 2828 -22 
Q 2503 -91 2169 -91 
Q 1331 -91 842 396 
Q 353 884 353 1716 
Q 353 2575 817 3079 
Q 1281 3584 2069 3584 
Q 2775 3584 3186 3129 
Q 3597 2675 3597 1894 
z
M 3022 2063 
Q 3016 2534 2758 2815 
Q 2500 3097 2075 3097 
Q 1594 3097 1305 2825 
Q 1016 2553 972 2059 
L 3022 2063 
z
" transform="scale(0.015625)"/>
       <path id="DejaVuSans-20" transform="scale(0.015625)"/>
       <path id="DejaVuSans-53" d="M 3425 4513 
L 3425 3897 
Q 3066 4069 2747 4153 
Q 2428 4238 2131 4238 
Q 1616 4238 1336 4038 
Q 1056 3838 1056 3469 
Q 1056 3159 1242 3001 
Q 1428 2844 1947 2747 
L 2328 2669 
Q 3034 2534 3370 2195 
Q 3706 1856 3706 1288 
Q 3706 609 3251 259 
Q 2797 -91 1919 -91 
Q 1588 -91 1214 -16 
Q 841 59 441 206 
L 441 856 
Q 825 641 1194 531 
Q 1563 422 1919 422 
Q 2459 422 2753 634 
Q 3047 847 3047 1241 
Q 3047 1584 2836 1778 
Q 2625 1972 2144 2069 
L 1759 2144 
Q 1053 2284 737 2584 
Q 422 2884 422 3419 
Q 422 4038 858 4394 
Q 1294 4750 2059 4750 
Q 2388 4750 2728 4690 
Q 3069 4631 3425 4513 
z
" transform="scale(0.015625)"/>
       <path id="DejaVuSans-69" d="M 603 3500 
L 1178 3500 
L 1178 0 
L 603 0 
L 603 3500 
z
M 603 4863 
L 1178 4863 
L 1178 4134 
L 603 4134 
L 603 4863 
z
" transform="scale(0.015625)"/>
       <path id="DejaVuSans-7a" d="M 353 3500 
L 3084 3500 
L 3084 2975 
L 922 459 
L 3084 459 
L 3084 0 
L 275 0 
L 275 525 
L 2438 3041 
L 353 3041 
L 353 3500 
z
" transform="scale(0.015625)"/>
       <path id="DejaVuSans-28" d="M 1984 4856 
Q 1566 4138 1362 3434 
Q 1159 2731 1159 2009 
Q 1159 1288 1364 580 
Q 1569 -128 1984 -844 
L 1484 -844 
Q 1016 -109 783 600 
Q 550 1309 550 2009 
Q 550 2706 781 3412 
Q 1013 4119 1484 4856 
L 1984 4856 
z
" transform="scale(0.015625)"/>
       <path id="DejaVuSans-23" d="M 3272 2816 
L 2363 2816 
L 2100 1772 
L 3016 1772 
L 3272 2816 
z
M 2803 4594 
L 2478 3297 
L 3391 3297 
L 3719 4594 
L 4219 4594 
L 3897 3297 
L 4872 3297 
L 4872 2816 
L 3775 2816 
L 3519 1772 
L 4513 1772 
L 4513 1294 
L 3397 1294 
L 3072 0 
L 2572 0 
L 2894 1294 
L 1978 1294 
L 1656 0 
L 1153 0 
L 1478 1294 
L 494 1294 
L 494 1772 
L 1594 1772 
L 1856 2816 
L 850 2816 
L 850 3297 
L 1978 3297 
L 2297 4594 
L 2803 4594 
z
" transform="scale(0.015625)"/>
       <path id="DejaVuSans-6f" d="M 1959 3097 
Q 1497 3097 1228 2736 
Q 959 2375 959 1747 
Q 959 1119 1226 758 
Q 1494 397 1959 397 
Q 2419 397 2687 759 
Q 2956 1122 2956 1747 
Q 2956 2369 2687 2733 
Q 2419 3097 1959 3097 
z
M 1959 3584 
Q 2709 3584 3137 3096 
Q 3566 2609 3566 1747 
Q 3566 888 3137 398 
Q 2709 -91 1959 -91 
Q 1206 -91 779 398 
Q 353 888 353 1747 
Q 353 2609 779 3096 
Q 1206 3584 1959 3584 
z
" transform="scale(0.015625)"/>
       <path id="DejaVuSans-66" d="M 2375 4863 
L 2375 4384 
L 1825 4384 
Q 1516 4384 1395 4259 
Q 1275 4134 1275 3809 
L 1275 3500 
L 2222 3500 
L 2222 3053 
L 1275 3053 
L 1275 0 
L 697 0 
L 697 3053 
L 147 3053 
L 147 3500 
L 697 3500 
L 697 3744 
Q 697 4328 969 4595 
Q 1241 4863 1831 4863 
L 2375 4863 
z
" transform="scale(0.015625)"/>
       <path id="DejaVuSans-52" d="M 2841 2188 
Q 3044 2119 3236 1894 
Q 3428 1669 3622 1275 
L 4263 0 
L 3584 0 
L 2988 1197 
Q 2756 1666 2539 1819 
Q 2322 1972 1947 1972 
L 1259 1972 
L 1259 0 
L 628 0 
L 628 4666 
L 2053 4666 
Q 2853 4666 3247 4331 
Q 3641 3997 3641 3322 
Q 3641 2881 3436 2590 
Q 3231 2300 2841 2188 
z
M 1259 4147 
L 1259 2491 
L 2053 2491 
Q 2509 2491 2742 2702 
Q 2975 2913 2975 3322 
Q 2975 3731 2742 3939 
Q 2509 4147 2053 4147 
L 1259 4147 
z
" transform="scale(0.015625)"/>
       <path id="DejaVuSans-70" d="M 1159 525 
L 1159 -1331 
L 581 -1331 
L 581 3500 
L 1159 3500 
L 1159 2969 
Q 1341 3281 1617 3432 
Q 1894 3584 2278 3584 
Q 2916 3584 3314 3078 
Q 3713 2572 3713 1747 
Q 3713 922 3314 415 
Q 2916 -91 2278 -91 
Q 1894 -91 1617 61 
Q 1341 213 1159 525 
z
M 3116 1747 
Q 3116 2381 2855 2742 
Q 2594 3103 2138 3103 
Q 1681 3103 1420 2742 
Q 1159 2381 1159 1747 
Q 1159 1113 1420 752 
Q 1681 391 2138 391 
Q 2594 391 2855 752 
Q 3116 1113 3116 1747 
z
" transform="scale(0.015625)"/>
       <path id="DejaVuSans-61" d="M 2194 1759 
Q 1497 1759 1228 1600 
Q 959 1441 959 1056 
Q 959 750 1161 570 
Q 1363 391 1709 391 
Q 2188 391 2477 730 
Q 2766 1069 2766 1631 
L 2766 1759 
L 2194 1759 
z
M 3341 1997 
L 3341 0 
L 2766 0 
L 2766 531 
Q 2569 213 2275 61 
Q 1981 -91 1556 -91 
Q 1019 -91 701 211 
Q 384 513 384 1019 
Q 384 1609 779 1909 
Q 1175 2209 1959 2209 
L 2766 2209 
L 2766 2266 
Q 2766 2663 2505 2880 
Q 2244 3097 1772 3097 
Q 1472 3097 1187 3025 
Q 903 2953 641 2809 
L 641 3341 
Q 956 3463 1253 3523 
Q 1550 3584 1831 3584 
Q 2591 3584 2966 3190 
Q 3341 2797 3341 1997 
z
" transform="scale(0.015625)"/>
       <path id="DejaVuSans-74" d="M 1172 4494 
L 1172 3500 
L 2356 3500 
L 2356 3053 
L 1172 3053 
L 1172 1153 
Q 1172 725 1289 603 
Q 1406 481 1766 481 
L 2356 481 
L 2356 0 
L 1766 0 
Q 1100 0 847 248 
Q 594 497 594 1153 
L 594 3053 
L 172 3053 
L 172 3500 
L 594 3500 
L 594 4494 
L 1172 4494 
z
" transform="scale(0.015625)"/>
       <path id="DejaVuSans-73" d="M 2834 3397 
L 2834 2853 
Q 2591 2978 2328 3040 
Q 2066 3103 1784 3103 
Q 1356 3103 1142 2972 
Q 928 2841 928 2578 
Q 928 2378 1081 2264 
Q 1234 2150 1697 2047 
L 1894 2003 
Q 2506 1872 2764 1633 
Q 3022 1394 3022 966 
Q 3022 478 2636 193 
Q 2250 -91 1575 -91 
Q 1294 -91 989 -36 
Q 684 19 347 128 
L 347 722 
Q 666 556 975 473 
Q 1284 391 1588 391 
Q 1994 391 2212 530 
Q 2431 669 2431 922 
Q 2431 1156 2273 1281 
Q 2116 1406 1581 1522 
L 1381 1569 
Q 847 1681 609 1914 
Q 372 2147 372 2553 
Q 372 3047 722 3315 
Q 1072 3584 1716 3584 
Q 2034 3584 2315 3537 
Q 2597 3491 2834 3397 
z
" transform="scale(0.015625)"/>
       <path id="DejaVuSans-29" d="M 513 4856 
L 1013 4856 
Q 1481 4119 1714 3412 
Q 1947 2706 1947 2009 
Q 1947 1309 1714 600 
Q 1481 -109 1013 -844 
L 513 -844 
Q 928 -128 1133 580 
Q 1338 1288 1338 2009 
Q 1338 2731 1133 3434 
Q 928 4138 513 4856 
z
" transform="scale(0.015625)"/>
      </defs>
      <use xlink:href="#DejaVuSans-41"/>
      <use xlink:href="#DejaVuSans-6c" x="68.408203"/>
      <use xlink:href="#DejaVuSans-6c" x="96.191406"/>
      <use xlink:href="#DejaVuSans-65" x="123.974609"/>
      <use xlink:href="#DejaVuSans-6c" x="185.498047"/>
      <use xlink:href="#DejaVuSans-65" x="213.28125"/>
      <use xlink:href="#DejaVuSans-20" x="274.804688"/>
      <use xlink:href="#DejaVuSans-53" x="306.591797"/>
      <use xlink:href="#DejaVuSans-69" x="370.068359"/>
      <use xlink:href="#DejaVuSans-7a" x="397.851562"/>
      <use xlink:href="#DejaVuSans-65" x="450.341797"/>
      <use xlink:href="#DejaVuSans-20" x="511.865234"/>
      <use xlink:href="#DejaVuSans-28" x="543.652344"/>
      <use xlink:href="#DejaVuSans-23" x="582.666016"/>
      <use xlink:href="#DejaVuSans-20" x="666.455078"/>
      <use xlink:href="#DejaVuSans-6f" x="698.242188"/>
      <use xlink:href="#DejaVuSans-66" x="759.423828"/>
      <use xlink:href="#DejaVuSans-20" x="794.628906"/>
      <use xlink:href="#DejaVuSans-52" x="826.416016"/>
      <use xlink:href="#DejaVuSans-65" x="891.398438"/>
      <use xlink:href="#DejaVuSans-70" x="952.921875"/>
      <use xlink:href="#DejaVuSans-65" x="1016.398438"/>
      <use xlink:href="#DejaVuSans-61" x="1077.921875"/>
      <use xlink:href="#DejaVuSans-74" x="1139.201172"/>
      <use xlink:href="#DejaVuSans-73" x="1178.410156"/>
      <use xlink:href="#DejaVuSans-29" x="1230.509766"/>
     </g>
    </g>
   </g>
   <g id="matplotlib.axis_2">
    <g id="ytick_1">
     <g id="line2d_17">
      <defs>
       <path id="m7954abe542" d="M 0 0 
L -4.8 0 
" style="stroke: #000000"/>
      </defs>
      <g>
       <use xlink:href="#m7954abe542" x="72.994687" y="427.59475" style="stroke: #000000"/>
      </g>
     </g>
     <g id="text_18">
      <!-- 0.00 -->
      <g transform="translate(35.749375 432.533734)scale(0.13 -0.13)">
       <defs>
        <path id="DejaVuSans-30" d="M 2034 4250 
Q 1547 4250 1301 3770 
Q 1056 3291 1056 2328 
Q 1056 1369 1301 889 
Q 1547 409 2034 409 
Q 2525 409 2770 889 
Q 3016 1369 3016 2328 
Q 3016 3291 2770 3770 
Q 2525 4250 2034 4250 
z
M 2034 4750 
Q 2819 4750 3233 4129 
Q 3647 3509 3647 2328 
Q 3647 1150 3233 529 
Q 2819 -91 2034 -91 
Q 1250 -91 836 529 
Q 422 1150 422 2328 
Q 422 3509 836 4129 
Q 1250 4750 2034 4750 
z
" transform="scale(0.015625)"/>
        <path id="DejaVuSans-2e" d="M 684 794 
L 1344 794 
L 1344 0 
L 684 0 
L 684 794 
z
" transform="scale(0.015625)"/>
       </defs>
       <use xlink:href="#DejaVuSans-30"/>
       <use xlink:href="#DejaVuSans-2e" x="63.623047"/>
       <use xlink:href="#DejaVuSans-30" x="95.410156"/>
       <use xlink:href="#DejaVuSans-30" x="159.033203"/>
      </g>
     </g>
    </g>
    <g id="ytick_2">
     <g id="line2d_18">
      <g>
       <use xlink:href="#m7954abe542" x="72.994687" y="375.669023" style="stroke: #000000"/>
      </g>
     </g>
     <g id="text_19">
      <!-- 0.02 -->
      <g transform="translate(35.749375 380.608008)scale(0.13 -0.13)">
       <defs>
        <path id="DejaVuSans-32" d="M 1228 531 
L 3431 531 
L 3431 0 
L 469 0 
L 469 531 
Q 828 903 1448 1529 
Q 2069 2156 2228 2338 
Q 2531 2678 2651 2914 
Q 2772 3150 2772 3378 
Q 2772 3750 2511 3984 
Q 2250 4219 1831 4219 
Q 1534 4219 1204 4116 
Q 875 4013 500 3803 
L 500 4441 
Q 881 4594 1212 4672 
Q 1544 4750 1819 4750 
Q 2544 4750 2975 4387 
Q 3406 4025 3406 3419 
Q 3406 3131 3298 2873 
Q 3191 2616 2906 2266 
Q 2828 2175 2409 1742 
Q 1991 1309 1228 531 
z
" transform="scale(0.015625)"/>
       </defs>
       <use xlink:href="#DejaVuSans-30"/>
       <use xlink:href="#DejaVuSans-2e" x="63.623047"/>
       <use xlink:href="#DejaVuSans-30" x="95.410156"/>
       <use xlink:href="#DejaVuSans-32" x="159.033203"/>
      </g>
     </g>
    </g>
    <g id="ytick_3">
     <g id="line2d_19">
      <g>
       <use xlink:href="#m7954abe542" x="72.994687" y="323.743297" style="stroke: #000000"/>
      </g>
     </g>
     <g id="text_20">
      <!-- 0.04 -->
      <g transform="translate(35.749375 328.682281)scale(0.13 -0.13)">
       <defs>
        <path id="DejaVuSans-34" d="M 2419 4116 
L 825 1625 
L 2419 1625 
L 2419 4116 
z
M 2253 4666 
L 3047 4666 
L 3047 1625 
L 3713 1625 
L 3713 1100 
L 3047 1100 
L 3047 0 
L 2419 0 
L 2419 1100 
L 313 1100 
L 313 1709 
L 2253 4666 
z
" transform="scale(0.015625)"/>
       </defs>
       <use xlink:href="#DejaVuSans-30"/>
       <use xlink:href="#DejaVuSans-2e" x="63.623047"/>
       <use xlink:href="#DejaVuSans-30" x="95.410156"/>
       <use xlink:href="#DejaVuSans-34" x="159.033203"/>
      </g>
     </g>
    </g>
    <g id="ytick_4">
     <g id="line2d_20">
      <g>
       <use xlink:href="#m7954abe542" x="72.994687" y="271.81757" style="stroke: #000000"/>
      </g>
     </g>
     <g id="text_21">
      <!-- 0.06 -->
      <g transform="translate(35.749375 276.756554)scale(0.13 -0.13)">
       <defs>
        <path id="DejaVuSans-36" d="M 2113 2584 
Q 1688 2584 1439 2293 
Q 1191 2003 1191 1497 
Q 1191 994 1439 701 
Q 1688 409 2113 409 
Q 2538 409 2786 701 
Q 3034 994 3034 1497 
Q 3034 2003 2786 2293 
Q 2538 2584 2113 2584 
z
M 3366 4563 
L 3366 3988 
Q 3128 4100 2886 4159 
Q 2644 4219 2406 4219 
Q 1781 4219 1451 3797 
Q 1122 3375 1075 2522 
Q 1259 2794 1537 2939 
Q 1816 3084 2150 3084 
Q 2853 3084 3261 2657 
Q 3669 2231 3669 1497 
Q 3669 778 3244 343 
Q 2819 -91 2113 -91 
Q 1303 -91 875 529 
Q 447 1150 447 2328 
Q 447 3434 972 4092 
Q 1497 4750 2381 4750 
Q 2619 4750 2861 4703 
Q 3103 4656 3366 4563 
z
" transform="scale(0.015625)"/>
       </defs>
       <use xlink:href="#DejaVuSans-30"/>
       <use xlink:href="#DejaVuSans-2e" x="63.623047"/>
       <use xlink:href="#DejaVuSans-30" x="95.410156"/>
       <use xlink:href="#DejaVuSans-36" x="159.033203"/>
      </g>
     </g>
    </g>
    <g id="ytick_5">
     <g id="line2d_21">
      <g>
       <use xlink:href="#m7954abe542" x="72.994687" y="219.891843" style="stroke: #000000"/>
      </g>
     </g>
     <g id="text_22">
      <!-- 0.08 -->
      <g transform="translate(35.749375 224.830828)scale(0.13 -0.13)">
       <defs>
        <path id="DejaVuSans-38" d="M 2034 2216 
Q 1584 2216 1326 1975 
Q 1069 1734 1069 1313 
Q 1069 891 1326 650 
Q 1584 409 2034 409 
Q 2484 409 2743 651 
Q 3003 894 3003 1313 
Q 3003 1734 2745 1975 
Q 2488 2216 2034 2216 
z
M 1403 2484 
Q 997 2584 770 2862 
Q 544 3141 544 3541 
Q 544 4100 942 4425 
Q 1341 4750 2034 4750 
Q 2731 4750 3128 4425 
Q 3525 4100 3525 3541 
Q 3525 3141 3298 2862 
Q 3072 2584 2669 2484 
Q 3125 2378 3379 2068 
Q 3634 1759 3634 1313 
Q 3634 634 3220 271 
Q 2806 -91 2034 -91 
Q 1263 -91 848 271 
Q 434 634 434 1313 
Q 434 1759 690 2068 
Q 947 2378 1403 2484 
z
M 1172 3481 
Q 1172 3119 1398 2916 
Q 1625 2713 2034 2713 
Q 2441 2713 2670 2916 
Q 2900 3119 2900 3481 
Q 2900 3844 2670 4047 
Q 2441 4250 2034 4250 
Q 1625 4250 1398 4047 
Q 1172 3844 1172 3481 
z
" transform="scale(0.015625)"/>
       </defs>
       <use xlink:href="#DejaVuSans-30"/>
       <use xlink:href="#DejaVuSans-2e" x="63.623047"/>
       <use xlink:href="#DejaVuSans-30" x="95.410156"/>
       <use xlink:href="#DejaVuSans-38" x="159.033203"/>
      </g>
     </g>
    </g>
    <g id="ytick_6">
     <g id="line2d_22">
      <g>
       <use xlink:href="#m7954abe542" x="72.994687" y="167.966117" style="stroke: #000000"/>
      </g>
     </g>
     <g id="text_23">
      <!-- 0.10 -->
      <g transform="translate(35.749375 172.905101)scale(0.13 -0.13)">
       <use xlink:href="#DejaVuSans-30"/>
       <use xlink:href="#DejaVuSans-2e" x="63.623047"/>
       <use xlink:href="#DejaVuSans-31" x="95.410156"/>
       <use xlink:href="#DejaVuSans-30" x="159.033203"/>
      </g>
     </g>
    </g>
    <g id="ytick_7">
     <g id="line2d_23">
      <g>
       <use xlink:href="#m7954abe542" x="72.994687" y="116.04039" style="stroke: #000000"/>
      </g>
     </g>
     <g id="text_24">
      <!-- 0.12 -->
      <g transform="translate(35.749375 120.979374)scale(0.13 -0.13)">
       <use xlink:href="#DejaVuSans-30"/>
       <use xlink:href="#DejaVuSans-2e" x="63.623047"/>
       <use xlink:href="#DejaVuSans-31" x="95.410156"/>
       <use xlink:href="#DejaVuSans-32" x="159.033203"/>
      </g>
     </g>
    </g>
    <g id="ytick_8">
     <g id="line2d_24">
      <g>
       <use xlink:href="#m7954abe542" x="72.994687" y="64.114663" style="stroke: #000000"/>
      </g>
     </g>
     <g id="text_25">
      <!-- 0.14 -->
      <g transform="translate(35.749375 69.053648)scale(0.13 -0.13)">
       <use xlink:href="#DejaVuSans-30"/>
       <use xlink:href="#DejaVuSans-2e" x="63.623047"/>
       <use xlink:href="#DejaVuSans-31" x="95.410156"/>
       <use xlink:href="#DejaVuSans-34" x="159.033203"/>
      </g>
     </g>
    </g>
    <g id="text_26">
     <!-- Fraction of Alleles -->
     <g transform="translate(17.837812 295.578031)rotate(-90)scale(0.14 -0.14)">
      <defs>
       <path id="DejaVuSans-46" d="M 628 4666 
L 3309 4666 
L 3309 4134 
L 1259 4134 
L 1259 2759 
L 3109 2759 
L 3109 2228 
L 1259 2228 
L 1259 0 
L 628 0 
L 628 4666 
z
" transform="scale(0.015625)"/>
       <path id="DejaVuSans-72" d="M 2631 2963 
Q 2534 3019 2420 3045 
Q 2306 3072 2169 3072 
Q 1681 3072 1420 2755 
Q 1159 2438 1159 1844 
L 1159 0 
L 581 0 
L 581 3500 
L 1159 3500 
L 1159 2956 
Q 1341 3275 1631 3429 
Q 1922 3584 2338 3584 
Q 2397 3584 2469 3576 
Q 2541 3569 2628 3553 
L 2631 2963 
z
" transform="scale(0.015625)"/>
       <path id="DejaVuSans-63" d="M 3122 3366 
L 3122 2828 
Q 2878 2963 2633 3030 
Q 2388 3097 2138 3097 
Q 1578 3097 1268 2742 
Q 959 2388 959 1747 
Q 959 1106 1268 751 
Q 1578 397 2138 397 
Q 2388 397 2633 464 
Q 2878 531 3122 666 
L 3122 134 
Q 2881 22 2623 -34 
Q 2366 -91 2075 -91 
Q 1284 -91 818 406 
Q 353 903 353 1747 
Q 353 2603 823 3093 
Q 1294 3584 2113 3584 
Q 2378 3584 2631 3529 
Q 2884 3475 3122 3366 
z
" transform="scale(0.015625)"/>
       <path id="DejaVuSans-6e" d="M 3513 2113 
L 3513 0 
L 2938 0 
L 2938 2094 
Q 2938 2591 2744 2837 
Q 2550 3084 2163 3084 
Q 1697 3084 1428 2787 
Q 1159 2491 1159 1978 
L 1159 0 
L 581 0 
L 581 3500 
L 1159 3500 
L 1159 2956 
Q 1366 3272 1645 3428 
Q 1925 3584 2291 3584 
Q 2894 3584 3203 3211 
Q 3513 2838 3513 2113 
z
" transform="scale(0.015625)"/>
      </defs>
      <use xlink:href="#DejaVuSans-46"/>
      <use xlink:href="#DejaVuSans-72" x="50.269531"/>
      <use xlink:href="#DejaVuSans-61" x="91.382812"/>
      <use xlink:href="#DejaVuSans-63" x="152.662109"/>
      <use xlink:href="#DejaVuSans-74" x="207.642578"/>
      <use xlink:href="#DejaVuSans-69" x="246.851562"/>
      <use xlink:href="#DejaVuSans-6f" x="274.634766"/>
      <use xlink:href="#DejaVuSans-6e" x="335.816406"/>
      <use xlink:href="#DejaVuSans-20" x="399.195312"/>
      <use xlink:href="#DejaVuSans-6f" x="430.982422"/>
      <use xlink:href="#DejaVuSans-66" x="492.164062"/>
      <use xlink:href="#DejaVuSans-20" x="527.369141"/>
      <use xlink:href="#DejaVuSans-41" x="559.15625"/>
      <use xlink:href="#DejaVuSans-6c" x="627.564453"/>
      <use xlink:href="#DejaVuSans-6c" x="655.347656"/>
      <use xlink:href="#DejaVuSans-65" x="683.130859"/>
      <use xlink:href="#DejaVuSans-6c" x="744.654297"/>
      <use xlink:href="#DejaVuSans-65" x="772.4375"/>
      <use xlink:href="#DejaVuSans-73" x="833.960938"/>
     </g>
    </g>
   </g>
   <g id="patch_154">
    <path d="M 72.994687 427.59475 
L 72.994687 39.51475 
" style="fill: none; stroke: #000000; stroke-linejoin: miter; stroke-linecap: square"/>
   </g>
   <g id="patch_155">
    <path d="M 72.994687 427.59475 
L 519.394688 427.59475 
" style="fill: none; stroke: #000000; stroke-linejoin: miter; stroke-linecap: square"/>
   </g>
   <g id="text_27">
    <!-- STR Allele Size Distribution -->
    <g transform="translate(201.494531 17.837812)scale(0.14 -0.14)">
     <defs>
      <path id="DejaVuSans-54" d="M -19 4666 
L 3928 4666 
L 3928 4134 
L 2272 4134 
L 2272 0 
L 1638 0 
L 1638 4134 
L -19 4134 
L -19 4666 
z
" transform="scale(0.015625)"/>
      <path id="DejaVuSans-44" d="M 1259 4147 
L 1259 519 
L 2022 519 
Q 2988 519 3436 956 
Q 3884 1394 3884 2338 
Q 3884 3275 3436 3711 
Q 2988 4147 2022 4147 
L 1259 4147 
z
M 628 4666 
L 1925 4666 
Q 3281 4666 3915 4102 
Q 4550 3538 4550 2338 
Q 4550 1131 3912 565 
Q 3275 0 1925 0 
L 628 0 
L 628 4666 
z
" transform="scale(0.015625)"/>
      <path id="DejaVuSans-62" d="M 3116 1747 
Q 3116 2381 2855 2742 
Q 2594 3103 2138 3103 
Q 1681 3103 1420 2742 
Q 1159 2381 1159 1747 
Q 1159 1113 1420 752 
Q 1681 391 2138 391 
Q 2594 391 2855 752 
Q 3116 1113 3116 1747 
z
M 1159 2969 
Q 1341 3281 1617 3432 
Q 1894 3584 2278 3584 
Q 2916 3584 3314 3078 
Q 3713 2572 3713 1747 
Q 3713 922 3314 415 
Q 2916 -91 2278 -91 
Q 1894 -91 1617 61 
Q 1341 213 1159 525 
L 1159 0 
L 581 0 
L 581 4863 
L 1159 4863 
L 1159 2969 
z
" transform="scale(0.015625)"/>
      <path id="DejaVuSans-75" d="M 544 1381 
L 544 3500 
L 1119 3500 
L 1119 1403 
Q 1119 906 1312 657 
Q 1506 409 1894 409 
Q 2359 409 2629 706 
Q 2900 1003 2900 1516 
L 2900 3500 
L 3475 3500 
L 3475 0 
L 2900 0 
L 2900 538 
Q 2691 219 2414 64 
Q 2138 -91 1772 -91 
Q 1169 -91 856 284 
Q 544 659 544 1381 
z
M 1991 3584 
L 1991 3584 
z
" transform="scale(0.015625)"/>
     </defs>
     <use xlink:href="#DejaVuSans-53"/>
     <use xlink:href="#DejaVuSans-54" x="63.476562"/>
     <use xlink:href="#DejaVuSans-52" x="124.560547"/>
     <use xlink:href="#DejaVuSans-20" x="194.042969"/>
     <use xlink:href="#DejaVuSans-41" x="225.830078"/>
     <use xlink:href="#DejaVuSans-6c" x="294.238281"/>
     <use xlink:href="#DejaVuSans-6c" x="322.021484"/>
     <use xlink:href="#DejaVuSans-65" x="349.804688"/>
     <use xlink:href="#DejaVuSans-6c" x="411.328125"/>
     <use xlink:href="#DejaVuSans-65" x="439.111328"/>
     <use xlink:href="#DejaVuSans-20" x="500.634766"/>
     <use xlink:href="#DejaVuSans-53" x="532.421875"/>
     <use xlink:href="#DejaVuSans-69" x="595.898438"/>
     <use xlink:href="#DejaVuSans-7a" x="623.681641"/>
     <use xlink:href="#DejaVuSans-65" x="676.171875"/>
     <use xlink:href="#DejaVuSans-20" x="737.695312"/>
     <use xlink:href="#DejaVuSans-44" x="769.482422"/>
     <use xlink:href="#DejaVuSans-69" x="846.484375"/>
     <use xlink:href="#DejaVuSans-73" x="874.267578"/>
     <use xlink:href="#DejaVuSans-74" x="926.367188"/>
     <use xlink:href="#DejaVuSans-72" x="965.576172"/>
     <use xlink:href="#DejaVuSans-69" x="1006.689453"/>
     <use xlink:href="#DejaVuSans-62" x="1034.472656"/>
     <use xlink:href="#DejaVuSans-75" x="1097.949219"/>
     <use xlink:href="#DejaVuSans-74" x="1161.328125"/>
     <use xlink:href="#DejaVuSans-69" x="1200.537109"/>
     <use xlink:href="#DejaVuSans-6f" x="1228.320312"/>
     <use xlink:href="#DejaVuSans-6e" x="1289.501953"/>
    </g>
    <!-- (interrupted repeats only) -->
    <g transform="translate(205.576406 33.51475)scale(0.14 -0.14)">
     <defs>
      <path id="DejaVuSans-64" d="M 2906 2969 
L 2906 4863 
L 3481 4863 
L 3481 0 
L 2906 0 
L 2906 525 
Q 2725 213 2448 61 
Q 2172 -91 1784 -91 
Q 1150 -91 751 415 
Q 353 922 353 1747 
Q 353 2572 751 3078 
Q 1150 3584 1784 3584 
Q 2172 3584 2448 3432 
Q 2725 3281 2906 2969 
z
M 947 1747 
Q 947 1113 1208 752 
Q 1469 391 1925 391 
Q 2381 391 2643 752 
Q 2906 1113 2906 1747 
Q 2906 2381 2643 2742 
Q 2381 3103 1925 3103 
Q 1469 3103 1208 2742 
Q 947 2381 947 1747 
z
" transform="scale(0.015625)"/>
      <path id="DejaVuSans-79" d="M 2059 -325 
Q 1816 -950 1584 -1140 
Q 1353 -1331 966 -1331 
L 506 -1331 
L 506 -850 
L 844 -850 
Q 1081 -850 1212 -737 
Q 1344 -625 1503 -206 
L 1606 56 
L 191 3500 
L 800 3500 
L 1894 763 
L 2988 3500 
L 3597 3500 
L 2059 -325 
z
" transform="scale(0.015625)"/>
     </defs>
     <use xlink:href="#DejaVuSans-28"/>
     <use xlink:href="#DejaVuSans-69" x="39.013672"/>
     <use xlink:href="#DejaVuSans-6e" x="66.796875"/>
     <use xlink:href="#DejaVuSans-74" x="130.175781"/>
     <use xlink:href="#DejaVuSans-65" x="169.384766"/>
     <use xlink:href="#DejaVuSans-72" x="230.908203"/>
     <use xlink:href="#DejaVuSans-72" x="270.271484"/>
     <use xlink:href="#DejaVuSans-75" x="311.384766"/>
     <use xlink:href="#DejaVuSans-70" x="374.763672"/>
     <use xlink:href="#DejaVuSans-74" x="438.240234"/>
     <use xlink:href="#DejaVuSans-65" x="477.449219"/>
     <use xlink:href="#DejaVuSans-64" x="538.972656"/>
     <use xlink:href="#DejaVuSans-20" x="602.449219"/>
     <use xlink:href="#DejaVuSans-72" x="634.236328"/>
     <use xlink:href="#DejaVuSans-65" x="673.099609"/>
     <use xlink:href="#DejaVuSans-70" x="734.623047"/>
     <use xlink:href="#DejaVuSans-65" x="798.099609"/>
     <use xlink:href="#DejaVuSans-61" x="859.623047"/>
     <use xlink:href="#DejaVuSans-74" x="920.902344"/>
     <use xlink:href="#DejaVuSans-73" x="960.111328"/>
     <use xlink:href="#DejaVuSans-20" x="1012.210938"/>
     <use xlink:href="#DejaVuSans-6f" x="1043.998047"/>
     <use xlink:href="#DejaVuSans-6e" x="1105.179688"/>
     <use xlink:href="#DejaVuSans-6c" x="1168.558594"/>
     <use xlink:href="#DejaVuSans-79" x="1196.341797"/>
     <use xlink:href="#DejaVuSans-29" x="1255.521484"/>
    </g>
   </g>
  </g>
 </g>
 <defs>
  <clipPath id="p42bc90a033">
   <rect x="72.994687" y="39.51475" width="446.4" height="388.08"/>
  </clipPath>
 </defs>
</svg>
