<?xml version="1.0" encoding="utf-8" standalone="no"?>
<!DOCTYPE svg PUBLIC "-//W3C//DTD SVG 1.1//EN"
  "http://www.w3.org/Graphics/SVG/1.1/DTD/svg11.dtd">
<svg xmlns:xlink="http://www.w3.org/1999/xlink" width="711.5904pt" height="567.5904pt" viewBox="0 0 711.5904 567.5904" xmlns="http://www.w3.org/2000/svg" version="1.1">
 <metadata>
  <rdf:RDF xmlns:dc="http://purl.org/dc/elements/1.1/" xmlns:cc="http://creativecommons.org/ns#" xmlns:rdf="http://www.w3.org/1999/02/22-rdf-syntax-ns#">
   <cc:Work>
    <dc:type rdf:resource="http://purl.org/dc/dcmitype/StillImage"/>
    <dc:date>2023-03-09T12:55:55.722862</dc:date>
    <dc:format>image/svg+xml</dc:format>
    <dc:creator>
     <cc:Agent>
      <dc:title>Matplotlib v3.5.1, https://matplotlib.org/</dc:title>
     </cc:Agent>
    </dc:creator>
   </cc:Work>
  </rdf:RDF>
 </metadata>
 <defs>
  <style type="text/css">*{stroke-linejoin: round; stroke-linecap: butt}</style>
 </defs>
 <g id="figure_1">
  <g id="patch_1">
   <path d="M 0 567.5904 
L 711.5904 567.5904 
L 711.5904 0 
L 0 0 
z
" style="fill: #ffffff"/>
  </g>
  <g id="axes_1">
   <g id="patch_2">
    <path d="M 74.589375 511.927275 
L 704.3904 511.927275 
L 704.3904 72.191094 
L 74.589375 72.191094 
z
" style="fill: #ffffff"/>
   </g>
   <g id="patch_3">
    <path d="M 103.216694 511.927275 
L 114.901314 511.927275 
L 114.901314 503.188765 
L 103.216694 503.188765 
z
" clip-path="url(#pb2e0878406)" style="fill: #689f38; fill-opacity: 0.75; stroke: #000000; stroke-width: 0.8; stroke-linejoin: miter"/>
   </g>
   <g id="patch_4">
    <path d="M 114.901314 511.927275 
L 126.585935 511.927275 
L 126.585935 500.841105 
L 114.901314 500.841105 
z
" clip-path="url(#pb2e0878406)" style="fill: #689f38; fill-opacity: 0.75; stroke: #000000; stroke-width: 0.8; stroke-linejoin: miter"/>
   </g>
   <g id="patch_5">
    <path d="M 126.585935 511.927275 
L 138.270555 511.927275 
L 138.270555 492.102595 
L 126.585935 492.102595 
z
" clip-path="url(#pb2e0878406)" style="fill: #689f38; fill-opacity: 0.75; stroke: #000000; stroke-width: 0.8; stroke-linejoin: miter"/>
   </g>
   <g id="patch_6">
    <path d="M 138.270555 511.927275 
L 149.955175 511.927275 
L 149.955175 508.405786 
L 138.270555 508.405786 
z
" clip-path="url(#pb2e0878406)" style="fill: #689f38; fill-opacity: 0.75; stroke: #000000; stroke-width: 0.8; stroke-linejoin: miter"/>
   </g>
   <g id="patch_7">
    <path d="M 149.955175 511.927275 
L 161.639795 511.927275 
L 161.639795 511.014296 
L 149.955175 511.014296 
z
" clip-path="url(#pb2e0878406)" style="fill: #689f38; fill-opacity: 0.75; stroke: #000000; stroke-width: 0.8; stroke-linejoin: miter"/>
   </g>
   <g id="patch_8">
    <path d="M 161.639795 511.927275 
L 173.324415 511.927275 
L 173.324415 511.927275 
L 161.639795 511.927275 
z
" clip-path="url(#pb2e0878406)" style="fill: #689f38; fill-opacity: 0.75; stroke: #000000; stroke-width: 0.8; stroke-linejoin: miter"/>
   </g>
   <g id="patch_9">
    <path d="M 173.324415 511.927275 
L 185.009035 511.927275 
L 185.009035 511.796849 
L 173.324415 511.796849 
z
" clip-path="url(#pb2e0878406)" style="fill: #689f38; fill-opacity: 0.75; stroke: #000000; stroke-width: 0.8; stroke-linejoin: miter"/>
   </g>
   <g id="patch_10">
    <path d="M 185.009035 511.927275 
L 196.693655 511.927275 
L 196.693655 511.535998 
L 185.009035 511.535998 
z
" clip-path="url(#pb2e0878406)" style="fill: #689f38; fill-opacity: 0.75; stroke: #000000; stroke-width: 0.8; stroke-linejoin: miter"/>
   </g>
   <g id="patch_11">
    <path d="M 196.693655 511.927275 
L 208.378275 511.927275 
L 208.378275 511.927275 
L 196.693655 511.927275 
z
" clip-path="url(#pb2e0878406)" style="fill: #689f38; fill-opacity: 0.75; stroke: #000000; stroke-width: 0.8; stroke-linejoin: miter"/>
   </g>
   <g id="patch_12">
    <path d="M 208.378275 511.927275 
L 220.062896 511.927275 
L 220.062896 511.927275 
L 208.378275 511.927275 
z
" clip-path="url(#pb2e0878406)" style="fill: #689f38; fill-opacity: 0.75; stroke: #000000; stroke-width: 0.8; stroke-linejoin: miter"/>
   </g>
   <g id="patch_13">
    <path d="M 220.062896 511.927275 
L 231.747516 511.927275 
L 231.747516 511.405573 
L 220.062896 511.405573 
z
" clip-path="url(#pb2e0878406)" style="fill: #689f38; fill-opacity: 0.75; stroke: #000000; stroke-width: 0.8; stroke-linejoin: miter"/>
   </g>
   <g id="patch_14">
    <path d="M 231.747516 511.927275 
L 243.432136 511.927275 
L 243.432136 511.535998 
L 231.747516 511.535998 
z
" clip-path="url(#pb2e0878406)" style="fill: #689f38; fill-opacity: 0.75; stroke: #000000; stroke-width: 0.8; stroke-linejoin: miter"/>
   </g>
   <g id="patch_15">
    <path d="M 243.432136 511.927275 
L 255.116756 511.927275 
L 255.116756 511.535998 
L 243.432136 511.535998 
z
" clip-path="url(#pb2e0878406)" style="fill: #689f38; fill-opacity: 0.75; stroke: #000000; stroke-width: 0.8; stroke-linejoin: miter"/>
   </g>
   <g id="patch_16">
    <path d="M 255.116756 511.927275 
L 266.801376 511.927275 
L 266.801376 511.144722 
L 255.116756 511.144722 
z
" clip-path="url(#pb2e0878406)" style="fill: #689f38; fill-opacity: 0.75; stroke: #000000; stroke-width: 0.8; stroke-linejoin: miter"/>
   </g>
   <g id="patch_17">
    <path d="M 266.801376 511.927275 
L 278.485996 511.927275 
L 278.485996 510.883871 
L 266.801376 510.883871 
z
" clip-path="url(#pb2e0878406)" style="fill: #689f38; fill-opacity: 0.75; stroke: #000000; stroke-width: 0.8; stroke-linejoin: miter"/>
   </g>
   <g id="patch_18">
    <path d="M 278.485996 511.927275 
L 290.170616 511.927275 
L 290.170616 510.753445 
L 278.485996 510.753445 
z
" clip-path="url(#pb2e0878406)" style="fill: #689f38; fill-opacity: 0.75; stroke: #000000; stroke-width: 0.8; stroke-linejoin: miter"/>
   </g>
   <g id="patch_19">
    <path d="M 290.170616 511.927275 
L 301.855237 511.927275 
L 301.855237 511.014296 
L 290.170616 511.014296 
z
" clip-path="url(#pb2e0878406)" style="fill: #689f38; fill-opacity: 0.75; stroke: #000000; stroke-width: 0.8; stroke-linejoin: miter"/>
   </g>
   <g id="patch_20">
    <path d="M 301.855237 511.927275 
L 313.539857 511.927275 
L 313.539857 510.62302 
L 301.855237 510.62302 
z
" clip-path="url(#pb2e0878406)" style="fill: #689f38; fill-opacity: 0.75; stroke: #000000; stroke-width: 0.8; stroke-linejoin: miter"/>
   </g>
   <g id="patch_21">
    <path d="M 313.539857 511.927275 
L 325.224477 511.927275 
L 325.224477 509.970892 
L 313.539857 509.970892 
z
" clip-path="url(#pb2e0878406)" style="fill: #689f38; fill-opacity: 0.75; stroke: #000000; stroke-width: 0.8; stroke-linejoin: miter"/>
   </g>
   <g id="patch_22">
    <path d="M 325.224477 511.927275 
L 336.909097 511.927275 
L 336.909097 511.014296 
L 325.224477 511.014296 
z
" clip-path="url(#pb2e0878406)" style="fill: #689f38; fill-opacity: 0.75; stroke: #000000; stroke-width: 0.8; stroke-linejoin: miter"/>
   </g>
   <g id="patch_23">
    <path d="M 336.909097 511.927275 
L 348.593717 511.927275 
L 348.593717 510.753445 
L 336.909097 510.753445 
z
" clip-path="url(#pb2e0878406)" style="fill: #689f38; fill-opacity: 0.75; stroke: #000000; stroke-width: 0.8; stroke-linejoin: miter"/>
   </g>
   <g id="patch_24">
    <path d="M 348.593717 511.927275 
L 360.278337 511.927275 
L 360.278337 510.62302 
L 348.593717 510.62302 
z
" clip-path="url(#pb2e0878406)" style="fill: #689f38; fill-opacity: 0.75; stroke: #000000; stroke-width: 0.8; stroke-linejoin: miter"/>
   </g>
   <g id="patch_25">
    <path d="M 360.278337 511.927275 
L 371.962957 511.927275 
L 371.962957 508.666637 
L 360.278337 508.666637 
z
" clip-path="url(#pb2e0878406)" style="fill: #689f38; fill-opacity: 0.75; stroke: #000000; stroke-width: 0.8; stroke-linejoin: miter"/>
   </g>
   <g id="patch_26">
    <path d="M 371.962957 511.927275 
L 383.647577 511.927275 
L 383.647577 508.927488 
L 371.962957 508.927488 
z
" clip-path="url(#pb2e0878406)" style="fill: #689f38; fill-opacity: 0.75; stroke: #000000; stroke-width: 0.8; stroke-linejoin: miter"/>
   </g>
   <g id="patch_27">
    <path d="M 383.647577 511.927275 
L 395.332198 511.927275 
L 395.332198 508.014509 
L 383.647577 508.014509 
z
" clip-path="url(#pb2e0878406)" style="fill: #689f38; fill-opacity: 0.75; stroke: #000000; stroke-width: 0.8; stroke-linejoin: miter"/>
   </g>
   <g id="patch_28">
    <path d="M 395.332198 511.927275 
L 407.016818 511.927275 
L 407.016818 508.666637 
L 395.332198 508.666637 
z
" clip-path="url(#pb2e0878406)" style="fill: #689f38; fill-opacity: 0.75; stroke: #000000; stroke-width: 0.8; stroke-linejoin: miter"/>
   </g>
   <g id="patch_29">
    <path d="M 407.016818 511.927275 
L 418.701438 511.927275 
L 418.701438 506.449403 
L 407.016818 506.449403 
z
" clip-path="url(#pb2e0878406)" style="fill: #689f38; fill-opacity: 0.75; stroke: #000000; stroke-width: 0.8; stroke-linejoin: miter"/>
   </g>
   <g id="patch_30">
    <path d="M 418.701438 511.927275 
L 430.386058 511.927275 
L 430.386058 509.44919 
L 418.701438 509.44919 
z
" clip-path="url(#pb2e0878406)" style="fill: #689f38; fill-opacity: 0.75; stroke: #000000; stroke-width: 0.8; stroke-linejoin: miter"/>
   </g>
   <g id="patch_31">
    <path d="M 430.386058 511.927275 
L 442.070678 511.927275 
L 442.070678 506.971105 
L 430.386058 506.971105 
z
" clip-path="url(#pb2e0878406)" style="fill: #689f38; fill-opacity: 0.75; stroke: #000000; stroke-width: 0.8; stroke-linejoin: miter"/>
   </g>
   <g id="patch_32">
    <path d="M 442.070678 511.927275 
L 453.755298 511.927275 
L 453.755298 507.884084 
L 442.070678 507.884084 
z
" clip-path="url(#pb2e0878406)" style="fill: #689f38; fill-opacity: 0.75; stroke: #000000; stroke-width: 0.8; stroke-linejoin: miter"/>
   </g>
   <g id="patch_33">
    <path d="M 453.755298 511.927275 
L 465.439918 511.927275 
L 465.439918 508.014509 
L 453.755298 508.014509 
z
" clip-path="url(#pb2e0878406)" style="fill: #689f38; fill-opacity: 0.75; stroke: #000000; stroke-width: 0.8; stroke-linejoin: miter"/>
   </g>
   <g id="patch_34">
    <path d="M 465.439918 511.927275 
L 477.124538 511.927275 
L 477.124538 508.927488 
L 465.439918 508.927488 
z
" clip-path="url(#pb2e0878406)" style="fill: #689f38; fill-opacity: 0.75; stroke: #000000; stroke-width: 0.8; stroke-linejoin: miter"/>
   </g>
   <g id="patch_35">
    <path d="M 477.124538 511.927275 
L 488.809159 511.927275 
L 488.809159 509.579616 
L 477.124538 509.579616 
z
" clip-path="url(#pb2e0878406)" style="fill: #689f38; fill-opacity: 0.75; stroke: #000000; stroke-width: 0.8; stroke-linejoin: miter"/>
   </g>
   <g id="patch_36">
    <path d="M 488.809159 511.927275 
L 500.493779 511.927275 
L 500.493779 509.840467 
L 488.809159 509.840467 
z
" clip-path="url(#pb2e0878406)" style="fill: #689f38; fill-opacity: 0.75; stroke: #000000; stroke-width: 0.8; stroke-linejoin: miter"/>
   </g>
   <g id="patch_37">
    <path d="M 500.493779 511.927275 
L 512.178399 511.927275 
L 512.178399 508.666637 
L 500.493779 508.666637 
z
" clip-path="url(#pb2e0878406)" style="fill: #689f38; fill-opacity: 0.75; stroke: #000000; stroke-width: 0.8; stroke-linejoin: miter"/>
   </g>
   <g id="patch_38">
    <path d="M 512.178399 511.927275 
L 523.863019 511.927275 
L 523.863019 509.44919 
L 512.178399 509.44919 
z
" clip-path="url(#pb2e0878406)" style="fill: #689f38; fill-opacity: 0.75; stroke: #000000; stroke-width: 0.8; stroke-linejoin: miter"/>
   </g>
   <g id="patch_39">
    <path d="M 523.863019 511.927275 
L 535.547639 511.927275 
L 535.547639 510.62302 
L 523.863019 510.62302 
z
" clip-path="url(#pb2e0878406)" style="fill: #689f38; fill-opacity: 0.75; stroke: #000000; stroke-width: 0.8; stroke-linejoin: miter"/>
   </g>
   <g id="patch_40">
    <path d="M 535.547639 511.927275 
L 547.232259 511.927275 
L 547.232259 510.62302 
L 535.547639 510.62302 
z
" clip-path="url(#pb2e0878406)" style="fill: #689f38; fill-opacity: 0.75; stroke: #000000; stroke-width: 0.8; stroke-linejoin: miter"/>
   </g>
   <g id="patch_41">
    <path d="M 547.232259 511.927275 
L 558.916879 511.927275 
L 558.916879 510.62302 
L 547.232259 510.62302 
z
" clip-path="url(#pb2e0878406)" style="fill: #689f38; fill-opacity: 0.75; stroke: #000000; stroke-width: 0.8; stroke-linejoin: miter"/>
   </g>
   <g id="patch_42">
    <path d="M 558.916879 511.927275 
L 570.6015 511.927275 
L 570.6015 511.405573 
L 558.916879 511.405573 
z
" clip-path="url(#pb2e0878406)" style="fill: #689f38; fill-opacity: 0.75; stroke: #000000; stroke-width: 0.8; stroke-linejoin: miter"/>
   </g>
   <g id="patch_43">
    <path d="M 570.6015 511.927275 
L 582.28612 511.927275 
L 582.28612 510.492594 
L 570.6015 510.492594 
z
" clip-path="url(#pb2e0878406)" style="fill: #689f38; fill-opacity: 0.75; stroke: #000000; stroke-width: 0.8; stroke-linejoin: miter"/>
   </g>
   <g id="patch_44">
    <path d="M 582.28612 511.927275 
L 593.97074 511.927275 
L 593.97074 511.666424 
L 582.28612 511.666424 
z
" clip-path="url(#pb2e0878406)" style="fill: #689f38; fill-opacity: 0.75; stroke: #000000; stroke-width: 0.8; stroke-linejoin: miter"/>
   </g>
   <g id="patch_45">
    <path d="M 593.97074 511.927275 
L 605.65536 511.927275 
L 605.65536 511.535998 
L 593.97074 511.535998 
z
" clip-path="url(#pb2e0878406)" style="fill: #689f38; fill-opacity: 0.75; stroke: #000000; stroke-width: 0.8; stroke-linejoin: miter"/>
   </g>
   <g id="patch_46">
    <path d="M 605.65536 511.927275 
L 617.33998 511.927275 
L 617.33998 511.275147 
L 605.65536 511.275147 
z
" clip-path="url(#pb2e0878406)" style="fill: #689f38; fill-opacity: 0.75; stroke: #000000; stroke-width: 0.8; stroke-linejoin: miter"/>
   </g>
   <g id="patch_47">
    <path d="M 617.33998 511.927275 
L 629.0246 511.927275 
L 629.0246 510.883871 
L 617.33998 510.883871 
z
" clip-path="url(#pb2e0878406)" style="fill: #689f38; fill-opacity: 0.75; stroke: #000000; stroke-width: 0.8; stroke-linejoin: miter"/>
   </g>
   <g id="patch_48">
    <path d="M 629.0246 511.927275 
L 640.70922 511.927275 
L 640.70922 511.014296 
L 629.0246 511.014296 
z
" clip-path="url(#pb2e0878406)" style="fill: #689f38; fill-opacity: 0.75; stroke: #000000; stroke-width: 0.8; stroke-linejoin: miter"/>
   </g>
   <g id="patch_49">
    <path d="M 640.70922 511.927275 
L 652.39384 511.927275 
L 652.39384 511.275147 
L 640.70922 511.275147 
z
" clip-path="url(#pb2e0878406)" style="fill: #689f38; fill-opacity: 0.75; stroke: #000000; stroke-width: 0.8; stroke-linejoin: miter"/>
   </g>
   <g id="patch_50">
    <path d="M 652.39384 511.927275 
L 664.078461 511.927275 
L 664.078461 510.753445 
L 652.39384 510.753445 
z
" clip-path="url(#pb2e0878406)" style="fill: #689f38; fill-opacity: 0.75; stroke: #000000; stroke-width: 0.8; stroke-linejoin: miter"/>
   </g>
   <g id="patch_51">
    <path d="M 664.078461 511.927275 
L 675.763081 511.927275 
L 675.763081 511.275147 
L 664.078461 511.275147 
z
" clip-path="url(#pb2e0878406)" style="fill: #689f38; fill-opacity: 0.75; stroke: #000000; stroke-width: 0.8; stroke-linejoin: miter"/>
   </g>
   <g id="patch_52">
    <path d="M 103.216694 503.188765 
L 114.901314 503.188765 
L 114.901314 478.799191 
L 103.216694 478.799191 
z
" clip-path="url(#pb2e0878406)" style="fill: #ffc939; fill-opacity: 0.75; stroke: #000000; stroke-width: 0.8; stroke-linejoin: miter"/>
   </g>
   <g id="patch_53">
    <path d="M 114.901314 500.841105 
L 126.585935 500.841105 
L 126.585935 473.843021 
L 114.901314 473.843021 
z
" clip-path="url(#pb2e0878406)" style="fill: #ffc939; fill-opacity: 0.75; stroke: #000000; stroke-width: 0.8; stroke-linejoin: miter"/>
   </g>
   <g id="patch_54">
    <path d="M 126.585935 492.102595 
L 138.270555 492.102595 
L 138.270555 444.627704 
L 126.585935 444.627704 
z
" clip-path="url(#pb2e0878406)" style="fill: #ffc939; fill-opacity: 0.75; stroke: #000000; stroke-width: 0.8; stroke-linejoin: miter"/>
   </g>
   <g id="patch_55">
    <path d="M 138.270555 508.405786 
L 149.955175 508.405786 
L 149.955175 495.493659 
L 138.270555 495.493659 
z
" clip-path="url(#pb2e0878406)" style="fill: #ffc939; fill-opacity: 0.75; stroke: #000000; stroke-width: 0.8; stroke-linejoin: miter"/>
   </g>
   <g id="patch_56">
    <path d="M 149.955175 511.014296 
L 161.639795 511.014296 
L 161.639795 507.492807 
L 149.955175 507.492807 
z
" clip-path="url(#pb2e0878406)" style="fill: #ffc939; fill-opacity: 0.75; stroke: #000000; stroke-width: 0.8; stroke-linejoin: miter"/>
   </g>
   <g id="patch_57">
    <path d="M 161.639795 511.927275 
L 173.324415 511.927275 
L 173.324415 511.535998 
L 161.639795 511.535998 
z
" clip-path="url(#pb2e0878406)" style="fill: #ffc939; fill-opacity: 0.75; stroke: #000000; stroke-width: 0.8; stroke-linejoin: miter"/>
   </g>
   <g id="patch_58">
    <path d="M 173.324415 511.796849 
L 185.009035 511.796849 
L 185.009035 510.362169 
L 173.324415 510.362169 
z
" clip-path="url(#pb2e0878406)" style="fill: #ffc939; fill-opacity: 0.75; stroke: #000000; stroke-width: 0.8; stroke-linejoin: miter"/>
   </g>
   <g id="patch_59">
    <path d="M 185.009035 511.535998 
L 196.693655 511.535998 
L 196.693655 510.753445 
L 185.009035 510.753445 
z
" clip-path="url(#pb2e0878406)" style="fill: #ffc939; fill-opacity: 0.75; stroke: #000000; stroke-width: 0.8; stroke-linejoin: miter"/>
   </g>
   <g id="patch_60">
    <path d="M 196.693655 511.927275 
L 208.378275 511.927275 
L 208.378275 509.970892 
L 196.693655 509.970892 
z
" clip-path="url(#pb2e0878406)" style="fill: #ffc939; fill-opacity: 0.75; stroke: #000000; stroke-width: 0.8; stroke-linejoin: miter"/>
   </g>
   <g id="patch_61">
    <path d="M 208.378275 511.927275 
L 220.062896 511.927275 
L 220.062896 510.492594 
L 208.378275 510.492594 
z
" clip-path="url(#pb2e0878406)" style="fill: #ffc939; fill-opacity: 0.75; stroke: #000000; stroke-width: 0.8; stroke-linejoin: miter"/>
   </g>
   <g id="patch_62">
    <path d="M 220.062896 511.405573 
L 231.747516 511.405573 
L 231.747516 508.666637 
L 220.062896 508.666637 
z
" clip-path="url(#pb2e0878406)" style="fill: #ffc939; fill-opacity: 0.75; stroke: #000000; stroke-width: 0.8; stroke-linejoin: miter"/>
   </g>
   <g id="patch_63">
    <path d="M 231.747516 511.535998 
L 243.432136 511.535998 
L 243.432136 510.362169 
L 231.747516 510.362169 
z
" clip-path="url(#pb2e0878406)" style="fill: #ffc939; fill-opacity: 0.75; stroke: #000000; stroke-width: 0.8; stroke-linejoin: miter"/>
   </g>
   <g id="patch_64">
    <path d="M 243.432136 511.535998 
L 255.116756 511.535998 
L 255.116756 509.44919 
L 243.432136 509.44919 
z
" clip-path="url(#pb2e0878406)" style="fill: #ffc939; fill-opacity: 0.75; stroke: #000000; stroke-width: 0.8; stroke-linejoin: miter"/>
   </g>
   <g id="patch_65">
    <path d="M 255.116756 511.144722 
L 266.801376 511.144722 
L 266.801376 506.840679 
L 255.116756 506.840679 
z
" clip-path="url(#pb2e0878406)" style="fill: #ffc939; fill-opacity: 0.75; stroke: #000000; stroke-width: 0.8; stroke-linejoin: miter"/>
   </g>
   <g id="patch_66">
    <path d="M 266.801376 510.883871 
L 278.485996 510.883871 
L 278.485996 505.145148 
L 266.801376 505.145148 
z
" clip-path="url(#pb2e0878406)" style="fill: #ffc939; fill-opacity: 0.75; stroke: #000000; stroke-width: 0.8; stroke-linejoin: miter"/>
   </g>
   <g id="patch_67">
    <path d="M 278.485996 510.753445 
L 290.170616 510.753445 
L 290.170616 506.188552 
L 278.485996 506.188552 
z
" clip-path="url(#pb2e0878406)" style="fill: #ffc939; fill-opacity: 0.75; stroke: #000000; stroke-width: 0.8; stroke-linejoin: miter"/>
   </g>
   <g id="patch_68">
    <path d="M 290.170616 511.014296 
L 301.855237 511.014296 
L 301.855237 503.710467 
L 290.170616 503.710467 
z
" clip-path="url(#pb2e0878406)" style="fill: #ffc939; fill-opacity: 0.75; stroke: #000000; stroke-width: 0.8; stroke-linejoin: miter"/>
   </g>
   <g id="patch_69">
    <path d="M 301.855237 510.62302 
L 313.539857 510.62302 
L 313.539857 506.840679 
L 301.855237 506.840679 
z
" clip-path="url(#pb2e0878406)" style="fill: #ffc939; fill-opacity: 0.75; stroke: #000000; stroke-width: 0.8; stroke-linejoin: miter"/>
   </g>
   <g id="patch_70">
    <path d="M 313.539857 509.970892 
L 325.224477 509.970892 
L 325.224477 498.36302 
L 313.539857 498.36302 
z
" clip-path="url(#pb2e0878406)" style="fill: #ffc939; fill-opacity: 0.75; stroke: #000000; stroke-width: 0.8; stroke-linejoin: miter"/>
   </g>
   <g id="patch_71">
    <path d="M 325.224477 511.014296 
L 336.909097 511.014296 
L 336.909097 506.058126 
L 325.224477 506.058126 
z
" clip-path="url(#pb2e0878406)" style="fill: #ffc939; fill-opacity: 0.75; stroke: #000000; stroke-width: 0.8; stroke-linejoin: miter"/>
   </g>
   <g id="patch_72">
    <path d="M 336.909097 510.753445 
L 348.593717 510.753445 
L 348.593717 501.754084 
L 336.909097 501.754084 
z
" clip-path="url(#pb2e0878406)" style="fill: #ffc939; fill-opacity: 0.75; stroke: #000000; stroke-width: 0.8; stroke-linejoin: miter"/>
   </g>
   <g id="patch_73">
    <path d="M 348.593717 510.62302 
L 360.278337 510.62302 
L 360.278337 501.232382 
L 348.593717 501.232382 
z
" clip-path="url(#pb2e0878406)" style="fill: #ffc939; fill-opacity: 0.75; stroke: #000000; stroke-width: 0.8; stroke-linejoin: miter"/>
   </g>
   <g id="patch_74">
    <path d="M 360.278337 508.666637 
L 371.962957 508.666637 
L 371.962957 485.059617 
L 360.278337 485.059617 
z
" clip-path="url(#pb2e0878406)" style="fill: #ffc939; fill-opacity: 0.75; stroke: #000000; stroke-width: 0.8; stroke-linejoin: miter"/>
   </g>
   <g id="patch_75">
    <path d="M 371.962957 508.927488 
L 383.647577 508.927488 
L 383.647577 492.233021 
L 371.962957 492.233021 
z
" clip-path="url(#pb2e0878406)" style="fill: #ffc939; fill-opacity: 0.75; stroke: #000000; stroke-width: 0.8; stroke-linejoin: miter"/>
   </g>
   <g id="patch_76">
    <path d="M 383.647577 508.014509 
L 395.332198 508.014509 
L 395.332198 478.929617 
L 383.647577 478.929617 
z
" clip-path="url(#pb2e0878406)" style="fill: #ffc939; fill-opacity: 0.75; stroke: #000000; stroke-width: 0.8; stroke-linejoin: miter"/>
   </g>
   <g id="patch_77">
    <path d="M 395.332198 508.666637 
L 407.016818 508.666637 
L 407.016818 484.407489 
L 395.332198 484.407489 
z
" clip-path="url(#pb2e0878406)" style="fill: #ffc939; fill-opacity: 0.75; stroke: #000000; stroke-width: 0.8; stroke-linejoin: miter"/>
   </g>
   <g id="patch_78">
    <path d="M 407.016818 506.449403 
L 418.701438 506.449403 
L 418.701438 464.84366 
L 407.016818 464.84366 
z
" clip-path="url(#pb2e0878406)" style="fill: #ffc939; fill-opacity: 0.75; stroke: #000000; stroke-width: 0.8; stroke-linejoin: miter"/>
   </g>
   <g id="patch_79">
    <path d="M 418.701438 509.44919 
L 430.386058 509.44919 
L 430.386058 480.625149 
L 418.701438 480.625149 
z
" clip-path="url(#pb2e0878406)" style="fill: #ffc939; fill-opacity: 0.75; stroke: #000000; stroke-width: 0.8; stroke-linejoin: miter"/>
   </g>
   <g id="patch_80">
    <path d="M 430.386058 506.971105 
L 442.070678 506.971105 
L 442.070678 465.234937 
L 430.386058 465.234937 
z
" clip-path="url(#pb2e0878406)" style="fill: #ffc939; fill-opacity: 0.75; stroke: #000000; stroke-width: 0.8; stroke-linejoin: miter"/>
   </g>
   <g id="patch_81">
    <path d="M 442.070678 507.884084 
L 453.755298 507.884084 
L 453.755298 477.10366 
L 442.070678 477.10366 
z
" clip-path="url(#pb2e0878406)" style="fill: #ffc939; fill-opacity: 0.75; stroke: #000000; stroke-width: 0.8; stroke-linejoin: miter"/>
   </g>
   <g id="patch_82">
    <path d="M 453.755298 508.014509 
L 465.439918 508.014509 
L 465.439918 469.930256 
L 453.755298 469.930256 
z
" clip-path="url(#pb2e0878406)" style="fill: #ffc939; fill-opacity: 0.75; stroke: #000000; stroke-width: 0.8; stroke-linejoin: miter"/>
   </g>
   <g id="patch_83">
    <path d="M 465.439918 508.927488 
L 477.124538 508.927488 
L 477.124538 481.016425 
L 465.439918 481.016425 
z
" clip-path="url(#pb2e0878406)" style="fill: #ffc939; fill-opacity: 0.75; stroke: #000000; stroke-width: 0.8; stroke-linejoin: miter"/>
   </g>
   <g id="patch_84">
    <path d="M 477.124538 509.579616 
L 488.809159 509.579616 
L 488.809159 479.973021 
L 477.124538 479.973021 
z
" clip-path="url(#pb2e0878406)" style="fill: #ffc939; fill-opacity: 0.75; stroke: #000000; stroke-width: 0.8; stroke-linejoin: miter"/>
   </g>
   <g id="patch_85">
    <path d="M 488.809159 509.840467 
L 500.493779 509.840467 
L 500.493779 484.016212 
L 488.809159 484.016212 
z
" clip-path="url(#pb2e0878406)" style="fill: #ffc939; fill-opacity: 0.75; stroke: #000000; stroke-width: 0.8; stroke-linejoin: miter"/>
   </g>
   <g id="patch_86">
    <path d="M 500.493779 508.666637 
L 512.178399 508.666637 
L 512.178399 482.190255 
L 500.493779 482.190255 
z
" clip-path="url(#pb2e0878406)" style="fill: #ffc939; fill-opacity: 0.75; stroke: #000000; stroke-width: 0.8; stroke-linejoin: miter"/>
   </g>
   <g id="patch_87">
    <path d="M 512.178399 509.44919 
L 523.863019 509.44919 
L 523.863019 488.581106 
L 512.178399 488.581106 
z
" clip-path="url(#pb2e0878406)" style="fill: #ffc939; fill-opacity: 0.75; stroke: #000000; stroke-width: 0.8; stroke-linejoin: miter"/>
   </g>
   <g id="patch_88">
    <path d="M 523.863019 510.62302 
L 535.547639 510.62302 
L 535.547639 489.885361 
L 523.863019 489.885361 
z
" clip-path="url(#pb2e0878406)" style="fill: #ffc939; fill-opacity: 0.75; stroke: #000000; stroke-width: 0.8; stroke-linejoin: miter"/>
   </g>
   <g id="patch_89">
    <path d="M 535.547639 510.62302 
L 547.232259 510.62302 
L 547.232259 496.667488 
L 535.547639 496.667488 
z
" clip-path="url(#pb2e0878406)" style="fill: #ffc939; fill-opacity: 0.75; stroke: #000000; stroke-width: 0.8; stroke-linejoin: miter"/>
   </g>
   <g id="patch_90">
    <path d="M 547.232259 510.62302 
L 558.916879 510.62302 
L 558.916879 489.102808 
L 547.232259 489.102808 
z
" clip-path="url(#pb2e0878406)" style="fill: #ffc939; fill-opacity: 0.75; stroke: #000000; stroke-width: 0.8; stroke-linejoin: miter"/>
   </g>
   <g id="patch_91">
    <path d="M 558.916879 511.405573 
L 570.6015 511.405573 
L 570.6015 497.841318 
L 558.916879 497.841318 
z
" clip-path="url(#pb2e0878406)" style="fill: #ffc939; fill-opacity: 0.75; stroke: #000000; stroke-width: 0.8; stroke-linejoin: miter"/>
   </g>
   <g id="patch_92">
    <path d="M 570.6015 510.492594 
L 582.28612 510.492594 
L 582.28612 495.493659 
L 570.6015 495.493659 
z
" clip-path="url(#pb2e0878406)" style="fill: #ffc939; fill-opacity: 0.75; stroke: #000000; stroke-width: 0.8; stroke-linejoin: miter"/>
   </g>
   <g id="patch_93">
    <path d="M 582.28612 511.666424 
L 593.97074 511.666424 
L 593.97074 502.667063 
L 582.28612 502.667063 
z
" clip-path="url(#pb2e0878406)" style="fill: #ffc939; fill-opacity: 0.75; stroke: #000000; stroke-width: 0.8; stroke-linejoin: miter"/>
   </g>
   <g id="patch_94">
    <path d="M 593.97074 511.535998 
L 605.65536 511.535998 
L 605.65536 503.971318 
L 593.97074 503.971318 
z
" clip-path="url(#pb2e0878406)" style="fill: #ffc939; fill-opacity: 0.75; stroke: #000000; stroke-width: 0.8; stroke-linejoin: miter"/>
   </g>
   <g id="patch_95">
    <path d="M 605.65536 511.275147 
L 617.33998 511.275147 
L 617.33998 503.058339 
L 605.65536 503.058339 
z
" clip-path="url(#pb2e0878406)" style="fill: #ffc939; fill-opacity: 0.75; stroke: #000000; stroke-width: 0.8; stroke-linejoin: miter"/>
   </g>
   <g id="patch_96">
    <path d="M 617.33998 510.883871 
L 629.0246 510.883871 
L 629.0246 502.145361 
L 617.33998 502.145361 
z
" clip-path="url(#pb2e0878406)" style="fill: #ffc939; fill-opacity: 0.75; stroke: #000000; stroke-width: 0.8; stroke-linejoin: miter"/>
   </g>
   <g id="patch_97">
    <path d="M 629.0246 511.014296 
L 640.70922 511.014296 
L 640.70922 505.014722 
L 629.0246 505.014722 
z
" clip-path="url(#pb2e0878406)" style="fill: #ffc939; fill-opacity: 0.75; stroke: #000000; stroke-width: 0.8; stroke-linejoin: miter"/>
   </g>
   <g id="patch_98">
    <path d="M 640.70922 511.275147 
L 652.39384 511.275147 
L 652.39384 501.623658 
L 640.70922 501.623658 
z
" clip-path="url(#pb2e0878406)" style="fill: #ffc939; fill-opacity: 0.75; stroke: #000000; stroke-width: 0.8; stroke-linejoin: miter"/>
   </g>
   <g id="patch_99">
    <path d="M 652.39384 510.753445 
L 664.078461 510.753445 
L 664.078461 499.145573 
L 652.39384 499.145573 
z
" clip-path="url(#pb2e0878406)" style="fill: #ffc939; fill-opacity: 0.75; stroke: #000000; stroke-width: 0.8; stroke-linejoin: miter"/>
   </g>
   <g id="patch_100">
    <path d="M 664.078461 511.275147 
L 675.763081 511.275147 
L 675.763081 502.927914 
L 664.078461 502.927914 
z
" clip-path="url(#pb2e0878406)" style="fill: #ffc939; fill-opacity: 0.75; stroke: #000000; stroke-width: 0.8; stroke-linejoin: miter"/>
   </g>
   <g id="patch_101">
    <path d="M 103.216694 478.799191 
L 114.901314 478.799191 
L 114.901314 477.625362 
L 103.216694 477.625362 
z
" clip-path="url(#pb2e0878406)" style="fill: #ff5347; fill-opacity: 0.75; stroke: #000000; stroke-width: 0.8; stroke-linejoin: miter"/>
   </g>
   <g id="patch_102">
    <path d="M 114.901314 473.843021 
L 126.585935 473.843021 
L 126.585935 471.104085 
L 114.901314 471.104085 
z
" clip-path="url(#pb2e0878406)" style="fill: #ff5347; fill-opacity: 0.75; stroke: #000000; stroke-width: 0.8; stroke-linejoin: miter"/>
   </g>
   <g id="patch_103">
    <path d="M 126.585935 444.627704 
L 138.270555 444.627704 
L 138.270555 444.106002 
L 126.585935 444.106002 
z
" clip-path="url(#pb2e0878406)" style="fill: #ff5347; fill-opacity: 0.75; stroke: #000000; stroke-width: 0.8; stroke-linejoin: miter"/>
   </g>
   <g id="patch_104">
    <path d="M 138.270555 495.493659 
L 149.955175 495.493659 
L 149.955175 486.233446 
L 138.270555 486.233446 
z
" clip-path="url(#pb2e0878406)" style="fill: #ff5347; fill-opacity: 0.75; stroke: #000000; stroke-width: 0.8; stroke-linejoin: miter"/>
   </g>
   <g id="patch_105">
    <path d="M 149.955175 507.492807 
L 161.639795 507.492807 
L 161.639795 504.101743 
L 149.955175 504.101743 
z
" clip-path="url(#pb2e0878406)" style="fill: #ff5347; fill-opacity: 0.75; stroke: #000000; stroke-width: 0.8; stroke-linejoin: miter"/>
   </g>
   <g id="patch_106">
    <path d="M 161.639795 511.535998 
L 173.324415 511.535998 
L 173.324415 511.405573 
L 161.639795 511.405573 
z
" clip-path="url(#pb2e0878406)" style="fill: #ff5347; fill-opacity: 0.75; stroke: #000000; stroke-width: 0.8; stroke-linejoin: miter"/>
   </g>
   <g id="patch_107">
    <path d="M 173.324415 510.362169 
L 185.009035 510.362169 
L 185.009035 509.840467 
L 173.324415 509.840467 
z
" clip-path="url(#pb2e0878406)" style="fill: #ff5347; fill-opacity: 0.75; stroke: #000000; stroke-width: 0.8; stroke-linejoin: miter"/>
   </g>
   <g id="patch_108">
    <path d="M 185.009035 510.753445 
L 196.693655 510.753445 
L 196.693655 510.231743 
L 185.009035 510.231743 
z
" clip-path="url(#pb2e0878406)" style="fill: #ff5347; fill-opacity: 0.75; stroke: #000000; stroke-width: 0.8; stroke-linejoin: miter"/>
   </g>
   <g id="patch_109">
    <path d="M 196.693655 509.970892 
L 208.378275 509.970892 
L 208.378275 508.927488 
L 196.693655 508.927488 
z
" clip-path="url(#pb2e0878406)" style="fill: #ff5347; fill-opacity: 0.75; stroke: #000000; stroke-width: 0.8; stroke-linejoin: miter"/>
   </g>
   <g id="patch_110">
    <path d="M 208.378275 510.492594 
L 220.062896 510.492594 
L 220.062896 509.970892 
L 208.378275 509.970892 
z
" clip-path="url(#pb2e0878406)" style="fill: #ff5347; fill-opacity: 0.75; stroke: #000000; stroke-width: 0.8; stroke-linejoin: miter"/>
   </g>
   <g id="patch_111">
    <path d="M 220.062896 508.666637 
L 231.747516 508.666637 
L 231.747516 505.405999 
L 220.062896 505.405999 
z
" clip-path="url(#pb2e0878406)" style="fill: #ff5347; fill-opacity: 0.75; stroke: #000000; stroke-width: 0.8; stroke-linejoin: miter"/>
   </g>
   <g id="patch_112">
    <path d="M 231.747516 510.362169 
L 243.432136 510.362169 
L 243.432136 508.014509 
L 231.747516 508.014509 
z
" clip-path="url(#pb2e0878406)" style="fill: #ff5347; fill-opacity: 0.75; stroke: #000000; stroke-width: 0.8; stroke-linejoin: miter"/>
   </g>
   <g id="patch_113">
    <path d="M 243.432136 509.44919 
L 255.116756 509.44919 
L 255.116756 503.710467 
L 243.432136 503.710467 
z
" clip-path="url(#pb2e0878406)" style="fill: #ff5347; fill-opacity: 0.75; stroke: #000000; stroke-width: 0.8; stroke-linejoin: miter"/>
   </g>
   <g id="patch_114">
    <path d="M 255.116756 506.840679 
L 266.801376 506.840679 
L 266.801376 496.537063 
L 255.116756 496.537063 
z
" clip-path="url(#pb2e0878406)" style="fill: #ff5347; fill-opacity: 0.75; stroke: #000000; stroke-width: 0.8; stroke-linejoin: miter"/>
   </g>
   <g id="patch_115">
    <path d="M 266.801376 505.145148 
L 278.485996 505.145148 
L 278.485996 493.40685 
L 266.801376 493.40685 
z
" clip-path="url(#pb2e0878406)" style="fill: #ff5347; fill-opacity: 0.75; stroke: #000000; stroke-width: 0.8; stroke-linejoin: miter"/>
   </g>
   <g id="patch_116">
    <path d="M 278.485996 506.188552 
L 290.170616 506.188552 
L 290.170616 491.580893 
L 278.485996 491.580893 
z
" clip-path="url(#pb2e0878406)" style="fill: #ff5347; fill-opacity: 0.75; stroke: #000000; stroke-width: 0.8; stroke-linejoin: miter"/>
   </g>
   <g id="patch_117">
    <path d="M 290.170616 503.710467 
L 301.855237 503.710467 
L 301.855237 476.973234 
L 290.170616 476.973234 
z
" clip-path="url(#pb2e0878406)" style="fill: #ff5347; fill-opacity: 0.75; stroke: #000000; stroke-width: 0.8; stroke-linejoin: miter"/>
   </g>
   <g id="patch_118">
    <path d="M 301.855237 506.840679 
L 313.539857 506.840679 
L 313.539857 487.928978 
L 301.855237 487.928978 
z
" clip-path="url(#pb2e0878406)" style="fill: #ff5347; fill-opacity: 0.75; stroke: #000000; stroke-width: 0.8; stroke-linejoin: miter"/>
   </g>
   <g id="patch_119">
    <path d="M 313.539857 498.36302 
L 325.224477 498.36302 
L 325.224477 458.844086 
L 313.539857 458.844086 
z
" clip-path="url(#pb2e0878406)" style="fill: #ff5347; fill-opacity: 0.75; stroke: #000000; stroke-width: 0.8; stroke-linejoin: miter"/>
   </g>
   <g id="patch_120">
    <path d="M 325.224477 506.058126 
L 336.909097 506.058126 
L 336.909097 479.060043 
L 325.224477 479.060043 
z
" clip-path="url(#pb2e0878406)" style="fill: #ff5347; fill-opacity: 0.75; stroke: #000000; stroke-width: 0.8; stroke-linejoin: miter"/>
   </g>
   <g id="patch_121">
    <path d="M 336.909097 501.754084 
L 348.593717 501.754084 
L 348.593717 470.451958 
L 336.909097 470.451958 
z
" clip-path="url(#pb2e0878406)" style="fill: #ff5347; fill-opacity: 0.75; stroke: #000000; stroke-width: 0.8; stroke-linejoin: miter"/>
   </g>
   <g id="patch_122">
    <path d="M 348.593717 501.232382 
L 360.278337 501.232382 
L 360.278337 468.495575 
L 348.593717 468.495575 
z
" clip-path="url(#pb2e0878406)" style="fill: #ff5347; fill-opacity: 0.75; stroke: #000000; stroke-width: 0.8; stroke-linejoin: miter"/>
   </g>
   <g id="patch_123">
    <path d="M 360.278337 485.059617 
L 371.962957 485.059617 
L 371.962957 403.282812 
L 360.278337 403.282812 
z
" clip-path="url(#pb2e0878406)" style="fill: #ff5347; fill-opacity: 0.75; stroke: #000000; stroke-width: 0.8; stroke-linejoin: miter"/>
   </g>
   <g id="patch_124">
    <path d="M 371.962957 492.233021 
L 383.647577 492.233021 
L 383.647577 432.367704 
L 371.962957 432.367704 
z
" clip-path="url(#pb2e0878406)" style="fill: #ff5347; fill-opacity: 0.75; stroke: #000000; stroke-width: 0.8; stroke-linejoin: miter"/>
   </g>
   <g id="patch_125">
    <path d="M 383.647577 478.929617 
L 395.332198 478.929617 
L 395.332198 390.761962 
L 383.647577 390.761962 
z
" clip-path="url(#pb2e0878406)" style="fill: #ff5347; fill-opacity: 0.75; stroke: #000000; stroke-width: 0.8; stroke-linejoin: miter"/>
   </g>
   <g id="patch_126">
    <path d="M 395.332198 484.407489 
L 407.016818 484.407489 
L 407.016818 391.805366 
L 395.332198 391.805366 
z
" clip-path="url(#pb2e0878406)" style="fill: #ff5347; fill-opacity: 0.75; stroke: #000000; stroke-width: 0.8; stroke-linejoin: miter"/>
   </g>
   <g id="patch_127">
    <path d="M 407.016818 464.84366 
L 418.701438 464.84366 
L 418.701438 328.940262 
L 407.016818 328.940262 
z
" clip-path="url(#pb2e0878406)" style="fill: #ff5347; fill-opacity: 0.75; stroke: #000000; stroke-width: 0.8; stroke-linejoin: miter"/>
   </g>
   <g id="patch_128">
    <path d="M 418.701438 480.625149 
L 430.386058 480.625149 
L 430.386058 380.980047 
L 418.701438 380.980047 
z
" clip-path="url(#pb2e0878406)" style="fill: #ff5347; fill-opacity: 0.75; stroke: #000000; stroke-width: 0.8; stroke-linejoin: miter"/>
   </g>
   <g id="patch_129">
    <path d="M 430.386058 465.234937 
L 442.070678 465.234937 
L 442.070678 276.378776 
L 430.386058 276.378776 
z
" clip-path="url(#pb2e0878406)" style="fill: #ff5347; fill-opacity: 0.75; stroke: #000000; stroke-width: 0.8; stroke-linejoin: miter"/>
   </g>
   <g id="patch_130">
    <path d="M 442.070678 477.10366 
L 453.755298 477.10366 
L 453.755298 331.809624 
L 442.070678 331.809624 
z
" clip-path="url(#pb2e0878406)" style="fill: #ff5347; fill-opacity: 0.75; stroke: #000000; stroke-width: 0.8; stroke-linejoin: miter"/>
   </g>
   <g id="patch_131">
    <path d="M 453.755298 469.930256 
L 465.439918 469.930256 
L 465.439918 281.334946 
L 453.755298 281.334946 
z
" clip-path="url(#pb2e0878406)" style="fill: #ff5347; fill-opacity: 0.75; stroke: #000000; stroke-width: 0.8; stroke-linejoin: miter"/>
   </g>
   <g id="patch_132">
    <path d="M 465.439918 481.016425 
L 477.124538 481.016425 
L 477.124538 299.333668 
L 465.439918 299.333668 
z
" clip-path="url(#pb2e0878406)" style="fill: #ff5347; fill-opacity: 0.75; stroke: #000000; stroke-width: 0.8; stroke-linejoin: miter"/>
   </g>
   <g id="patch_133">
    <path d="M 477.124538 479.973021 
L 488.809159 479.973021 
L 488.809159 259.032181 
L 477.124538 259.032181 
z
" clip-path="url(#pb2e0878406)" style="fill: #ff5347; fill-opacity: 0.75; stroke: #000000; stroke-width: 0.8; stroke-linejoin: miter"/>
   </g>
   <g id="patch_134">
    <path d="M 488.809159 484.016212 
L 500.493779 484.016212 
L 500.493779 277.291754 
L 488.809159 277.291754 
z
" clip-path="url(#pb2e0878406)" style="fill: #ff5347; fill-opacity: 0.75; stroke: #000000; stroke-width: 0.8; stroke-linejoin: miter"/>
   </g>
   <g id="patch_135">
    <path d="M 500.493779 482.190255 
L 512.178399 482.190255 
L 512.178399 207.122821 
L 500.493779 207.122821 
z
" clip-path="url(#pb2e0878406)" style="fill: #ff5347; fill-opacity: 0.75; stroke: #000000; stroke-width: 0.8; stroke-linejoin: miter"/>
   </g>
   <g id="patch_136">
    <path d="M 512.178399 488.581106 
L 523.863019 488.581106 
L 523.863019 250.29367 
L 512.178399 250.29367 
z
" clip-path="url(#pb2e0878406)" style="fill: #ff5347; fill-opacity: 0.75; stroke: #000000; stroke-width: 0.8; stroke-linejoin: miter"/>
   </g>
   <g id="patch_137">
    <path d="M 523.863019 489.885361 
L 535.547639 489.885361 
L 535.547639 232.555799 
L 523.863019 232.555799 
z
" clip-path="url(#pb2e0878406)" style="fill: #ff5347; fill-opacity: 0.75; stroke: #000000; stroke-width: 0.8; stroke-linejoin: miter"/>
   </g>
   <g id="patch_138">
    <path d="M 535.547639 496.667488 
L 547.232259 496.667488 
L 547.232259 212.078991 
L 535.547639 212.078991 
z
" clip-path="url(#pb2e0878406)" style="fill: #ff5347; fill-opacity: 0.75; stroke: #000000; stroke-width: 0.8; stroke-linejoin: miter"/>
   </g>
   <g id="patch_139">
    <path d="M 547.232259 489.102808 
L 558.916879 489.102808 
L 558.916879 159.126228 
L 547.232259 159.126228 
z
" clip-path="url(#pb2e0878406)" style="fill: #ff5347; fill-opacity: 0.75; stroke: #000000; stroke-width: 0.8; stroke-linejoin: miter"/>
   </g>
   <g id="patch_140">
    <path d="M 558.916879 497.841318 
L 570.6015 497.841318 
L 570.6015 221.991331 
L 558.916879 221.991331 
z
" clip-path="url(#pb2e0878406)" style="fill: #ff5347; fill-opacity: 0.75; stroke: #000000; stroke-width: 0.8; stroke-linejoin: miter"/>
   </g>
   <g id="patch_141">
    <path d="M 570.6015 495.493659 
L 582.28612 495.493659 
L 582.28612 93.130912 
L 570.6015 93.130912 
z
" clip-path="url(#pb2e0878406)" style="fill: #ff5347; fill-opacity: 0.75; stroke: #000000; stroke-width: 0.8; stroke-linejoin: miter"/>
   </g>
   <g id="patch_142">
    <path d="M 582.28612 502.667063 
L 593.97074 502.667063 
L 593.97074 242.207288 
L 582.28612 242.207288 
z
" clip-path="url(#pb2e0878406)" style="fill: #ff5347; fill-opacity: 0.75; stroke: #000000; stroke-width: 0.8; stroke-linejoin: miter"/>
   </g>
   <g id="patch_143">
    <path d="M 593.97074 503.971318 
L 605.65536 503.971318 
L 605.65536 197.340907 
L 593.97074 197.340907 
z
" clip-path="url(#pb2e0878406)" style="fill: #ff5347; fill-opacity: 0.75; stroke: #000000; stroke-width: 0.8; stroke-linejoin: miter"/>
   </g>
   <g id="patch_144">
    <path d="M 605.65536 503.058339 
L 617.33998 503.058339 
L 617.33998 180.385589 
L 605.65536 180.385589 
z
" clip-path="url(#pb2e0878406)" style="fill: #ff5347; fill-opacity: 0.75; stroke: #000000; stroke-width: 0.8; stroke-linejoin: miter"/>
   </g>
   <g id="patch_145">
    <path d="M 617.33998 502.145361 
L 629.0246 502.145361 
L 629.0246 200.340694 
L 617.33998 200.340694 
z
" clip-path="url(#pb2e0878406)" style="fill: #ff5347; fill-opacity: 0.75; stroke: #000000; stroke-width: 0.8; stroke-linejoin: miter"/>
   </g>
   <g id="patch_146">
    <path d="M 629.0246 505.014722 
L 640.70922 505.014722 
L 640.70922 217.556863 
L 629.0246 217.556863 
z
" clip-path="url(#pb2e0878406)" style="fill: #ff5347; fill-opacity: 0.75; stroke: #000000; stroke-width: 0.8; stroke-linejoin: miter"/>
   </g>
   <g id="patch_147">
    <path d="M 640.70922 501.623658 
L 652.39384 501.623658 
L 652.39384 118.172613 
L 640.70922 118.172613 
z
" clip-path="url(#pb2e0878406)" style="fill: #ff5347; fill-opacity: 0.75; stroke: #000000; stroke-width: 0.8; stroke-linejoin: miter"/>
   </g>
   <g id="patch_148">
    <path d="M 652.39384 499.145573 
L 664.078461 499.145573 
L 664.078461 112.303464 
L 652.39384 112.303464 
z
" clip-path="url(#pb2e0878406)" style="fill: #ff5347; fill-opacity: 0.75; stroke: #000000; stroke-width: 0.8; stroke-linejoin: miter"/>
   </g>
   <g id="patch_149">
    <path d="M 664.078461 502.927914 
L 675.763081 502.927914 
L 675.763081 148.300909 
L 664.078461 148.300909 
z
" clip-path="url(#pb2e0878406)" style="fill: #ff5347; fill-opacity: 0.75; stroke: #000000; stroke-width: 0.8; stroke-linejoin: miter"/>
   </g>
   <g id="matplotlib.axis_1">
    <g id="xtick_1">
     <g id="line2d_1">
      <defs>
       <path id="m2f83348b6c" d="M 0 0 
L 0 4.8 
" style="stroke: #000000"/>
      </defs>
      <g>
       <use xlink:href="#m2f83348b6c" x="109.059004" y="511.927275" style="stroke: #000000"/>
      </g>
     </g>
     <g id="text_1">
      <!-- 2 -->
      <g transform="translate(105.241504 529.3454)scale(0.12 -0.12)">
       <defs>
        <path id="DejaVuSans-32" d="M 1228 531 
L 3431 531 
L 3431 0 
L 469 0 
L 469 531 
Q 828 903 1448 1529 
Q 2069 2156 2228 2338 
Q 2531 2678 2651 2914 
Q 2772 3150 2772 3378 
Q 2772 3750 2511 3984 
Q 2250 4219 1831 4219 
Q 1534 4219 1204 4116 
Q 875 4013 500 3803 
L 500 4441 
Q 881 4594 1212 4672 
Q 1544 4750 1819 4750 
Q 2544 4750 2975 4387 
Q 3406 4025 3406 3419 
Q 3406 3131 3298 2873 
Q 3191 2616 2906 2266 
Q 2828 2175 2409 1742 
Q 1991 1309 1228 531 
z
" transform="scale(0.015625)"/>
       </defs>
       <use xlink:href="#DejaVuSans-32"/>
      </g>
     </g>
    </g>
    <g id="xtick_2">
     <g id="line2d_2">
      <g>
       <use xlink:href="#m2f83348b6c" x="120.743625" y="511.927275" style="stroke: #000000"/>
      </g>
     </g>
     <g id="text_2">
      <!-- 3 -->
      <g transform="translate(116.926125 529.3454)scale(0.12 -0.12)">
       <defs>
        <path id="DejaVuSans-33" d="M 2597 2516 
Q 3050 2419 3304 2112 
Q 3559 1806 3559 1356 
Q 3559 666 3084 287 
Q 2609 -91 1734 -91 
Q 1441 -91 1130 -33 
Q 819 25 488 141 
L 488 750 
Q 750 597 1062 519 
Q 1375 441 1716 441 
Q 2309 441 2620 675 
Q 2931 909 2931 1356 
Q 2931 1769 2642 2001 
Q 2353 2234 1838 2234 
L 1294 2234 
L 1294 2753 
L 1863 2753 
Q 2328 2753 2575 2939 
Q 2822 3125 2822 3475 
Q 2822 3834 2567 4026 
Q 2313 4219 1838 4219 
Q 1578 4219 1281 4162 
Q 984 4106 628 3988 
L 628 4550 
Q 988 4650 1302 4700 
Q 1616 4750 1894 4750 
Q 2613 4750 3031 4423 
Q 3450 4097 3450 3541 
Q 3450 3153 3228 2886 
Q 3006 2619 2597 2516 
z
" transform="scale(0.015625)"/>
       </defs>
       <use xlink:href="#DejaVuSans-33"/>
      </g>
     </g>
    </g>
    <g id="xtick_3">
     <g id="line2d_3">
      <g>
       <use xlink:href="#m2f83348b6c" x="132.428245" y="511.927275" style="stroke: #000000"/>
      </g>
     </g>
     <g id="text_3">
      <!-- 4 -->
      <g transform="translate(128.610745 529.3454)scale(0.12 -0.12)">
       <defs>
        <path id="DejaVuSans-34" d="M 2419 4116 
L 825 1625 
L 2419 1625 
L 2419 4116 
z
M 2253 4666 
L 3047 4666 
L 3047 1625 
L 3713 1625 
L 3713 1100 
L 3047 1100 
L 3047 0 
L 2419 0 
L 2419 1100 
L 313 1100 
L 313 1709 
L 2253 4666 
z
" transform="scale(0.015625)"/>
       </defs>
       <use xlink:href="#DejaVuSans-34"/>
      </g>
     </g>
    </g>
    <g id="xtick_4">
     <g id="line2d_4">
      <g>
       <use xlink:href="#m2f83348b6c" x="144.112865" y="511.927275" style="stroke: #000000"/>
      </g>
     </g>
     <g id="text_4">
      <!-- 5 -->
      <g transform="translate(140.295365 529.3454)scale(0.12 -0.12)">
       <defs>
        <path id="DejaVuSans-35" d="M 691 4666 
L 3169 4666 
L 3169 4134 
L 1269 4134 
L 1269 2991 
Q 1406 3038 1543 3061 
Q 1681 3084 1819 3084 
Q 2600 3084 3056 2656 
Q 3513 2228 3513 1497 
Q 3513 744 3044 326 
Q 2575 -91 1722 -91 
Q 1428 -91 1123 -41 
Q 819 9 494 109 
L 494 744 
Q 775 591 1075 516 
Q 1375 441 1709 441 
Q 2250 441 2565 725 
Q 2881 1009 2881 1497 
Q 2881 1984 2565 2268 
Q 2250 2553 1709 2553 
Q 1456 2553 1204 2497 
Q 953 2441 691 2322 
L 691 4666 
z
" transform="scale(0.015625)"/>
       </defs>
       <use xlink:href="#DejaVuSans-35"/>
      </g>
     </g>
    </g>
    <g id="xtick_5">
     <g id="line2d_5">
      <g>
       <use xlink:href="#m2f83348b6c" x="155.797485" y="511.927275" style="stroke: #000000"/>
      </g>
     </g>
     <g id="text_5">
      <!-- 6 -->
      <g transform="translate(151.979985 529.3454)scale(0.12 -0.12)">
       <defs>
        <path id="DejaVuSans-36" d="M 2113 2584 
Q 1688 2584 1439 2293 
Q 1191 2003 1191 1497 
Q 1191 994 1439 701 
Q 1688 409 2113 409 
Q 2538 409 2786 701 
Q 3034 994 3034 1497 
Q 3034 2003 2786 2293 
Q 2538 2584 2113 2584 
z
M 3366 4563 
L 3366 3988 
Q 3128 4100 2886 4159 
Q 2644 4219 2406 4219 
Q 1781 4219 1451 3797 
Q 1122 3375 1075 2522 
Q 1259 2794 1537 2939 
Q 1816 3084 2150 3084 
Q 2853 3084 3261 2657 
Q 3669 2231 3669 1497 
Q 3669 778 3244 343 
Q 2819 -91 2113 -91 
Q 1303 -91 875 529 
Q 447 1150 447 2328 
Q 447 3434 972 4092 
Q 1497 4750 2381 4750 
Q 2619 4750 2861 4703 
Q 3103 4656 3366 4563 
z
" transform="scale(0.015625)"/>
       </defs>
       <use xlink:href="#DejaVuSans-36"/>
      </g>
     </g>
    </g>
    <g id="xtick_6">
     <g id="line2d_6">
      <g>
       <use xlink:href="#m2f83348b6c" x="202.535965" y="511.927275" style="stroke: #000000"/>
      </g>
     </g>
     <g id="text_6">
      <!-- 10 -->
      <g transform="translate(194.900965 529.3454)scale(0.12 -0.12)">
       <defs>
        <path id="DejaVuSans-31" d="M 794 531 
L 1825 531 
L 1825 4091 
L 703 3866 
L 703 4441 
L 1819 4666 
L 2450 4666 
L 2450 531 
L 3481 531 
L 3481 0 
L 794 0 
L 794 531 
z
" transform="scale(0.015625)"/>
        <path id="DejaVuSans-30" d="M 2034 4250 
Q 1547 4250 1301 3770 
Q 1056 3291 1056 2328 
Q 1056 1369 1301 889 
Q 1547 409 2034 409 
Q 2525 409 2770 889 
Q 3016 1369 3016 2328 
Q 3016 3291 2770 3770 
Q 2525 4250 2034 4250 
z
M 2034 4750 
Q 2819 4750 3233 4129 
Q 3647 3509 3647 2328 
Q 3647 1150 3233 529 
Q 2819 -91 2034 -91 
Q 1250 -91 836 529 
Q 422 1150 422 2328 
Q 422 3509 836 4129 
Q 1250 4750 2034 4750 
z
" transform="scale(0.015625)"/>
       </defs>
       <use xlink:href="#DejaVuSans-31"/>
       <use xlink:href="#DejaVuSans-30" x="63.623047"/>
      </g>
     </g>
    </g>
    <g id="xtick_7">
     <g id="line2d_7">
      <g>
       <use xlink:href="#m2f83348b6c" x="260.959066" y="511.927275" style="stroke: #000000"/>
      </g>
     </g>
     <g id="text_7">
      <!-- 15 -->
      <g transform="translate(253.324066 529.3454)scale(0.12 -0.12)">
       <use xlink:href="#DejaVuSans-31"/>
       <use xlink:href="#DejaVuSans-35" x="63.623047"/>
      </g>
     </g>
    </g>
    <g id="xtick_8">
     <g id="line2d_8">
      <g>
       <use xlink:href="#m2f83348b6c" x="319.382167" y="511.927275" style="stroke: #000000"/>
      </g>
     </g>
     <g id="text_8">
      <!-- 20 -->
      <g transform="translate(311.747167 529.3454)scale(0.12 -0.12)">
       <use xlink:href="#DejaVuSans-32"/>
       <use xlink:href="#DejaVuSans-30" x="63.623047"/>
      </g>
     </g>
    </g>
    <g id="xtick_9">
     <g id="line2d_9">
      <g>
       <use xlink:href="#m2f83348b6c" x="377.805267" y="511.927275" style="stroke: #000000"/>
      </g>
     </g>
     <g id="text_9">
      <!-- 25 -->
      <g transform="translate(370.170267 529.3454)scale(0.12 -0.12)">
       <use xlink:href="#DejaVuSans-32"/>
       <use xlink:href="#DejaVuSans-35" x="63.623047"/>
      </g>
     </g>
    </g>
    <g id="xtick_10">
     <g id="line2d_10">
      <g>
       <use xlink:href="#m2f83348b6c" x="436.228368" y="511.927275" style="stroke: #000000"/>
      </g>
     </g>
     <g id="text_10">
      <!-- 30 -->
      <g transform="translate(428.593368 529.3454)scale(0.12 -0.12)">
       <use xlink:href="#DejaVuSans-33"/>
       <use xlink:href="#DejaVuSans-30" x="63.623047"/>
      </g>
     </g>
    </g>
    <g id="xtick_11">
     <g id="line2d_11">
      <g>
       <use xlink:href="#m2f83348b6c" x="494.651469" y="511.927275" style="stroke: #000000"/>
      </g>
     </g>
     <g id="text_11">
      <!-- 35 -->
      <g transform="translate(487.016469 529.3454)scale(0.12 -0.12)">
       <use xlink:href="#DejaVuSans-33"/>
       <use xlink:href="#DejaVuSans-35" x="63.623047"/>
      </g>
     </g>
    </g>
    <g id="xtick_12">
     <g id="line2d_12">
      <g>
       <use xlink:href="#m2f83348b6c" x="553.074569" y="511.927275" style="stroke: #000000"/>
      </g>
     </g>
     <g id="text_12">
      <!-- 40 -->
      <g transform="translate(545.439569 529.3454)scale(0.12 -0.12)">
       <use xlink:href="#DejaVuSans-34"/>
       <use xlink:href="#DejaVuSans-30" x="63.623047"/>
      </g>
     </g>
    </g>
    <g id="xtick_13">
     <g id="line2d_13">
      <g>
       <use xlink:href="#m2f83348b6c" x="611.49767" y="511.927275" style="stroke: #000000"/>
      </g>
     </g>
     <g id="text_13">
      <!-- 45 -->
      <g transform="translate(603.86267 529.3454)scale(0.12 -0.12)">
       <use xlink:href="#DejaVuSans-34"/>
       <use xlink:href="#DejaVuSans-35" x="63.623047"/>
      </g>
     </g>
    </g>
    <g id="xtick_14">
     <g id="line2d_14">
      <g>
       <use xlink:href="#m2f83348b6c" x="669.920771" y="511.927275" style="stroke: #000000"/>
      </g>
     </g>
     <g id="text_14">
      <!-- 50 -->
      <g transform="translate(662.285771 529.3454)scale(0.12 -0.12)">
       <use xlink:href="#DejaVuSans-35"/>
       <use xlink:href="#DejaVuSans-30" x="63.623047"/>
      </g>
     </g>
    </g>
    <g id="text_15">
     <!-- Motif Size (bp) -->
     <g transform="translate(338.844888 557.478838)scale(0.14 -0.14)">
      <defs>
       <path id="DejaVuSans-4d" d="M 628 4666 
L 1569 4666 
L 2759 1491 
L 3956 4666 
L 4897 4666 
L 4897 0 
L 4281 0 
L 4281 4097 
L 3078 897 
L 2444 897 
L 1241 4097 
L 1241 0 
L 628 0 
L 628 4666 
z
" transform="scale(0.015625)"/>
       <path id="DejaVuSans-6f" d="M 1959 3097 
Q 1497 3097 1228 2736 
Q 959 2375 959 1747 
Q 959 1119 1226 758 
Q 1494 397 1959 397 
Q 2419 397 2687 759 
Q 2956 1122 2956 1747 
Q 2956 2369 2687 2733 
Q 2419 3097 1959 3097 
z
M 1959 3584 
Q 2709 3584 3137 3096 
Q 3566 2609 3566 1747 
Q 3566 888 3137 398 
Q 2709 -91 1959 -91 
Q 1206 -91 779 398 
Q 353 888 353 1747 
Q 353 2609 779 3096 
Q 1206 3584 1959 3584 
z
" transform="scale(0.015625)"/>
       <path id="DejaVuSans-74" d="M 1172 4494 
L 1172 3500 
L 2356 3500 
L 2356 3053 
L 1172 3053 
L 1172 1153 
Q 1172 725 1289 603 
Q 1406 481 1766 481 
L 2356 481 
L 2356 0 
L 1766 0 
Q 1100 0 847 248 
Q 594 497 594 1153 
L 594 3053 
L 172 3053 
L 172 3500 
L 594 3500 
L 594 4494 
L 1172 4494 
z
" transform="scale(0.015625)"/>
       <path id="DejaVuSans-69" d="M 603 3500 
L 1178 3500 
L 1178 0 
L 603 0 
L 603 3500 
z
M 603 4863 
L 1178 4863 
L 1178 4134 
L 603 4134 
L 603 4863 
z
" transform="scale(0.015625)"/>
       <path id="DejaVuSans-66" d="M 2375 4863 
L 2375 4384 
L 1825 4384 
Q 1516 4384 1395 4259 
Q 1275 4134 1275 3809 
L 1275 3500 
L 2222 3500 
L 2222 3053 
L 1275 3053 
L 1275 0 
L 697 0 
L 697 3053 
L 147 3053 
L 147 3500 
L 697 3500 
L 697 3744 
Q 697 4328 969 4595 
Q 1241 4863 1831 4863 
L 2375 4863 
z
" transform="scale(0.015625)"/>
       <path id="DejaVuSans-20" transform="scale(0.015625)"/>
       <path id="DejaVuSans-53" d="M 3425 4513 
L 3425 3897 
Q 3066 4069 2747 4153 
Q 2428 4238 2131 4238 
Q 1616 4238 1336 4038 
Q 1056 3838 1056 3469 
Q 1056 3159 1242 3001 
Q 1428 2844 1947 2747 
L 2328 2669 
Q 3034 2534 3370 2195 
Q 3706 1856 3706 1288 
Q 3706 609 3251 259 
Q 2797 -91 1919 -91 
Q 1588 -91 1214 -16 
Q 841 59 441 206 
L 441 856 
Q 825 641 1194 531 
Q 1563 422 1919 422 
Q 2459 422 2753 634 
Q 3047 847 3047 1241 
Q 3047 1584 2836 1778 
Q 2625 1972 2144 2069 
L 1759 2144 
Q 1053 2284 737 2584 
Q 422 2884 422 3419 
Q 422 4038 858 4394 
Q 1294 4750 2059 4750 
Q 2388 4750 2728 4690 
Q 3069 4631 3425 4513 
z
" transform="scale(0.015625)"/>
       <path id="DejaVuSans-7a" d="M 353 3500 
L 3084 3500 
L 3084 2975 
L 922 459 
L 3084 459 
L 3084 0 
L 275 0 
L 275 525 
L 2438 3041 
L 353 3041 
L 353 3500 
z
" transform="scale(0.015625)"/>
       <path id="DejaVuSans-65" d="M 3597 1894 
L 3597 1613 
L 953 1613 
Q 991 1019 1311 708 
Q 1631 397 2203 397 
Q 2534 397 2845 478 
Q 3156 559 3463 722 
L 3463 178 
Q 3153 47 2828 -22 
Q 2503 -91 2169 -91 
Q 1331 -91 842 396 
Q 353 884 353 1716 
Q 353 2575 817 3079 
Q 1281 3584 2069 3584 
Q 2775 3584 3186 3129 
Q 3597 2675 3597 1894 
z
M 3022 2063 
Q 3016 2534 2758 2815 
Q 2500 3097 2075 3097 
Q 1594 3097 1305 2825 
Q 1016 2553 972 2059 
L 3022 2063 
z
" transform="scale(0.015625)"/>
       <path id="DejaVuSans-28" d="M 1984 4856 
Q 1566 4138 1362 3434 
Q 1159 2731 1159 2009 
Q 1159 1288 1364 580 
Q 1569 -128 1984 -844 
L 1484 -844 
Q 1016 -109 783 600 
Q 550 1309 550 2009 
Q 550 2706 781 3412 
Q 1013 4119 1484 4856 
L 1984 4856 
z
" transform="scale(0.015625)"/>
       <path id="DejaVuSans-62" d="M 3116 1747 
Q 3116 2381 2855 2742 
Q 2594 3103 2138 3103 
Q 1681 3103 1420 2742 
Q 1159 2381 1159 1747 
Q 1159 1113 1420 752 
Q 1681 391 2138 391 
Q 2594 391 2855 752 
Q 3116 1113 3116 1747 
z
M 1159 2969 
Q 1341 3281 1617 3432 
Q 1894 3584 2278 3584 
Q 2916 3584 3314 3078 
Q 3713 2572 3713 1747 
Q 3713 922 3314 415 
Q 2916 -91 2278 -91 
Q 1894 -91 1617 61 
Q 1341 213 1159 525 
L 1159 0 
L 581 0 
L 581 4863 
L 1159 4863 
L 1159 2969 
z
" transform="scale(0.015625)"/>
       <path id="DejaVuSans-70" d="M 1159 525 
L 1159 -1331 
L 581 -1331 
L 581 3500 
L 1159 3500 
L 1159 2969 
Q 1341 3281 1617 3432 
Q 1894 3584 2278 3584 
Q 2916 3584 3314 3078 
Q 3713 2572 3713 1747 
Q 3713 922 3314 415 
Q 2916 -91 2278 -91 
Q 1894 -91 1617 61 
Q 1341 213 1159 525 
z
M 3116 1747 
Q 3116 2381 2855 2742 
Q 2594 3103 2138 3103 
Q 1681 3103 1420 2742 
Q 1159 2381 1159 1747 
Q 1159 1113 1420 752 
Q 1681 391 2138 391 
Q 2594 391 2855 752 
Q 3116 1113 3116 1747 
z
" transform="scale(0.015625)"/>
       <path id="DejaVuSans-29" d="M 513 4856 
L 1013 4856 
Q 1481 4119 1714 3412 
Q 1947 2706 1947 2009 
Q 1947 1309 1714 600 
Q 1481 -109 1013 -844 
L 513 -844 
Q 928 -128 1133 580 
Q 1338 1288 1338 2009 
Q 1338 2731 1133 3434 
Q 928 4138 513 4856 
z
" transform="scale(0.015625)"/>
      </defs>
      <use xlink:href="#DejaVuSans-4d"/>
      <use xlink:href="#DejaVuSans-6f" x="86.279297"/>
      <use xlink:href="#DejaVuSans-74" x="147.460938"/>
      <use xlink:href="#DejaVuSans-69" x="186.669922"/>
      <use xlink:href="#DejaVuSans-66" x="214.453125"/>
      <use xlink:href="#DejaVuSans-20" x="249.658203"/>
      <use xlink:href="#DejaVuSans-53" x="281.445312"/>
      <use xlink:href="#DejaVuSans-69" x="344.921875"/>
      <use xlink:href="#DejaVuSans-7a" x="372.705078"/>
      <use xlink:href="#DejaVuSans-65" x="425.195312"/>
      <use xlink:href="#DejaVuSans-20" x="486.71875"/>
      <use xlink:href="#DejaVuSans-28" x="518.505859"/>
      <use xlink:href="#DejaVuSans-62" x="557.519531"/>
      <use xlink:href="#DejaVuSans-70" x="620.996094"/>
      <use xlink:href="#DejaVuSans-29" x="684.472656"/>
     </g>
    </g>
   </g>
   <g id="matplotlib.axis_2">
    <g id="ytick_1">
     <g id="line2d_15">
      <defs>
       <path id="m465128f1da" d="M 0 0 
L -4.8 0 
" style="stroke: #000000"/>
      </defs>
      <g>
       <use xlink:href="#m465128f1da" x="74.589375" y="511.927275" style="stroke: #000000"/>
      </g>
     </g>
     <g id="text_16">
      <!-- 0 -->
      <g transform="translate(58.654375 516.486337)scale(0.12 -0.12)">
       <use xlink:href="#DejaVuSans-30"/>
      </g>
     </g>
    </g>
    <g id="ytick_2">
     <g id="line2d_16">
      <g>
       <use xlink:href="#m465128f1da" x="74.589375" y="446.714512" style="stroke: #000000"/>
      </g>
     </g>
     <g id="text_17">
      <!-- 500 -->
      <g transform="translate(43.384375 451.273575)scale(0.12 -0.12)">
       <use xlink:href="#DejaVuSans-35"/>
       <use xlink:href="#DejaVuSans-30" x="63.623047"/>
       <use xlink:href="#DejaVuSans-30" x="127.246094"/>
      </g>
     </g>
    </g>
    <g id="ytick_3">
     <g id="line2d_17">
      <g>
       <use xlink:href="#m465128f1da" x="74.589375" y="381.501749" style="stroke: #000000"/>
      </g>
     </g>
     <g id="text_18">
      <!-- 1000 -->
      <g transform="translate(35.749375 386.060812)scale(0.12 -0.12)">
       <use xlink:href="#DejaVuSans-31"/>
       <use xlink:href="#DejaVuSans-30" x="63.623047"/>
       <use xlink:href="#DejaVuSans-30" x="127.246094"/>
       <use xlink:href="#DejaVuSans-30" x="190.869141"/>
      </g>
     </g>
    </g>
    <g id="ytick_4">
     <g id="line2d_18">
      <g>
       <use xlink:href="#m465128f1da" x="74.589375" y="316.288986" style="stroke: #000000"/>
      </g>
     </g>
     <g id="text_19">
      <!-- 1500 -->
      <g transform="translate(35.749375 320.848049)scale(0.12 -0.12)">
       <use xlink:href="#DejaVuSans-31"/>
       <use xlink:href="#DejaVuSans-35" x="63.623047"/>
       <use xlink:href="#DejaVuSans-30" x="127.246094"/>
       <use xlink:href="#DejaVuSans-30" x="190.869141"/>
      </g>
     </g>
    </g>
    <g id="ytick_5">
     <g id="line2d_19">
      <g>
       <use xlink:href="#m465128f1da" x="74.589375" y="251.076224" style="stroke: #000000"/>
      </g>
     </g>
     <g id="text_20">
      <!-- 2000 -->
      <g transform="translate(35.749375 255.635286)scale(0.12 -0.12)">
       <use xlink:href="#DejaVuSans-32"/>
       <use xlink:href="#DejaVuSans-30" x="63.623047"/>
       <use xlink:href="#DejaVuSans-30" x="127.246094"/>
       <use xlink:href="#DejaVuSans-30" x="190.869141"/>
      </g>
     </g>
    </g>
    <g id="ytick_6">
     <g id="line2d_20">
      <g>
       <use xlink:href="#m465128f1da" x="74.589375" y="185.863461" style="stroke: #000000"/>
      </g>
     </g>
     <g id="text_21">
      <!-- 2500 -->
      <g transform="translate(35.749375 190.422523)scale(0.12 -0.12)">
       <use xlink:href="#DejaVuSans-32"/>
       <use xlink:href="#DejaVuSans-35" x="63.623047"/>
       <use xlink:href="#DejaVuSans-30" x="127.246094"/>
       <use xlink:href="#DejaVuSans-30" x="190.869141"/>
      </g>
     </g>
    </g>
    <g id="ytick_7">
     <g id="line2d_21">
      <g>
       <use xlink:href="#m465128f1da" x="74.589375" y="120.650698" style="stroke: #000000"/>
      </g>
     </g>
     <g id="text_22">
      <!-- 3000 -->
      <g transform="translate(35.749375 125.20976)scale(0.12 -0.12)">
       <use xlink:href="#DejaVuSans-33"/>
       <use xlink:href="#DejaVuSans-30" x="63.623047"/>
       <use xlink:href="#DejaVuSans-30" x="127.246094"/>
       <use xlink:href="#DejaVuSans-30" x="190.869141"/>
      </g>
     </g>
    </g>
    <g id="text_23">
     <!-- ExpansionHunterDenovo Call Counts -->
     <g transform="translate(17.837812 420.965278)rotate(-90)scale(0.14 -0.14)">
      <defs>
       <path id="DejaVuSans-45" d="M 628 4666 
L 3578 4666 
L 3578 4134 
L 1259 4134 
L 1259 2753 
L 3481 2753 
L 3481 2222 
L 1259 2222 
L 1259 531 
L 3634 531 
L 3634 0 
L 628 0 
L 628 4666 
z
" transform="scale(0.015625)"/>
       <path id="DejaVuSans-78" d="M 3513 3500 
L 2247 1797 
L 3578 0 
L 2900 0 
L 1881 1375 
L 863 0 
L 184 0 
L 1544 1831 
L 300 3500 
L 978 3500 
L 1906 2253 
L 2834 3500 
L 3513 3500 
z
" transform="scale(0.015625)"/>
       <path id="DejaVuSans-61" d="M 2194 1759 
Q 1497 1759 1228 1600 
Q 959 1441 959 1056 
Q 959 750 1161 570 
Q 1363 391 1709 391 
Q 2188 391 2477 730 
Q 2766 1069 2766 1631 
L 2766 1759 
L 2194 1759 
z
M 3341 1997 
L 3341 0 
L 2766 0 
L 2766 531 
Q 2569 213 2275 61 
Q 1981 -91 1556 -91 
Q 1019 -91 701 211 
Q 384 513 384 1019 
Q 384 1609 779 1909 
Q 1175 2209 1959 2209 
L 2766 2209 
L 2766 2266 
Q 2766 2663 2505 2880 
Q 2244 3097 1772 3097 
Q 1472 3097 1187 3025 
Q 903 2953 641 2809 
L 641 3341 
Q 956 3463 1253 3523 
Q 1550 3584 1831 3584 
Q 2591 3584 2966 3190 
Q 3341 2797 3341 1997 
z
" transform="scale(0.015625)"/>
       <path id="DejaVuSans-6e" d="M 3513 2113 
L 3513 0 
L 2938 0 
L 2938 2094 
Q 2938 2591 2744 2837 
Q 2550 3084 2163 3084 
Q 1697 3084 1428 2787 
Q 1159 2491 1159 1978 
L 1159 0 
L 581 0 
L 581 3500 
L 1159 3500 
L 1159 2956 
Q 1366 3272 1645 3428 
Q 1925 3584 2291 3584 
Q 2894 3584 3203 3211 
Q 3513 2838 3513 2113 
z
" transform="scale(0.015625)"/>
       <path id="DejaVuSans-73" d="M 2834 3397 
L 2834 2853 
Q 2591 2978 2328 3040 
Q 2066 3103 1784 3103 
Q 1356 3103 1142 2972 
Q 928 2841 928 2578 
Q 928 2378 1081 2264 
Q 1234 2150 1697 2047 
L 1894 2003 
Q 2506 1872 2764 1633 
Q 3022 1394 3022 966 
Q 3022 478 2636 193 
Q 2250 -91 1575 -91 
Q 1294 -91 989 -36 
Q 684 19 347 128 
L 347 722 
Q 666 556 975 473 
Q 1284 391 1588 391 
Q 1994 391 2212 530 
Q 2431 669 2431 922 
Q 2431 1156 2273 1281 
Q 2116 1406 1581 1522 
L 1381 1569 
Q 847 1681 609 1914 
Q 372 2147 372 2553 
Q 372 3047 722 3315 
Q 1072 3584 1716 3584 
Q 2034 3584 2315 3537 
Q 2597 3491 2834 3397 
z
" transform="scale(0.015625)"/>
       <path id="DejaVuSans-48" d="M 628 4666 
L 1259 4666 
L 1259 2753 
L 3553 2753 
L 3553 4666 
L 4184 4666 
L 4184 0 
L 3553 0 
L 3553 2222 
L 1259 2222 
L 1259 0 
L 628 0 
L 628 4666 
z
" transform="scale(0.015625)"/>
       <path id="DejaVuSans-75" d="M 544 1381 
L 544 3500 
L 1119 3500 
L 1119 1403 
Q 1119 906 1312 657 
Q 1506 409 1894 409 
Q 2359 409 2629 706 
Q 2900 1003 2900 1516 
L 2900 3500 
L 3475 3500 
L 3475 0 
L 2900 0 
L 2900 538 
Q 2691 219 2414 64 
Q 2138 -91 1772 -91 
Q 1169 -91 856 284 
Q 544 659 544 1381 
z
M 1991 3584 
L 1991 3584 
z
" transform="scale(0.015625)"/>
       <path id="DejaVuSans-72" d="M 2631 2963 
Q 2534 3019 2420 3045 
Q 2306 3072 2169 3072 
Q 1681 3072 1420 2755 
Q 1159 2438 1159 1844 
L 1159 0 
L 581 0 
L 581 3500 
L 1159 3500 
L 1159 2956 
Q 1341 3275 1631 3429 
Q 1922 3584 2338 3584 
Q 2397 3584 2469 3576 
Q 2541 3569 2628 3553 
L 2631 2963 
z
" transform="scale(0.015625)"/>
       <path id="DejaVuSans-44" d="M 1259 4147 
L 1259 519 
L 2022 519 
Q 2988 519 3436 956 
Q 3884 1394 3884 2338 
Q 3884 3275 3436 3711 
Q 2988 4147 2022 4147 
L 1259 4147 
z
M 628 4666 
L 1925 4666 
Q 3281 4666 3915 4102 
Q 4550 3538 4550 2338 
Q 4550 1131 3912 565 
Q 3275 0 1925 0 
L 628 0 
L 628 4666 
z
" transform="scale(0.015625)"/>
       <path id="DejaVuSans-76" d="M 191 3500 
L 800 3500 
L 1894 563 
L 2988 3500 
L 3597 3500 
L 2284 0 
L 1503 0 
L 191 3500 
z
" transform="scale(0.015625)"/>
       <path id="DejaVuSans-43" d="M 4122 4306 
L 4122 3641 
Q 3803 3938 3442 4084 
Q 3081 4231 2675 4231 
Q 1875 4231 1450 3742 
Q 1025 3253 1025 2328 
Q 1025 1406 1450 917 
Q 1875 428 2675 428 
Q 3081 428 3442 575 
Q 3803 722 4122 1019 
L 4122 359 
Q 3791 134 3420 21 
Q 3050 -91 2638 -91 
Q 1578 -91 968 557 
Q 359 1206 359 2328 
Q 359 3453 968 4101 
Q 1578 4750 2638 4750 
Q 3056 4750 3426 4639 
Q 3797 4528 4122 4306 
z
" transform="scale(0.015625)"/>
       <path id="DejaVuSans-6c" d="M 603 4863 
L 1178 4863 
L 1178 0 
L 603 0 
L 603 4863 
z
" transform="scale(0.015625)"/>
      </defs>
      <use xlink:href="#DejaVuSans-45"/>
      <use xlink:href="#DejaVuSans-78" x="63.183594"/>
      <use xlink:href="#DejaVuSans-70" x="122.363281"/>
      <use xlink:href="#DejaVuSans-61" x="185.839844"/>
      <use xlink:href="#DejaVuSans-6e" x="247.119141"/>
      <use xlink:href="#DejaVuSans-73" x="310.498047"/>
      <use xlink:href="#DejaVuSans-69" x="362.597656"/>
      <use xlink:href="#DejaVuSans-6f" x="390.380859"/>
      <use xlink:href="#DejaVuSans-6e" x="451.5625"/>
      <use xlink:href="#DejaVuSans-48" x="514.941406"/>
      <use xlink:href="#DejaVuSans-75" x="590.136719"/>
      <use xlink:href="#DejaVuSans-6e" x="653.515625"/>
      <use xlink:href="#DejaVuSans-74" x="716.894531"/>
      <use xlink:href="#DejaVuSans-65" x="756.103516"/>
      <use xlink:href="#DejaVuSans-72" x="817.626953"/>
      <use xlink:href="#DejaVuSans-44" x="858.740234"/>
      <use xlink:href="#DejaVuSans-65" x="935.742188"/>
      <use xlink:href="#DejaVuSans-6e" x="997.265625"/>
      <use xlink:href="#DejaVuSans-6f" x="1060.644531"/>
      <use xlink:href="#DejaVuSans-76" x="1121.826172"/>
      <use xlink:href="#DejaVuSans-6f" x="1181.005859"/>
      <use xlink:href="#DejaVuSans-20" x="1242.1875"/>
      <use xlink:href="#DejaVuSans-43" x="1273.974609"/>
      <use xlink:href="#DejaVuSans-61" x="1343.798828"/>
      <use xlink:href="#DejaVuSans-6c" x="1405.078125"/>
      <use xlink:href="#DejaVuSans-6c" x="1432.861328"/>
      <use xlink:href="#DejaVuSans-20" x="1460.644531"/>
      <use xlink:href="#DejaVuSans-43" x="1492.431641"/>
      <use xlink:href="#DejaVuSans-6f" x="1562.255859"/>
      <use xlink:href="#DejaVuSans-75" x="1623.4375"/>
      <use xlink:href="#DejaVuSans-6e" x="1686.816406"/>
      <use xlink:href="#DejaVuSans-74" x="1750.195312"/>
      <use xlink:href="#DejaVuSans-73" x="1789.404297"/>
     </g>
    </g>
   </g>
   <g id="patch_150">
    <path d="M 74.589375 511.927275 
L 74.589375 72.191094 
" style="fill: none; stroke: #000000; stroke-linejoin: miter; stroke-linecap: square"/>
   </g>
   <g id="patch_151">
    <path d="M 74.589375 511.927275 
L 704.3904 511.927275 
" style="fill: none; stroke: #000000; stroke-linejoin: miter; stroke-linecap: square"/>
   </g>
   <g id="text_24">
    <!--  -->
    <g transform="translate(389.489888 18.597656)scale(0.15 -0.15)"/>
    <!--  -->
    <g transform="translate(389.489888 35.394375)scale(0.15 -0.15)"/>
    <!-- ExpansionHunterDenovo Calls vs Truth Set -->
    <g transform="translate(229.214888 52.191094)scale(0.15 -0.15)">
     <defs>
      <path id="DejaVuSans-54" d="M -19 4666 
L 3928 4666 
L 3928 4134 
L 2272 4134 
L 2272 0 
L 1638 0 
L 1638 4134 
L -19 4134 
L -19 4666 
z
" transform="scale(0.015625)"/>
      <path id="DejaVuSans-68" d="M 3513 2113 
L 3513 0 
L 2938 0 
L 2938 2094 
Q 2938 2591 2744 2837 
Q 2550 3084 2163 3084 
Q 1697 3084 1428 2787 
Q 1159 2491 1159 1978 
L 1159 0 
L 581 0 
L 581 4863 
L 1159 4863 
L 1159 2956 
Q 1366 3272 1645 3428 
Q 1925 3584 2291 3584 
Q 2894 3584 3203 3211 
Q 3513 2838 3513 2113 
z
" transform="scale(0.015625)"/>
     </defs>
     <use xlink:href="#DejaVuSans-45"/>
     <use xlink:href="#DejaVuSans-78" x="63.183594"/>
     <use xlink:href="#DejaVuSans-70" x="122.363281"/>
     <use xlink:href="#DejaVuSans-61" x="185.839844"/>
     <use xlink:href="#DejaVuSans-6e" x="247.119141"/>
     <use xlink:href="#DejaVuSans-73" x="310.498047"/>
     <use xlink:href="#DejaVuSans-69" x="362.597656"/>
     <use xlink:href="#DejaVuSans-6f" x="390.380859"/>
     <use xlink:href="#DejaVuSans-6e" x="451.5625"/>
     <use xlink:href="#DejaVuSans-48" x="514.941406"/>
     <use xlink:href="#DejaVuSans-75" x="590.136719"/>
     <use xlink:href="#DejaVuSans-6e" x="653.515625"/>
     <use xlink:href="#DejaVuSans-74" x="716.894531"/>
     <use xlink:href="#DejaVuSans-65" x="756.103516"/>
     <use xlink:href="#DejaVuSans-72" x="817.626953"/>
     <use xlink:href="#DejaVuSans-44" x="858.740234"/>
     <use xlink:href="#DejaVuSans-65" x="935.742188"/>
     <use xlink:href="#DejaVuSans-6e" x="997.265625"/>
     <use xlink:href="#DejaVuSans-6f" x="1060.644531"/>
     <use xlink:href="#DejaVuSans-76" x="1121.826172"/>
     <use xlink:href="#DejaVuSans-6f" x="1181.005859"/>
     <use xlink:href="#DejaVuSans-20" x="1242.1875"/>
     <use xlink:href="#DejaVuSans-43" x="1273.974609"/>
     <use xlink:href="#DejaVuSans-61" x="1343.798828"/>
     <use xlink:href="#DejaVuSans-6c" x="1405.078125"/>
     <use xlink:href="#DejaVuSans-6c" x="1432.861328"/>
     <use xlink:href="#DejaVuSans-73" x="1460.644531"/>
     <use xlink:href="#DejaVuSans-20" x="1512.744141"/>
     <use xlink:href="#DejaVuSans-76" x="1544.53125"/>
     <use xlink:href="#DejaVuSans-73" x="1603.710938"/>
     <use xlink:href="#DejaVuSans-20" x="1655.810547"/>
     <use xlink:href="#DejaVuSans-54" x="1687.597656"/>
     <use xlink:href="#DejaVuSans-72" x="1733.931641"/>
     <use xlink:href="#DejaVuSans-75" x="1775.044922"/>
     <use xlink:href="#DejaVuSans-74" x="1838.423828"/>
     <use xlink:href="#DejaVuSans-68" x="1877.632812"/>
     <use xlink:href="#DejaVuSans-20" x="1941.011719"/>
     <use xlink:href="#DejaVuSans-53" x="1972.798828"/>
     <use xlink:href="#DejaVuSans-65" x="2036.275391"/>
     <use xlink:href="#DejaVuSans-74" x="2097.798828"/>
    </g>
   </g>
   <g id="legend_1">
    <g id="patch_152">
     <path d="M 86.289375 93.769062 
L 112.289375 93.769062 
L 112.289375 84.669062 
L 86.289375 84.669062 
z
" style="fill: #ff5347; fill-opacity: 0.75; stroke: #000000; stroke-width: 0.8; stroke-linejoin: miter"/>
    </g>
    <g id="text_25">
     <!-- No expansion in truth set &amp; no matching pure repeats in hg38 -->
     <g transform="translate(122.689375 93.769062)scale(0.13 -0.13)">
      <defs>
       <path id="DejaVuSans-4e" d="M 628 4666 
L 1478 4666 
L 3547 763 
L 3547 4666 
L 4159 4666 
L 4159 0 
L 3309 0 
L 1241 3903 
L 1241 0 
L 628 0 
L 628 4666 
z
" transform="scale(0.015625)"/>
       <path id="DejaVuSans-26" d="M 1556 2509 
Q 1272 2256 1139 2004 
Q 1006 1753 1006 1478 
Q 1006 1022 1337 719 
Q 1669 416 2169 416 
Q 2466 416 2725 514 
Q 2984 613 3213 813 
L 1556 2509 
z
M 1997 2859 
L 3584 1234 
Q 3769 1513 3872 1830 
Q 3975 2147 3994 2503 
L 4575 2503 
Q 4538 2091 4375 1687 
Q 4213 1284 3922 891 
L 4794 0 
L 4006 0 
L 3559 459 
Q 3234 181 2878 45 
Q 2522 -91 2113 -91 
Q 1359 -91 881 339 
Q 403 769 403 1441 
Q 403 1841 612 2192 
Q 822 2544 1241 2853 
Q 1091 3050 1012 3245 
Q 934 3441 934 3628 
Q 934 4134 1281 4442 
Q 1628 4750 2203 4750 
Q 2463 4750 2720 4694 
Q 2978 4638 3244 4525 
L 3244 3956 
Q 2972 4103 2725 4179 
Q 2478 4256 2266 4256 
Q 1938 4256 1733 4082 
Q 1528 3909 1528 3634 
Q 1528 3475 1620 3314 
Q 1713 3153 1997 2859 
z
" transform="scale(0.015625)"/>
       <path id="DejaVuSans-6d" d="M 3328 2828 
Q 3544 3216 3844 3400 
Q 4144 3584 4550 3584 
Q 5097 3584 5394 3201 
Q 5691 2819 5691 2113 
L 5691 0 
L 5113 0 
L 5113 2094 
Q 5113 2597 4934 2840 
Q 4756 3084 4391 3084 
Q 3944 3084 3684 2787 
Q 3425 2491 3425 1978 
L 3425 0 
L 2847 0 
L 2847 2094 
Q 2847 2600 2669 2842 
Q 2491 3084 2119 3084 
Q 1678 3084 1418 2786 
Q 1159 2488 1159 1978 
L 1159 0 
L 581 0 
L 581 3500 
L 1159 3500 
L 1159 2956 
Q 1356 3278 1631 3431 
Q 1906 3584 2284 3584 
Q 2666 3584 2933 3390 
Q 3200 3197 3328 2828 
z
" transform="scale(0.015625)"/>
       <path id="DejaVuSans-63" d="M 3122 3366 
L 3122 2828 
Q 2878 2963 2633 3030 
Q 2388 3097 2138 3097 
Q 1578 3097 1268 2742 
Q 959 2388 959 1747 
Q 959 1106 1268 751 
Q 1578 397 2138 397 
Q 2388 397 2633 464 
Q 2878 531 3122 666 
L 3122 134 
Q 2881 22 2623 -34 
Q 2366 -91 2075 -91 
Q 1284 -91 818 406 
Q 353 903 353 1747 
Q 353 2603 823 3093 
Q 1294 3584 2113 3584 
Q 2378 3584 2631 3529 
Q 2884 3475 3122 3366 
z
" transform="scale(0.015625)"/>
       <path id="DejaVuSans-67" d="M 2906 1791 
Q 2906 2416 2648 2759 
Q 2391 3103 1925 3103 
Q 1463 3103 1205 2759 
Q 947 2416 947 1791 
Q 947 1169 1205 825 
Q 1463 481 1925 481 
Q 2391 481 2648 825 
Q 2906 1169 2906 1791 
z
M 3481 434 
Q 3481 -459 3084 -895 
Q 2688 -1331 1869 -1331 
Q 1566 -1331 1297 -1286 
Q 1028 -1241 775 -1147 
L 775 -588 
Q 1028 -725 1275 -790 
Q 1522 -856 1778 -856 
Q 2344 -856 2625 -561 
Q 2906 -266 2906 331 
L 2906 616 
Q 2728 306 2450 153 
Q 2172 0 1784 0 
Q 1141 0 747 490 
Q 353 981 353 1791 
Q 353 2603 747 3093 
Q 1141 3584 1784 3584 
Q 2172 3584 2450 3431 
Q 2728 3278 2906 2969 
L 2906 3500 
L 3481 3500 
L 3481 434 
z
" transform="scale(0.015625)"/>
       <path id="DejaVuSans-38" d="M 2034 2216 
Q 1584 2216 1326 1975 
Q 1069 1734 1069 1313 
Q 1069 891 1326 650 
Q 1584 409 2034 409 
Q 2484 409 2743 651 
Q 3003 894 3003 1313 
Q 3003 1734 2745 1975 
Q 2488 2216 2034 2216 
z
M 1403 2484 
Q 997 2584 770 2862 
Q 544 3141 544 3541 
Q 544 4100 942 4425 
Q 1341 4750 2034 4750 
Q 2731 4750 3128 4425 
Q 3525 4100 3525 3541 
Q 3525 3141 3298 2862 
Q 3072 2584 2669 2484 
Q 3125 2378 3379 2068 
Q 3634 1759 3634 1313 
Q 3634 634 3220 271 
Q 2806 -91 2034 -91 
Q 1263 -91 848 271 
Q 434 634 434 1313 
Q 434 1759 690 2068 
Q 947 2378 1403 2484 
z
M 1172 3481 
Q 1172 3119 1398 2916 
Q 1625 2713 2034 2713 
Q 2441 2713 2670 2916 
Q 2900 3119 2900 3481 
Q 2900 3844 2670 4047 
Q 2441 4250 2034 4250 
Q 1625 4250 1398 4047 
Q 1172 3844 1172 3481 
z
" transform="scale(0.015625)"/>
      </defs>
      <use xlink:href="#DejaVuSans-4e"/>
      <use xlink:href="#DejaVuSans-6f" x="74.804688"/>
      <use xlink:href="#DejaVuSans-20" x="135.986328"/>
      <use xlink:href="#DejaVuSans-65" x="167.773438"/>
      <use xlink:href="#DejaVuSans-78" x="227.546875"/>
      <use xlink:href="#DejaVuSans-70" x="286.726562"/>
      <use xlink:href="#DejaVuSans-61" x="350.203125"/>
      <use xlink:href="#DejaVuSans-6e" x="411.482422"/>
      <use xlink:href="#DejaVuSans-73" x="474.861328"/>
      <use xlink:href="#DejaVuSans-69" x="526.960938"/>
      <use xlink:href="#DejaVuSans-6f" x="554.744141"/>
      <use xlink:href="#DejaVuSans-6e" x="615.925781"/>
      <use xlink:href="#DejaVuSans-20" x="679.304688"/>
      <use xlink:href="#DejaVuSans-69" x="711.091797"/>
      <use xlink:href="#DejaVuSans-6e" x="738.875"/>
      <use xlink:href="#DejaVuSans-20" x="802.253906"/>
      <use xlink:href="#DejaVuSans-74" x="834.041016"/>
      <use xlink:href="#DejaVuSans-72" x="873.25"/>
      <use xlink:href="#DejaVuSans-75" x="914.363281"/>
      <use xlink:href="#DejaVuSans-74" x="977.742188"/>
      <use xlink:href="#DejaVuSans-68" x="1016.951172"/>
      <use xlink:href="#DejaVuSans-20" x="1080.330078"/>
      <use xlink:href="#DejaVuSans-73" x="1112.117188"/>
      <use xlink:href="#DejaVuSans-65" x="1164.216797"/>
      <use xlink:href="#DejaVuSans-74" x="1225.740234"/>
      <use xlink:href="#DejaVuSans-20" x="1264.949219"/>
      <use xlink:href="#DejaVuSans-26" x="1296.736328"/>
      <use xlink:href="#DejaVuSans-20" x="1374.714844"/>
      <use xlink:href="#DejaVuSans-6e" x="1406.501953"/>
      <use xlink:href="#DejaVuSans-6f" x="1469.880859"/>
      <use xlink:href="#DejaVuSans-20" x="1531.0625"/>
      <use xlink:href="#DejaVuSans-6d" x="1562.849609"/>
      <use xlink:href="#DejaVuSans-61" x="1660.261719"/>
      <use xlink:href="#DejaVuSans-74" x="1721.541016"/>
      <use xlink:href="#DejaVuSans-63" x="1760.75"/>
      <use xlink:href="#DejaVuSans-68" x="1815.730469"/>
      <use xlink:href="#DejaVuSans-69" x="1879.109375"/>
      <use xlink:href="#DejaVuSans-6e" x="1906.892578"/>
      <use xlink:href="#DejaVuSans-67" x="1970.271484"/>
      <use xlink:href="#DejaVuSans-20" x="2033.748047"/>
      <use xlink:href="#DejaVuSans-70" x="2065.535156"/>
      <use xlink:href="#DejaVuSans-75" x="2129.011719"/>
      <use xlink:href="#DejaVuSans-72" x="2192.390625"/>
      <use xlink:href="#DejaVuSans-65" x="2231.253906"/>
      <use xlink:href="#DejaVuSans-20" x="2292.777344"/>
      <use xlink:href="#DejaVuSans-72" x="2324.564453"/>
      <use xlink:href="#DejaVuSans-65" x="2363.427734"/>
      <use xlink:href="#DejaVuSans-70" x="2424.951172"/>
      <use xlink:href="#DejaVuSans-65" x="2488.427734"/>
      <use xlink:href="#DejaVuSans-61" x="2549.951172"/>
      <use xlink:href="#DejaVuSans-74" x="2611.230469"/>
      <use xlink:href="#DejaVuSans-73" x="2650.439453"/>
      <use xlink:href="#DejaVuSans-20" x="2702.539062"/>
      <use xlink:href="#DejaVuSans-69" x="2734.326172"/>
      <use xlink:href="#DejaVuSans-6e" x="2762.109375"/>
      <use xlink:href="#DejaVuSans-20" x="2825.488281"/>
      <use xlink:href="#DejaVuSans-68" x="2857.275391"/>
      <use xlink:href="#DejaVuSans-67" x="2920.654297"/>
      <use xlink:href="#DejaVuSans-33" x="2984.130859"/>
      <use xlink:href="#DejaVuSans-38" x="3047.753906"/>
     </g>
    </g>
    <g id="patch_153">
     <path d="M 86.289375 112.850625 
L 112.289375 112.850625 
L 112.289375 103.750625 
L 86.289375 103.750625 
z
" style="fill: #ffc939; fill-opacity: 0.75; stroke: #000000; stroke-width: 0.8; stroke-linejoin: miter"/>
    </g>
    <g id="text_26">
     <!-- No expansion in truth set, but matches pure repeats in hg38 -->
     <g transform="translate(122.689375 112.850625)scale(0.13 -0.13)">
      <defs>
       <path id="DejaVuSans-2c" d="M 750 794 
L 1409 794 
L 1409 256 
L 897 -744 
L 494 -744 
L 750 256 
L 750 794 
z
" transform="scale(0.015625)"/>
      </defs>
      <use xlink:href="#DejaVuSans-4e"/>
      <use xlink:href="#DejaVuSans-6f" x="74.804688"/>
      <use xlink:href="#DejaVuSans-20" x="135.986328"/>
      <use xlink:href="#DejaVuSans-65" x="167.773438"/>
      <use xlink:href="#DejaVuSans-78" x="227.546875"/>
      <use xlink:href="#DejaVuSans-70" x="286.726562"/>
      <use xlink:href="#DejaVuSans-61" x="350.203125"/>
      <use xlink:href="#DejaVuSans-6e" x="411.482422"/>
      <use xlink:href="#DejaVuSans-73" x="474.861328"/>
      <use xlink:href="#DejaVuSans-69" x="526.960938"/>
      <use xlink:href="#DejaVuSans-6f" x="554.744141"/>
      <use xlink:href="#DejaVuSans-6e" x="615.925781"/>
      <use xlink:href="#DejaVuSans-20" x="679.304688"/>
      <use xlink:href="#DejaVuSans-69" x="711.091797"/>
      <use xlink:href="#DejaVuSans-6e" x="738.875"/>
      <use xlink:href="#DejaVuSans-20" x="802.253906"/>
      <use xlink:href="#DejaVuSans-74" x="834.041016"/>
      <use xlink:href="#DejaVuSans-72" x="873.25"/>
      <use xlink:href="#DejaVuSans-75" x="914.363281"/>
      <use xlink:href="#DejaVuSans-74" x="977.742188"/>
      <use xlink:href="#DejaVuSans-68" x="1016.951172"/>
      <use xlink:href="#DejaVuSans-20" x="1080.330078"/>
      <use xlink:href="#DejaVuSans-73" x="1112.117188"/>
      <use xlink:href="#DejaVuSans-65" x="1164.216797"/>
      <use xlink:href="#DejaVuSans-74" x="1225.740234"/>
      <use xlink:href="#DejaVuSans-2c" x="1264.949219"/>
      <use xlink:href="#DejaVuSans-20" x="1296.736328"/>
      <use xlink:href="#DejaVuSans-62" x="1328.523438"/>
      <use xlink:href="#DejaVuSans-75" x="1392"/>
      <use xlink:href="#DejaVuSans-74" x="1455.378906"/>
      <use xlink:href="#DejaVuSans-20" x="1494.587891"/>
      <use xlink:href="#DejaVuSans-6d" x="1526.375"/>
      <use xlink:href="#DejaVuSans-61" x="1623.787109"/>
      <use xlink:href="#DejaVuSans-74" x="1685.066406"/>
      <use xlink:href="#DejaVuSans-63" x="1724.275391"/>
      <use xlink:href="#DejaVuSans-68" x="1779.255859"/>
      <use xlink:href="#DejaVuSans-65" x="1842.634766"/>
      <use xlink:href="#DejaVuSans-73" x="1904.158203"/>
      <use xlink:href="#DejaVuSans-20" x="1956.257812"/>
      <use xlink:href="#DejaVuSans-70" x="1988.044922"/>
      <use xlink:href="#DejaVuSans-75" x="2051.521484"/>
      <use xlink:href="#DejaVuSans-72" x="2114.900391"/>
      <use xlink:href="#DejaVuSans-65" x="2153.763672"/>
      <use xlink:href="#DejaVuSans-20" x="2215.287109"/>
      <use xlink:href="#DejaVuSans-72" x="2247.074219"/>
      <use xlink:href="#DejaVuSans-65" x="2285.9375"/>
      <use xlink:href="#DejaVuSans-70" x="2347.460938"/>
      <use xlink:href="#DejaVuSans-65" x="2410.9375"/>
      <use xlink:href="#DejaVuSans-61" x="2472.460938"/>
      <use xlink:href="#DejaVuSans-74" x="2533.740234"/>
      <use xlink:href="#DejaVuSans-73" x="2572.949219"/>
      <use xlink:href="#DejaVuSans-20" x="2625.048828"/>
      <use xlink:href="#DejaVuSans-69" x="2656.835938"/>
      <use xlink:href="#DejaVuSans-6e" x="2684.619141"/>
      <use xlink:href="#DejaVuSans-20" x="2747.998047"/>
      <use xlink:href="#DejaVuSans-68" x="2779.785156"/>
      <use xlink:href="#DejaVuSans-67" x="2843.164062"/>
      <use xlink:href="#DejaVuSans-33" x="2906.640625"/>
      <use xlink:href="#DejaVuSans-38" x="2970.263672"/>
     </g>
    </g>
    <g id="patch_154">
     <path d="M 86.289375 131.932187 
L 112.289375 131.932187 
L 112.289375 122.832187 
L 86.289375 122.832187 
z
" style="fill: #689f38; fill-opacity: 0.75; stroke: #000000; stroke-width: 0.8; stroke-linejoin: miter"/>
    </g>
    <g id="text_27">
     <!-- Matches expansion in truth set -->
     <g transform="translate(122.689375 131.932187)scale(0.13 -0.13)">
      <use xlink:href="#DejaVuSans-4d"/>
      <use xlink:href="#DejaVuSans-61" x="86.279297"/>
      <use xlink:href="#DejaVuSans-74" x="147.558594"/>
      <use xlink:href="#DejaVuSans-63" x="186.767578"/>
      <use xlink:href="#DejaVuSans-68" x="241.748047"/>
      <use xlink:href="#DejaVuSans-65" x="305.126953"/>
      <use xlink:href="#DejaVuSans-73" x="366.650391"/>
      <use xlink:href="#DejaVuSans-20" x="418.75"/>
      <use xlink:href="#DejaVuSans-65" x="450.537109"/>
      <use xlink:href="#DejaVuSans-78" x="510.310547"/>
      <use xlink:href="#DejaVuSans-70" x="569.490234"/>
      <use xlink:href="#DejaVuSans-61" x="632.966797"/>
      <use xlink:href="#DejaVuSans-6e" x="694.246094"/>
      <use xlink:href="#DejaVuSans-73" x="757.625"/>
      <use xlink:href="#DejaVuSans-69" x="809.724609"/>
      <use xlink:href="#DejaVuSans-6f" x="837.507812"/>
      <use xlink:href="#DejaVuSans-6e" x="898.689453"/>
      <use xlink:href="#DejaVuSans-20" x="962.068359"/>
      <use xlink:href="#DejaVuSans-69" x="993.855469"/>
      <use xlink:href="#DejaVuSans-6e" x="1021.638672"/>
      <use xlink:href="#DejaVuSans-20" x="1085.017578"/>
      <use xlink:href="#DejaVuSans-74" x="1116.804688"/>
      <use xlink:href="#DejaVuSans-72" x="1156.013672"/>
      <use xlink:href="#DejaVuSans-75" x="1197.126953"/>
      <use xlink:href="#DejaVuSans-74" x="1260.505859"/>
      <use xlink:href="#DejaVuSans-68" x="1299.714844"/>
      <use xlink:href="#DejaVuSans-20" x="1363.09375"/>
      <use xlink:href="#DejaVuSans-73" x="1394.880859"/>
      <use xlink:href="#DejaVuSans-65" x="1446.980469"/>
      <use xlink:href="#DejaVuSans-74" x="1508.503906"/>
     </g>
    </g>
   </g>
  </g>
 </g>
 <defs>
  <clipPath id="pb2e0878406">
   <rect x="74.589375" y="72.191094" width="629.801025" height="439.736181"/>
  </clipPath>
 </defs>
</svg>
